<?xml version="1.0" encoding="utf-8"?>
<!-- Generator: Adobe Illustrator 16.0.0, SVG Export Plug-In . SVG Version: 6.00 Build 0)  -->
<!DOCTYPE svg PUBLIC "-//W3C//DTD SVG 1.1//EN" "http://www.w3.org/Graphics/SVG/1.1/DTD/svg11.dtd">
<svg version="1.1" id="Layer_1" xmlns="http://www.w3.org/2000/svg" xmlns:xlink="http://www.w3.org/1999/xlink" x="0px" y="0px"
	 width="936px" height="71.958px" viewBox="-133.5 127.141 936 71.958" enable-background="new -133.5 127.141 936 71.958"
	 xml:space="preserve">
<g>
	<path fill="#FFFFFF" d="M-84.625,180.41h-7.476l-6.416-23.266c-0.67-2.289-1.06-4.688-1.452-7.087h-0.053
		c-0.282,2.343-0.728,4.632-1.341,6.975l-6.36,23.377h-7.142l-9.765-37.662h6.472l5.802,22.875c0.671,2.514,1.117,4.908,1.453,7.422
		h0.054c0.392-2.456,0.837-4.856,1.507-7.143l6.416-23.155h6.641l6.583,23.211c0.559,2.008,1.115,4.52,1.507,6.918h0.058
		c0.389-2.345,0.779-4.521,1.337-6.584l5.861-23.545h6.08L-84.625,180.41"/>
	<path fill="#FFFFFF" d="M-63.883,180.968c-7.702,0-12.725-4.295-12.725-14.061c0-8.371,5.414-14.785,13.84-14.785
		c7.418,0,12.667,4.127,12.667,13.891C-50.102,174.551-55.685,180.968-63.883,180.968 M-63.269,157.144
		c-3.631,0-7.143,2.79-7.143,9.15c0,6.249,2.455,9.543,7.083,9.543c3.852,0,7.086-3.013,7.086-9.429
		C-56.243,160.492-58.529,157.144-63.269,157.144z"/>
	<path fill="#FFFFFF" d="M-32.578,158.036c-5.525-1.06-8.204,2.79-8.204,11.103v11.271h-5.97v-27.73h5.69
		c0,1.562-0.164,4.018-0.555,6.139h0.107c1.228-3.739,4.018-7.2,9.208-6.641L-32.578,158.036"/>
	<rect x="-29.11" y="142.394" fill="#FFFFFF" width="5.971" height="38.016"/>
	<path fill="#FFFFFF" d="M-0.49,180.412c0-1.454,0.114-3.628,0.392-5.19h-0.112c-1.505,3.404-4.742,5.747-9.036,5.747
		c-6.809,0-10.214-5.021-10.214-13.057c0-9.542,5.527-15.678,14.508-15.678c1.339,0,2.677,0.113,4.187,0.222v-10.062h5.912v38.018
		H-0.49 M-0.767,157.478c-1.509-0.333-2.958-0.501-4.407-0.501c-4.745,0-7.979,2.901-7.979,10.378c0,5.579,1.729,8.704,5.523,8.704
		c4.409,0,6.863-5.246,6.863-9.987V157.478z"/>
	<path fill="#FFFFFF" d="M18.373,166.629c-0.837,0-1.841,0-2.793-0.11v13.891H9.501v-37.66c2.905-0.113,6.137-0.224,9.653-0.224
		c8.927,0,13.836,4.351,13.836,11.324C32.99,161.162,27.136,166.629,18.373,166.629 M18.708,147.491c-1.172,0-2.12,0-3.127,0.112
		v13.782c0.839,0.112,1.788,0.222,2.68,0.222c5.078-0.055,8.424-2.846,8.424-7.253C26.683,150.058,24.173,147.491,18.708,147.491z"
		/>
	<path fill="#FFFFFF" d="M50.187,180.412c0-1.786,0.058-3.628,0.28-5.136l-0.057-0.054c-1.338,3.29-4.796,5.747-9.204,5.747
		c-4.745,0-7.757-3.181-7.757-7.7c0-6.248,6.191-9.651,16.348-9.651v-1.618c0-3.405-1.45-5.247-5.803-5.247
		c-2.566,0-5.691,0.837-7.924,2.008l-1.172-4.798c2.792-1.058,6.53-1.84,10.101-1.84c8.425,0,10.771,3.681,10.771,9.208v11.491
		c0,2.4,0.054,5.246,0.165,7.589L50.187,180.412 M49.799,167.634c-8.315,0-10.602,2.286-10.602,4.909
		c0,2.12,1.451,3.739,3.794,3.739c4.073,0,6.808-3.906,6.808-7.867V167.634z"/>
	<path fill="#FFFFFF" d="M71.905,182.363c-3.458,9.26-7.141,12.105-13.444,12.105c-1.06,0-2.564-0.164-3.516-0.333l0.668-5.19
		c0.953,0.279,2.289,0.445,3.405,0.445c2.623,0,5.077-1.281,6.919-6.248l1.002-2.734l-10.374-27.731h6.694l4.519,12.665
		c0.892,2.455,1.562,4.912,2.176,7.255h0.056c0.559-2.232,1.73-5.858,2.732-8.647l3.961-11.273h6.417L71.905,182.363"/>
	<polyline fill="#FFFFFF" points="73.924,142.896 71.944,142.896 71.944,142.18 76.727,142.18 76.727,142.896 74.728,142.896 
		74.728,148.22 73.924,148.22 73.924,142.896 	"/>
	<path fill="#FFFFFF" d="M77.558,142.18h1.196l1.426,4.275c0.203,0.6,0.238,0.717,0.278,0.895h0.018
		c0.104-0.329,0.128-0.397,0.321-0.969l1.442-4.201h1.064v6.04h-0.759v-5.053h-0.018l-1.739,5.053h-0.716l-1.728-5.138h-0.025v5.138
		h-0.76V142.18"/>
</g>
<g>
	<g id="Layer_1_copy_24_">
		<path fill="#FFFFFF" d="M320.115,143.124H309.2c-3.393,0-5.912,0.922-7.402,4.302l-20.979,47.507h14.836
			c0,0,2.42-6.391,2.971-7.789c1.625,0,16.039,0.021,18.09,0.021c0.422,1.81,1.725,7.768,1.725,7.768h13.104L320.115,143.124z
			 M302.692,176.539c1.16-2.978,5.628-14.485,5.628-14.485c-0.078,0.142,1.149-2.998,1.881-4.95l0.95,4.468
			c0,0,2.708,12.377,3.275,14.968H302.692z M281.806,177.968c-0.1,10.77-9.751,17.714-24.602,17.714
			c-6.334-0.064-12.434-1.31-15.741-2.761l1.987-11.6l1.82,0.827c4.642,1.934,7.644,2.715,13.304,2.715
			c4.06,0,8.406-1.593,8.448-5.06c0.025-2.271-1.82-3.89-7.324-6.434c-5.365-2.48-12.465-6.639-12.376-14.084
			c0.078-10.074,9.918-17.105,23.881-17.105c5.472,0,9.857,1.126,12.653,2.175l-1.908,11.236l-1.278-0.6
			c-2.601-1.046-5.954-2.058-10.574-1.983c-5.528,0-8.098,2.303-8.098,4.457c-0.028,2.431,2.995,4.027,7.938,6.434
			C278.102,167.585,281.87,172.082,281.806,177.968z M157.733,143.662l0.181-1.04h21.905c2.954,0.113,5.333,1.054,6.155,4.212
			l4.764,22.906C186.057,157.76,174.778,147.795,157.733,143.662z M221.616,143.117l-22.249,51.739l-14.948,0.025l-12.654-43.228
			c9.096,5.823,16.843,15.056,19.571,21.49l1.475,5.337l13.837-35.352L221.616,143.117L221.616,143.117z M227.328,143.073h14.135
			l-8.841,51.836h-14.126L227.328,143.073z"/>
	</g>
</g>
<g>
	<g id="Layer_1_copy_5_">
		<path fill="#FFFFFF" d="M609.961,150.705c-0.633-1.269-1.632-2.316-2.875-3.103c-1.296-0.794-2.827-1.35-4.576-1.679
			c-1.778-0.323-3.834-0.469-6.212-0.491l-10.994,0.007c-1.142,0.016-2.263,0.905-2.532,2.01l-7.396,32.221
			c-0.27,1.086,0.445,2,1.591,2h5.267c1.142,0,2.271-0.884,2.523-2l1.808-7.826c0.24-1.086,1.368-1.998,2.521-1.998h1.508
			c6.438-0.007,11.422-1.322,15.006-3.956c3.599-2.639,5.374-6.125,5.374-10.442C610.97,153.559,610.659,151.971,609.961,150.705z
			 M598.607,161.232c-1.591,1.164-3.804,1.749-6.657,1.749h-1.288c-1.146,0-1.847-0.906-1.599-2.009l1.584-6.841
			c0.225-1.097,1.378-2.005,2.508-1.998l1.728-0.012c2.011,0,3.55,0.348,4.576,1.024c1.018,0.667,1.526,1.729,1.52,3.136
			C601.009,158.421,600.191,160.065,598.607,161.232z M670.981,157.024L650.008,192.5c-0.678,1.108-2.169,2-3.304,2l-5.45,0.008
			c-1.132,0-1.502-0.899-0.813-2.007l4.662-8.119c0,0,0.374-0.471,0.042-3.115c-0.717-4.801-4.3-25.182-4.3-25.182
			c-0.255-1.104,0.442-2.008,1.577-2.008l4.718-0.008c1.444,0,2.605,0.951,2.868,2.063l2.345,14.14l0.876,0.007
			c0.73-1.297,8.272-14.235,8.272-14.235c0.719-1.094,2.175-2.008,3.31-2.008c0,0,5.066,0.014,6.314,0
			C673,153.991,670.981,157.024,670.981,157.024z M705.564,150.823c-0.658-1.277-1.647-2.307-2.898-3.112
			c-1.281-0.797-2.798-1.359-4.572-1.681c-1.745-0.311-3.827-0.479-6.193-0.483l-11.01,0.007c-1.146,0.021-2.247,0.91-2.513,2.003
			l-7.403,32.233c-0.27,1.093,0.469,2,1.588,2l5.272-0.008c1.119,0.008,2.266-0.891,2.531-1.995l1.782-7.828
			c0.262-1.089,1.394-2.005,2.531-1.998h1.506c6.447,0,11.443-1.327,15.038-3.954c3.559-2.657,5.354-6.134,5.354-10.456
			C706.561,153.669,706.235,152.077,705.564,150.823z M694.21,161.365c-1.588,1.144-3.8,1.726-6.639,1.726h-1.311
			c-1.131,0.011-1.865-0.908-1.61-2.005l1.595-6.831c0.232-1.092,1.374-2.009,2.513-1.998l1.707-0.011
			c2.026,0.011,3.543,0.344,4.581,1.021c1.028,0.676,1.517,1.733,1.528,3.135C696.585,158.542,695.791,160.192,694.21,161.365z
			 M635.348,155.311c-1.985-1.12-5.124-1.68-9.411-1.68c-2.119,0-4.23,0.166-6.369,0.495c-1.577,0.242-1.73,0.287-2.701,0.498
			c-1.999,0.438-2.313,2.434-2.313,2.434l-0.644,2.651c-0.363,1.691,0.61,1.625,1.015,1.483c0.876-0.26,1.363-0.528,3.149-0.927
			c1.708-0.388,3.505-0.68,4.931-0.662c2.105,0,3.716,0.223,4.791,0.677c1.055,0.458,1.588,1.249,1.588,2.392l-0.095,0.743
			l-0.759,0.469c-2.986,0.187-5.146,0.464-7.764,0.843c-2.562,0.357-4.809,0.982-6.678,1.838c-2.006,0.88-3.492,2.065-4.53,3.572
			c-1.008,1.515-1.51,3.354-1.51,5.506c0,2.026,0.731,3.704,2.147,5c1.418,1.273,3.298,1.895,5.545,1.895
			c1.423-0.007,2.523-0.12,3.307-0.307l2.55-0.876l2.157-1.198l1.988-1.311l0.026,0.038l-0.198,0.846l-0.012,0.033v0.008
			c-0.217,1.03,0.404,1.869,1.409,1.973l0.018,0.023h0.091h4.036h0.761l0.071-0.034c1.048-0.124,2.032-0.966,2.265-1.97
			l3.838-16.615l0.199-1.354l0.093-1.27C638.354,158.17,637.336,156.425,635.348,155.311z M626.858,173.993l-0.82,1.079
			l-2.071,1.071c-0.974,0.397-1.898,0.595-2.752,0.595c-1.299,0-2.313-0.191-2.999-0.573l-1.019-1.973
			c0-1.067,0.246-1.917,0.771-2.569l2.231-1.519c0.956-0.322,2.121-0.595,3.473-0.783c1.201-0.149,3.579-0.421,3.891-0.428
			l0.367,0.64C627.857,169.897,627.185,172.72,626.858,173.993z M758.315,143.641h1.761v0.727h-1.761v2.341l0.009,0.634l0.122,0.421
			l0.278,0.27l0.542,0.083l0.438-0.06l0.329-0.102h0.049v0.771l-0.535,0.105l-0.502,0.041l-1.194-0.429l-0.408-1.351v-2.725h-0.592
			v-0.727h0.592v-1.46h0.872V143.641L758.315,143.641z M730.969,155.333c-1.996-1.119-5.13-1.682-9.403-1.682
			c-2.123,0-4.239,0.164-6.365,0.504c-1.581,0.231-1.738,0.281-2.712,0.487c-2,0.435-2.311,2.44-2.311,2.44l-0.645,2.646
			c-0.358,1.691,0.593,1.614,1.037,1.483c0.877-0.26,1.35-0.517,3.119-0.93c1.701-0.384,3.513-0.669,4.943-0.661
			c2.097,0,3.707,0.227,4.778,0.679c1.067,0.461,1.588,1.258,1.588,2.39l-0.078,0.739l-0.754,0.48
			c-3.018,0.179-5.183,0.457-7.772,0.837c-2.555,0.355-4.809,0.978-6.682,1.837c-1.995,0.885-3.504,2.07-4.53,3.579
			c-1.016,1.52-1.509,3.347-1.509,5.484c0,2.045,0.719,3.719,2.152,5.007c1.431,1.273,3.291,1.909,5.539,1.909
			c1.415-0.015,2.512-0.112,3.299-0.314l2.542-0.865l2.181-1.194l1.969-1.33l0.038,0.041l-0.184,0.854l-0.019,0.015l0.007,0.015
			c-0.236,1.026,0.39,1.88,1.4,1.97l0.009,0.023h0.093l0,0c0.663,0,2.955,0,4.048,0h0.745l0.078-0.031
			c1.041-0.127,2.023-0.97,2.24-1.984l3.849-16.593l0.206-1.361l0.109-1.273C733.979,158.188,732.975,156.45,730.969,155.333z
			 M722.497,174.016l-0.854,1.093l-2.051,1.063c-0.976,0.39-1.902,0.592-2.742,0.592c-1.337,0-2.325-0.191-2.995-0.577l-1.026-1.966
			c0-1.075,0.247-1.914,0.752-2.577c0.511-0.625,1.289-1.138,2.254-1.515c0.944-0.322,2.109-0.583,3.466-0.779
			c1.197-0.149,3.567-0.429,3.875-0.432l0.37,0.64C723.494,169.925,722.812,172.735,722.497,174.016z M750.711,147.814l0.014,0.004
			l-7.047,31.945l-0.255,0.386c-0.408,0.895-1.31,1.625-2.269,1.625h-4.896l-0.082-0.113c-0.936-0.143-1.542-0.888-1.322-1.872
			l-0.007-0.023l0.213-0.921l6.591-29.963l0.239-1.043l0.259-0.406c0.427-0.882,1.3-1.599,2.267-1.599h4.714
			C750.262,145.82,750.954,146.713,750.711,147.814z M768.198,144.013l0.404,1.431v3.326h-0.858v-2.927l-0.06-0.625l-0.104-0.495
			l-0.307-0.295l-0.566-0.103l-0.719,0.18l-0.729,0.464l0.015,0.249l0.016,0.273v3.275h-0.854v-2.927l-0.042-0.633l-0.128-0.491
			l-0.288-0.295l-0.584-0.103l-0.712,0.176l-0.719,0.446v3.823h-0.85v-5.121h0.854v0.569l0.812-0.522l0.854-0.188l0.887,0.21
			l0.551,0.61l0.944-0.637l0.929-0.187L768.198,144.013z"/>
	</g>
</g>
<g>
	<path fill="#FFFFFF" d="M438.768,158.348c-2.079,0-3.674,0.668-3.674,0.668l-0.44,2.614c0,0,1.315-0.535,3.309-0.535
		c1.13,0,1.953,0.125,1.953,1.044c0,0.558-0.099,0.763-0.099,0.763s-0.893-0.072-1.305-0.072c-2.624,0-5.38,1.117-5.38,4.496
		c0,2.663,1.809,3.27,2.929,3.27c2.143,0,3.066-1.388,3.113-1.392l-0.101,1.159h2.673l1.189-8.355
		C442.935,158.461,439.844,158.348,438.768,158.348z M437.269,168.053c-0.939,0-1.185-0.718-1.185-1.146
		c0-0.83,0.449-1.829,2.673-1.829c0.521,0.002,0.574,0.056,0.66,0.071C439.477,165.661,439.1,168.053,437.269,168.053z
		 M446.749,162.137c0,1.518,3.614,0.771,3.614,4.541c0,4.035-3.906,3.858-4.588,3.858c-2.545,0-3.332-0.352-3.406-0.371l0.405-2.655
		c0.004-0.021,1.278,0.462,2.696,0.462c0.817,0,1.878-0.081,1.878-1.056c0-1.467-3.797-1.111-3.797-4.588
		c0-3.063,2.278-3.96,4.521-3.96c1.734,0,2.8,0.238,2.8,0.238l-0.383,2.677c0,0-1.646-0.135-2.073-0.135
		C447.336,161.149,446.749,161.385,446.749,162.137z M453.949,166.753c-0.067,0.415,0.049,0.979,1.105,0.979
		c0.269,0,0.574-0.091,0.781-0.091l-0.379,2.58c-0.305,0.085-1.167,0.39-2.274,0.4c-1.413,0.013-2.417-0.781-2.417-2.572
		c0-1.204,1.725-11.118,1.791-11.182h3.033l-0.31,1.768h1.515l-0.387,2.855h-1.606L453.949,166.753z M465.656,165.501
		c0,0,0.397-1.966,0.397-2.767c0-1.998-0.994-4.436-4.324-4.436c-3.05,0.001-5.311,3.288-5.311,7.005
		c0,4.287,2.829,5.304,5.241,5.304c2.226,0,3.204-0.499,3.204-0.499l0.537-2.924c0,0-1.694,0.747-3.225,0.747
		c-3.258,0-2.688-2.431-2.688-2.431H465.656z M461.739,161.016c1.712,0,1.396,1.926,1.396,2.08h-3.367
		C459.768,162.898,460.085,161.016,461.739,161.016z M434.22,155.929l-2.391,14.451h-3.107l1.727-10.894l-3.897,10.894h-2.09
		l-0.271-10.894l-1.846,10.894h-2.928l2.427-14.451h4.427l0.156,8.866l2.989-8.866H434.22z M472.6,154.026h-15.754
		c0.154-0.295,0.707-1.482,1.536-3.052h12.986C471.835,151.96,472.244,152.979,472.6,154.026z M469.727,147.979h-9.656
		c0.619-1.021,1.302-2.068,2.03-3.05h5.413C468.316,145.896,469.057,146.913,469.727,147.979z M464.688,184.254
		c-1.055-0.954-2.012-2.01-2.914-3.114h5.885c-0.887,1.086-1.857,2.105-2.893,3.051h-0.006c0,0.001,0.002,0.001,0.002,0.001
		C464.735,184.213,464.712,184.234,464.688,184.254z M469.765,178.203h-10.113c-0.614-0.982-1.188-1.991-1.682-3.05h13.452
		C470.929,176.206,470.376,177.224,469.765,178.203z M473.37,158.529c-0.404,0.822-0.759,1.574-1.129,3.519
		c-2.105-0.746-2.271,3.333-3.153,8.354h-3.114l1.895-11.761h2.823l-0.273,1.704c0,0,1.006-1.852,2.366-1.852
		C473.181,158.488,473.37,158.529,473.37,158.529z M478.985,167.655c1.022,0,2.509-0.745,2.509-0.745l-0.544,3.312
		c0,0-1.629,0.416-2.653,0.416c-3.619,0-5.459-2.5-5.459-6.285c0-5.707,3.407-8.747,6.909-8.747c1.58,0,3.415,0.743,3.415,0.743
		l-0.495,3.215c0,0-1.24-0.868-2.783-0.868c-2.064,0-3.915,1.97-3.915,5.553C475.969,166.012,476.831,167.655,478.985,167.655z
		 M508.606,168.706c-0.149,0.079-0.263,0.194-0.345,0.342c-0.084,0.147-0.126,0.301-0.126,0.46c0,0.159,0.042,0.311,0.126,0.457
		c0.08,0.144,0.194,0.262,0.339,0.344c0.149,0.08,0.3,0.12,0.458,0.12c0.161,0,0.312-0.04,0.457-0.12
		c0.145-0.083,0.259-0.2,0.339-0.344c0.085-0.146,0.123-0.297,0.123-0.457c0-0.162-0.039-0.315-0.123-0.46
		c-0.08-0.148-0.196-0.263-0.346-0.342c-0.146-0.081-0.294-0.119-0.45-0.119C508.907,168.587,508.756,168.625,508.606,168.706z
		 M509.724,169.12c0.07,0.125,0.107,0.252,0.107,0.385c0,0.131-0.034,0.26-0.103,0.381s-0.162,0.213-0.287,0.286
		c-0.121,0.068-0.247,0.102-0.378,0.102c-0.134,0-0.264-0.034-0.382-0.102c-0.124-0.069-0.217-0.163-0.288-0.286
		c-0.068-0.124-0.101-0.25-0.101-0.381c0-0.133,0.033-0.259,0.108-0.385c0.064-0.121,0.157-0.215,0.284-0.284
		s0.25-0.098,0.378-0.098c0.127,0,0.254,0.033,0.372,0.098C509.563,168.905,509.655,168.997,509.724,169.12z M497.404,165.63
		c0,2.486,1.237,4.922,3.762,4.922c1.818,0,2.825-1.269,2.825-1.269l-0.132,1.083h2.95l2.318-14.428l-3.042,0.006l-0.654,4.061
		c0,0-1.141-1.578-2.927-1.578C499.722,158.429,497.404,161.781,497.404,165.63z M504.676,163.861c0,1.604-0.794,3.744-2.437,3.744
		c-1.094,0-1.604-0.915-1.604-2.355c0-2.354,1.058-3.905,2.392-3.905C504.114,161.347,504.676,162.095,504.676,163.861z
		 M509.611,179.058c-0.021-0.021-0.048-0.042-0.086-0.052c0.086-0.006,0.156-0.039,0.209-0.09c0.048-0.053,0.076-0.118,0.076-0.188
		c0-0.053-0.016-0.102-0.047-0.146c-0.028-0.046-0.071-0.079-0.124-0.096c-0.05-0.021-0.135-0.031-0.248-0.031h-0.346v0.993l0,0
		h0.162v-0.422h0.094c0.056,0,0.1,0.011,0.125,0.035c0.041,0.033,0.099,0.11,0.17,0.229l0.085,0.158h0.2l-0.123-0.194
		C509.699,179.163,509.651,179.098,509.611,179.058z M509.401,178.893h-0.197v-0.3h0.188c0.075,0,0.125,0.006,0.156,0.017
		c0.03,0.012,0.05,0.029,0.067,0.053c0.017,0.022,0.024,0.048,0.024,0.076c0,0.044-0.017,0.085-0.05,0.112
		C509.558,178.878,509.492,178.893,509.401,178.893z M517.357,127.141H412.038c-1.581,0-2.859,1.278-2.859,2.859v66.241
		c0,1.58,1.278,2.859,2.859,2.859h105.319c1.581,0,2.858-1.279,2.858-2.859V130C520.216,128.419,518.938,127.141,517.357,127.141z
		 M510.247,179.396c-0.083,0.147-0.195,0.263-0.341,0.343c-0.145,0.081-0.3,0.121-0.456,0.121c-0.161,0-0.312-0.041-0.46-0.121
		c-0.144-0.081-0.257-0.196-0.341-0.343c-0.081-0.145-0.123-0.298-0.123-0.458c0-0.159,0.042-0.311,0.124-0.46
		c0.081-0.148,0.198-0.262,0.344-0.341c0.148-0.078,0.296-0.118,0.454-0.118c0.155,0,0.305,0.041,0.45,0.118
		c0.149,0.08,0.263,0.193,0.344,0.341c0.083,0.149,0.123,0.303,0.123,0.46C510.365,179.096,510.33,179.254,510.247,179.396z
		 M512.306,163.121c0.005,15.737-12.746,28.5-28.485,28.504c-7.358,0.002-14.071-2.788-19.128-7.371
		c-5.057,4.576-11.756,7.363-19.104,7.363c-15.729,0-28.497-12.765-28.497-28.496c0-15.668,12.666-28.397,28.314-28.499
		c0.06,0,0.122,0,0.183,0c7.348,0,14.048,2.788,19.104,7.363c5.056-4.577,11.76-7.367,19.113-7.369
		c15.738-0.006,28.499,12.751,28.504,28.491C512.306,163.111,512.306,163.115,512.306,163.121z M508.656,169.024v0.991h0.161v-0.42
		h0.092c0.058,0,0.103,0.011,0.13,0.032c0.042,0.036,0.099,0.111,0.169,0.234l0.083,0.155h0.201l-0.123-0.193
		c-0.057-0.092-0.107-0.158-0.145-0.199c-0.025-0.021-0.049-0.038-0.084-0.05c0.084-0.005,0.15-0.038,0.203-0.089
		c0.051-0.052,0.079-0.119,0.079-0.19c0-0.048-0.015-0.1-0.049-0.144c-0.03-0.045-0.069-0.077-0.118-0.098
		c-0.052-0.02-0.139-0.029-0.253-0.029H508.656L508.656,169.024z M509.229,169.228c0.017,0.025,0.026,0.046,0.026,0.08
		c0,0.043-0.02,0.081-0.049,0.108c-0.038,0.029-0.1,0.04-0.19,0.04h-0.194v-0.297h0.181c0.078,0,0.129,0.006,0.16,0.015
		C509.188,169.188,509.21,169.201,509.229,169.228z M487.953,158.348c-2.085,0-3.676,0.668-3.676,0.668l-0.442,2.614
		c0,0,1.317-0.535,3.305-0.535c1.133,0,1.961,0.125,1.961,1.044c0,0.558-0.104,0.763-0.104,0.763s-0.892-0.072-1.306-0.072
		c-2.623,0-5.379,1.117-5.379,4.496c0,2.663,1.81,3.27,2.931,3.27c2.137,0,3.061-1.388,3.111-1.392l-0.101,1.159h2.669l1.193-8.355
		C492.12,158.461,489.025,158.348,487.953,158.348z M486.46,168.053c-0.944,0-1.188-0.718-1.188-1.146
		c0-0.83,0.45-1.829,2.674-1.829c0.517,0.002,0.573,0.056,0.661,0.071C488.664,165.661,488.283,168.053,486.46,168.053z
		 M497.713,162.046c-2.105-0.745-2.266,3.331-3.152,8.355h-3.112l1.893-11.762h2.825l-0.271,1.706c0,0,1.01-1.854,2.369-1.854
		c0.395,0,0.583,0.04,0.583,0.04C498.443,159.351,498.087,160.103,497.713,162.046z"/>
</g>
</svg>
