<?xml version="1.0" standalone="no"?>
<!DOCTYPE svg PUBLIC "-//W3C//DTD SVG 1.1//EN" "http://www.w3.org/Graphics/SVG/1.1/DTD/svg11.dtd" >
<svg>
<metadata>
Created by FontForge 20090622 at Tue Jun 16 02:14:45 2015
 By deploy user
Copyright (c) 2010, 2011 Brian M Zick (http://21326.info/), 
with Reserved Font Name 'Neuton'.

This Font Software is licensed under the SIL Open Font License, Version 1.1.
This license is available with a FAQ at: http://scripts.sil.org/OFL
   WITHOUT WARRANTIES OR CONDITIONS OF ANY KIND, either express or implied.
   See the License for the specific language governing permissions and
   limitations under the License.
</metadata>
<defs>
<font id="Neuton-Regular" horiz-adv-x="982" >
  <font-face 
    font-family="Neuton"
    font-weight="500"
    font-stretch="normal"
    units-per-em="2048"
    panose-1="2 0 5 3 0 0 0 0 0 0"
    ascent="1638"
    descent="-410"
    x-height="873"
    cap-height="1244"
    bbox="-73 -418 1817 1710"
    underline-thickness="0"
    underline-position="-361"
    unicode-range="U+0020-U+20AC"
  />
<missing-glyph horiz-adv-x="748" 
d="M68 0v1365h544v-1365h-544zM136 68h408v1229h-408v-1229z" />
    <glyph glyph-name=".notdef" horiz-adv-x="748" 
d="M68 0v1365h544v-1365h-544zM136 68h408v1229h-408v-1229z" />
    <glyph glyph-name=".null" horiz-adv-x="0" 
 />
    <glyph glyph-name="nonmarkingreturn" horiz-adv-x="682" 
 />
    <glyph glyph-name="A" unicode="A" horiz-adv-x="1278" 
d="M406 534h352l-166 500zM-26 0l9 74l149 55l427 1108l151 31l390 -1144l137 -44l-9 -80h-515l12 74l171 55l-109 303h-419l-101 -308l186 -44l-11 -80h-468z" />
    <glyph glyph-name="AE" unicode="&#xc6;" horiz-adv-x="1684" 
d="M510 568h307v490zM-40 1l9 75l136 55l633 995l-214 42l10 76h1062l-32 -317l-86 13l-42 212h-438v-473h259l42 123l95 8l-34 -386l-85 -15l-34 177h-243v-490h464l101 233l80 -16l-30 -313h-971l8 74l167 47v351h-359l-218 -346l188 -43l-13 -82h-455z" />
    <glyph glyph-name="Aacute" unicode="&#xc1;" horiz-adv-x="1234" 
d="M593 1385l123 325l111 -40l-184 -316zM406 534h352l-166 500zM-37 0l9 74l149 55l438 1108l151 31l390 -1144l137 -44l-9 -80h-515l12 74l171 55l-109 303h-419l-112 -308l186 -44l-11 -80h-468z" />
    <glyph glyph-name="Acircumflex" unicode="&#xc2;" horiz-adv-x="1234" 
d="M443 1392l168 180l55 13l178 -185l-50 -36l-162 108h-11l-141 -111zM406 534h352l-166 500zM-37 0l9 74l149 55l438 1108l151 31l390 -1144l137 -44l-9 -80h-515l12 74l171 55l-109 303h-419l-112 -308l186 -44l-11 -80h-468z" />
    <glyph glyph-name="Adieresis" unicode="&#xc4;" horiz-adv-x="1234" 
d="M690 1453q0 34 25.5 55.5t57.5 21.5q35 0 61.5 -22t26.5 -55q0 -35 -26.5 -57.5t-61.5 -22.5q-34 0 -58.5 22.5t-24.5 57.5zM423 1453q0 34 25.5 55.5t57.5 21.5q34 0 60 -22t26 -55q0 -35 -25.5 -57.5t-60.5 -22.5q-34 0 -58.5 22.5t-24.5 57.5zM406 534h352l-166 500z
M-37 0l9 74l149 55l438 1108l151 31l390 -1144l137 -44l-9 -80h-515l12 74l171 55l-109 303h-419l-112 -308l186 -44l-11 -80h-468z" />
    <glyph glyph-name="Agrave" unicode="&#xc0;" horiz-adv-x="2048" 
d="M436 1664l116 38l132 -334l-57 -34zM406 534h352l-166 500zM-37 0l9 74l149 55l438 1108l151 31l390 -1144l137 -44l-9 -80h-515l12 74l171 55l-109 303h-419l-112 -308l186 -44l-11 -80h-468z" />
    <glyph glyph-name="Aring" unicode="&#xc5;" horiz-adv-x="1234" 
d="M552 1543q0 -51 25 -89.5t70 -38.5q41 0 64 30t23 84q0 50 -27 88.5t-71 38.5q-41 0 -62.5 -33t-21.5 -80zM480 1532q0 69 50 120.5t119 51.5q71 0 113 -45.5t42 -116.5q0 -70 -47 -122.5t-121 -52.5q-70 0 -113 44.5t-43 120.5zM406 534h352l-166 500zM-37 0l9 74
l149 55l438 1108l151 31l390 -1144l137 -44l-9 -80h-515l12 74l171 55l-109 303h-419l-112 -308l186 -44l-11 -80h-468z" />
    <glyph glyph-name="Atilde" unicode="&#xc3;" horiz-adv-x="1234" 
d="M406 1383q1 6 4 15.5t13.5 34t23.5 43.5t35 34.5t47 15.5h14l221 -30h4q11 0 25.5 10t22.5 20l9 10l47 -1l-5 -15.5t-14 -34.5t-24.5 -44t-36.5 -34.5t-49 -15.5q-9 0 -13 1l-223 31h-3q-12 0 -27 -11.5t-23 -23.5l-9 -12zM406 534h352l-166 500zM-37 0l9 74l149 55
l438 1108l151 31l390 -1144l137 -44l-9 -80h-515l12 74l171 55l-109 303h-419l-112 -308l186 -44l-11 -80h-468z" />
    <glyph glyph-name="B" unicode="B" horiz-adv-x="1127" 
d="M420 688h258q130 54 130 221q0 50 -14.5 93.5t-47.5 83t-96 62.5t-150 23q-33 0 -80 -7v-476zM420 96h220q124 0 194 73.5t70 177.5q0 102 -69 180t-192 78h-223v-509zM50 0l11 74l167 47v983l-171 30l10 77q318 46 492 46q112 0 198.5 -24t137 -65t76 -91.5t25.5 -109.5
q0 -57 -17.5 -108.5t-66 -102t-122.5 -77.5v-7q144 -8 227 -96t83 -196q0 -59 -16.5 -112t-55.5 -103t-98.5 -86t-152 -57.5t-209.5 -21.5h-518z" />
    <glyph glyph-name="C" unicode="C" horiz-adv-x="1111" 
d="M61 589q0 92 22.5 184.5t73 182.5t123 159t182.5 111.5t242 42.5q230 0 362 -100l-31 -332l-88 13l-42 220q-81 104 -258 104q-160 0 -266 -140t-106 -376q0 -130 37.5 -236t100.5 -173t144 -102.5t171 -35.5q94 0 186.5 42.5t163.5 107.5l35 -76q-68 -83 -193 -146
t-269 -63q-117 0 -222 40.5t-187.5 115.5t-131.5 193.5t-49 263.5z" />
    <glyph glyph-name="Ccedilla" unicode="&#xc7;" horiz-adv-x="2048" 
d="M61 589q0 92 22.5 184.5t73 182.5t123.5 159t183 111.5t242 42.5q229 0 361 -100l-31 -332l-88 13l-41 220q-81 104 -259 104q-160 0 -266 -140t-106 -376q0 -130 37.5 -236t101 -173t144.5 -102.5t171 -35.5q94 0 186 42.5t163 107.5l36 -76q-56 -68 -155 -126t-216 -77
l-40 -58q89 -79 89 -151q0 -103 -200 -162l-20 58q41 14 63.5 36.5t22.5 46.5q0 41 -73 110l78 114h-11q-117 0 -222.5 40.5t-188 115.5t-131.5 193.5t-49 263.5z" />
    <glyph glyph-name="D" unicode="D" horiz-adv-x="1327" 
d="M424 104h145q129 0 231 39.5t165 108t95.5 156.5t32.5 190q0 117 -34.5 217t-100.5 176.5t-172 120t-240 43.5q-82 0 -122 -4v-1047zM47 0l14 74l172 55v974l-172 30l9 76q311 49 513 49q163 0 290 -34t207 -90t131.5 -135.5t72 -164t20.5 -181.5q0 -104 -29.5 -199.5
t-92 -178.5t-151.5 -144t-214.5 -96t-275.5 -35h-494z" />
    <glyph glyph-name="E" unicode="E" horiz-adv-x="1075" 
d="M50 1168l11 76h995l-31 -320l-87 13l-41 215h-471v-476h290l42 120l95 14l-34 -389l-85 -13l-34 175h-274v-487h495l98 230l83 -13l-30 -313h-1015l8 74l167 47v1005z" />
    <glyph glyph-name="Eacute" unicode="&#xc9;" horiz-adv-x="1142" 
d="M517 1385l123 325l111 -40l-183 -316zM50 1168l11 76h995l-31 -320l-87 13l-41 215h-471v-476h290l42 120l95 14l-34 -389l-85 -13l-34 175h-274v-487h495l98 230l83 -13l-30 -313h-1015l8 74l167 47v1005z" />
    <glyph glyph-name="Ecircumflex" unicode="&#xca;" horiz-adv-x="1142" 
d="M406 1387l168 179l55 15l178 -186l-49 -37l-163 110h-11l-139 -111zM75 1168l11 76h995l-31 -320l-87 13l-41 215h-471v-476h290l42 120l95 14l-34 -389l-85 -13l-34 175h-274v-487h495l98 230l83 -13l-30 -313h-1015l8 74l167 47v1005z" />
    <glyph glyph-name="Edieresis" unicode="&#xcb;" horiz-adv-x="1142" 
d="M647 1453q0 34 25.5 55.5t57.5 21.5q35 0 61.5 -22t26.5 -55q0 -35 -26.5 -57.5t-61.5 -22.5q-34 0 -58.5 22.5t-24.5 57.5zM380 1453q0 34 25.5 55.5t57.5 21.5q34 0 60 -22t26 -55q0 -35 -25.5 -57.5t-60.5 -22.5q-34 0 -58.5 22.5t-24.5 57.5zM50 1168l11 76h995
l-31 -320l-87 13l-41 215h-471v-476h290l42 120l95 14l-34 -389l-85 -13l-34 175h-274v-487h495l98 230l83 -13l-30 -313h-1015l8 74l167 47v1005z" />
    <glyph glyph-name="Egrave" unicode="&#xc8;" horiz-adv-x="1142" 
d="M443 1664l116 38l132 -334l-58 -34zM50 1168l11 76h995l-31 -320l-87 13l-41 215h-471v-476h290l42 120l95 14l-34 -389l-85 -13l-34 175h-274v-487h495l98 230l83 -13l-30 -313h-1015l8 74l167 47v1005z" />
    <glyph glyph-name="Eth" unicode="&#xd0;" horiz-adv-x="1374" 
d="M424 104h212q119 0 211 40.5t146.5 111t82 157t27.5 185.5q0 117 -35.5 217.5t-103 177t-175 120.5t-243.5 44q-62 0 -122 -6v-479l258 21l-12 -91l-246 -21v-477zM53 555l11 92l169 13v444l-172 30l9 77q311 49 513 49q163 0 291.5 -33.5t210.5 -89.5t135 -134.5
t75 -163t22 -181.5q0 -99 -30.5 -193.5t-94 -179t-152 -148t-212.5 -100.5t-268 -37h-513l14 74l172 55v440z" />
    <glyph glyph-name="Euro" unicode="&#x20ac;" horiz-adv-x="1161" 
d="M-4 651l10 99h147q14 78 46 151.5t84 140.5t118.5 117.5t156.5 80t192 29.5q101 0 180 -23t149 -77l-31 -332l-88 13l-42 220q-41 52 -89 78t-136 26q-149 0 -235 -114t-101 -310h541l-21 -99h-523q1 -43 5 -84h490l-21 -99h-454q37 -175 134.5 -280t241.5 -105
q51 0 101 22.5t83 68.5l43 227l88 13l31 -303q-94 -74 -183.5 -104.5t-212.5 -30.5q-215 0 -359.5 131.5t-184.5 360.5h-170l10 99h148q-2 34 -2 69v15h-146z" />
    <glyph glyph-name="F" unicode="F" horiz-adv-x="1028" 
d="M50 1168l11 76h993l-41 -322l-88 14l-34 216h-465v-482h287l42 120l90 14l-27 -392l-88 -14l-30 180h-274v-456l235 -39l-13 -83h-591l8 74l167 47v1005z" />
    <glyph glyph-name="G" unicode="G" horiz-adv-x="1276" 
d="M61 578q0 156 57.5 287t152.5 216t216 132t250 47q247 0 402 -97l-24 -322l-87 15l-36 191q-44 45 -123.5 79.5t-191.5 34.5q-84 0 -154.5 -29.5t-127 -89.5t-88 -161t-31.5 -234q0 -89 20.5 -173t62.5 -156t100.5 -126t138.5 -84.5t173 -30.5q99 0 172 42v315l-236 38
l12 83h556l-12 -75l-124 -41v-360q-97 -58 -212.5 -84t-268.5 -26q-147 0 -262.5 47t-187.5 130t-109.5 192.5t-37.5 239.5z" />
    <glyph glyph-name="Germandbls" unicode="&#x1e9e;" horiz-adv-x="1283" 
d="M26 0l8 73l164 46v632q0 254 129.5 376.5t361.5 122.5q78 0 154.5 -10t153.5 -32.5t124.5 -68t47.5 -107.5q0 -54 -29 -84t-91 -51l-19 53t-19.5 48t-26 46.5t-31 34t-41 26t-50.5 7.5q-65 0 -118 -55.5t-53 -128.5q0 -59 30 -106t77.5 -79.5t105.5 -62.5l115.5 -62.5
t105 -71t77.5 -97.5t30 -133q0 -109 -55.5 -187.5t-145.5 -115.5t-205 -37q-109 0 -200 39t-132 106l13 255l95 -15l35 -177q28 -45 87 -76.5t125 -31.5q201 0 201 174q0 51 -29 92.5t-76 70.5t-103 57t-112.5 60t-103.5 70t-76 97t-29 132q0 121 67 211.5t173 114.5l2 3
q-28 3 -87 3q-289 0 -289 -387l2 -774h-363z" />
    <glyph glyph-name="Germandbls.alt" horiz-adv-x="1283" 
d="M25 0l8 73l165 46v559q0 160 34 273t100.5 177.5t153 93t202.5 28.5q124 0 263.5 -11.5t182.5 -25.5l1 -71l-300 -391q18 -13 73.5 -41t105 -58.5t102.5 -75t84.5 -107.5t31.5 -137q0 -164 -116.5 -260t-290.5 -96q-107 0 -199 42.5t-133 110.5l13 263l101 -15l39 -185
q30 -48 84 -82t118 -34q87 0 144 46t57 144q0 40 -22.5 79.5t-54 69.5t-83.5 65t-92 57l-100 54l-88 48l-23 48l320 438v5q-27 12 -115.5 21.5t-115.5 9.5q-101 0 -162.5 -41t-94 -143.5t-32.5 -276.5l2 -700h-363z" />
    <glyph glyph-name="H" unicode="H" horiz-adv-x="1416" 
d="M50 1168l11 76h544l-10 -76l-168 -38v-438h627v434l-183 42l11 76h546l-12 -76l-167 -38v-1016l182 -34l-10 -80h-543l10 74l166 47v468h-627v-475l184 -34l-13 -80h-541l8 74l167 47v1005z" />
    <glyph glyph-name="I" unicode="I" horiz-adv-x="601" 
d="M50 1168l11 76h544l-10 -76l-169 -38v-1016l181 -34l-10 -80h-540l8 74l167 47v1005z" />
    <glyph glyph-name="Iacute" unicode="&#xcd;" horiz-adv-x="655" 
d="M289 1385l123 325l111 -40l-182 -316zM50 1168l11 76h544l-10 -76l-169 -38v-1016l181 -34l-10 -80h-540l8 74l167 47v1005z" />
    <glyph glyph-name="Icircumflex" unicode="&#xce;" horiz-adv-x="655" 
d="M132 1392l167 180l55 13l178 -185l-49 -36l-164 108h-10l-140 -111zM50 1168l11 76h544l-10 -76l-169 -38v-1016l181 -34l-10 -80h-540l8 74l167 47v1005z" />
    <glyph glyph-name="Idieresis" unicode="&#xcf;" horiz-adv-x="655" 
d="M377 1453q0 34 26 55.5t58 21.5q35 0 61.5 -22t26.5 -55q0 -35 -26.5 -57.5t-61.5 -22.5q-34 0 -59 22.5t-25 57.5zM110 1453q0 34 26 55.5t58 21.5q34 0 59.5 -22t25.5 -55q0 -35 -25.5 -57.5t-59.5 -22.5t-59 22.5t-25 57.5zM50 1168l11 76h544l-10 -76l-169 -38v-1016
l181 -34l-10 -80h-540l8 74l167 47v1005z" />
    <glyph glyph-name="Igrave" unicode="&#xcc;" horiz-adv-x="655" 
d="M133 1664l116 38l132 -334l-58 -34zM50 1168l11 76h544l-10 -76l-169 -38v-1016l181 -34l-10 -80h-540l8 74l167 47v1005z" />
    <glyph glyph-name="J" unicode="J" horiz-adv-x="592" 
d="M-4 -237q122 115 179.5 216.5t57.5 217.5v929l-181 42l10 76h545l-10 -76l-170 -38v-745q0 -125 -12.5 -214t-36.5 -157.5t-72 -126.5t-105.5 -105t-150.5 -108z" />
    <glyph glyph-name="K" unicode="K" horiz-adv-x="1228" 
d="M453 626q23 23 76.5 83.5t75.5 88.5l246 323l-155 47l8 76h493l-12 -76l-177 -47l-373 -468l227 -268q129 -153 195.5 -213.5t155.5 -88.5l37 -13l-10 -69q-63 -22 -131 -22q-115 0 -210 73.5t-193 208.5l-252 344zM47 1168l14 76h550l-10 -76l-172 -47v-997l189 -44
l-11 -80h-553l10 74l172 55v988z" />
    <glyph glyph-name="L" unicode="L" horiz-adv-x="1065" 
d="M58 0l9 74l166 47v996l-188 51l13 76h550l-10 -76l-171 -47v-1025h442l131 248l85 -13l-37 -331h-990z" />
    <glyph glyph-name="M" unicode="M" horiz-adv-x="1664" 
d="M24 0l11 74l167 47l73 1005l-183 42l10 76h403l78 -194l262 -737l307 770l71 161h395l-10 -76l-168 -38l52 -1016l182 -34l-10 -80h-536l11 74l166 47l-56 883l-381 -954l-128 -19l-343 936l-63 -853l183 -34l-13 -80h-480z" />
    <glyph glyph-name="N" unicode="N" horiz-adv-x="1337" 
d="M50 1168l11 76h350l643 -970v852l-185 42l12 76h475l-13 -76l-167 -38v-1129l-153 -31l-663 991v-847l183 -34l-11 -80h-475l8 74l167 47v996z" />
    <glyph glyph-name="Ntilde" unicode="&#xd1;" horiz-adv-x="2048" 
d="M445 1383q1 6 4 15.5t13 34t22.5 43.5t34.5 34.5t47 15.5h14l222 -30h5q11 0 25 10t22 20l8 10l48 -1l-5 -15.5t-14 -34.5t-24.5 -44t-36.5 -34.5t-49 -15.5q-9 0 -13 1l-222 31h-3q-12 0 -27 -11.5t-24 -23.5l-9 -12zM50 1168l11 76h351l642 -973v855l-185 42l12 76h475
l-13 -76l-167 -38v-1129l-153 -31l-663 991v-847l183 -34l-11 -80h-475l8 74l167 47v996z" />
    <glyph glyph-name="O" unicode="O" horiz-adv-x="1322" 
d="M283 676q0 -91 14 -175t45.5 -161.5t77 -135t114 -91.5t152.5 -34q88 0 155.5 28.5t108.5 75t67 112.5t35.5 133t9.5 145q0 88 -14 172t-46 162.5t-77.5 138t-114.5 95t-152 35.5q-375 0 -375 -500zM61 619q0 292 175 472.5t470 180.5q132 0 242.5 -52.5t183 -142.5
t112.5 -208t40 -250q0 -130 -43.5 -246.5t-124 -205.5t-205 -141.5t-275.5 -52.5q-169 0 -301 86t-203 233t-71 327z" />
    <glyph glyph-name="Oacute" unicode="&#xd3;" horiz-adv-x="1342" 
d="M574 1380l122 325l112 -39l-184 -318zM295 676q0 -91 14 -175t45.5 -161.5t77 -135t114 -91.5t152.5 -34q88 0 155.5 28.5t108 75t66.5 112.5t35.5 133t9.5 145q0 88 -14 171.5t-45.5 162.5t-77.5 138.5t-114.5 95t-151.5 35.5q-375 0 -375 -500zM73 619q0 292 175 472.5
t470 180.5q132 0 242.5 -52.5t183 -142.5t112.5 -208t40 -250q0 -130 -43.5 -246.5t-123.5 -205.5t-204.5 -141.5t-275.5 -52.5q-169 0 -301.5 86t-203.5 233t-71 327z" />
    <glyph glyph-name="Ocircumflex" unicode="&#xd4;" horiz-adv-x="1342" 
d="M484 1392l168 180l55 13l178 -185l-49 -36l-164 108h-10l-140 -111zM283 676q0 -91 14 -175t45.5 -161.5t77 -135t114 -91.5t152.5 -34q88 0 155.5 28.5t108.5 75t67 112.5t35.5 133t9.5 145q0 88 -14 172t-46 162.5t-77.5 138t-114.5 95t-152 35.5q-375 0 -375 -500z
M61 619q0 292 175 472.5t470 180.5q132 0 242.5 -52.5t183 -142.5t112.5 -208t40 -250q0 -130 -43.5 -246.5t-124 -205.5t-205 -141.5t-275.5 -52.5q-169 0 -301 86t-203 233t-71 327z" />
    <glyph glyph-name="Odieresis" unicode="&#xd6;" horiz-adv-x="1342" 
d="M730 1453q0 34 26 55.5t58 21.5q35 0 61.5 -22t26.5 -55q0 -35 -26.5 -57.5t-61.5 -22.5q-34 0 -59 22.5t-25 57.5zM463 1453q0 34 26 55.5t58 21.5q34 0 59.5 -22t25.5 -55q0 -35 -25.5 -57.5t-59.5 -22.5t-59 22.5t-25 57.5zM283 676q0 -91 14 -175t45.5 -161.5
t77 -135t114 -91.5t152.5 -34q88 0 155.5 28.5t108.5 75t67 112.5t35.5 133t9.5 145q0 88 -14 172t-46 162.5t-77.5 138t-114.5 95t-152 35.5q-375 0 -375 -500zM61 619q0 292 175 472.5t470 180.5q132 0 242.5 -52.5t183 -142.5t112.5 -208t40 -250q0 -130 -43.5 -246.5
t-124 -205.5t-205 -141.5t-275.5 -52.5q-169 0 -301 86t-203 233t-71 327z" />
    <glyph glyph-name="Ograve" unicode="&#xd2;" horiz-adv-x="1342" 
d="M527 1664l115 38l132 -334l-57 -34zM283 676q0 -91 14 -175t45.5 -161.5t77 -135t114 -91.5t152.5 -34q88 0 155.5 28.5t108.5 75t67 112.5t35.5 133t9.5 145q0 88 -14 172t-46 162.5t-77.5 138t-114.5 95t-152 35.5q-375 0 -375 -500zM61 619q0 292 175 472.5t470 180.5
q132 0 242.5 -52.5t183 -142.5t112.5 -208t40 -250q0 -130 -43.5 -246.5t-124 -205.5t-205 -141.5t-275.5 -52.5q-169 0 -301 86t-203 233t-71 327z" />
    <glyph glyph-name="Oslash" unicode="&#xd8;" horiz-adv-x="1342" 
d="M73 619q0 292 175 472.5t470 180.5q121 0 225 -45l41 77l152 8l-82 -150q115 -88 178.5 -231.5t63.5 -311.5q0 -130 -43.5 -246.5t-123.5 -205.5t-204.5 -141.5t-275.5 -52.5q-113 0 -212 40l-62 -115l-147 -9l99 184q-120 86 -187 229.5t-67 316.5zM484 152
q90 -73 214 -73q88 0 155.5 28.5t108 75t66.5 112.5t35.5 133t9.5 145q0 126 -30 245.5t-91 204.5zM427 210l470 877q-95 89 -227 89q-375 0 -375 -500q0 -137 33 -260t99 -206z" />
    <glyph glyph-name="Otilde" unicode="&#xd5;" horiz-adv-x="1342" 
d="M448 1383q1 6 4 15.5t13 34t22.5 43.5t34 34.5t46.5 15.5h13l224 -30h5q11 0 25.5 10t22.5 20l8 10l47 -1l-5 -15.5t-14.5 -34.5t-25 -44t-36.5 -34.5t-49 -15.5q-8 0 -12 1l-224 31h-1q-12 0 -27.5 -11.5t-24.5 -23.5l-9 -12zM283 676q0 -91 14 -175t45.5 -161.5
t77 -135t114 -91.5t152.5 -34q88 0 155.5 28.5t108.5 75t67 112.5t35.5 133t9.5 145q0 88 -14 172t-46 162.5t-77.5 138t-114.5 95t-152 35.5q-375 0 -375 -500zM61 619q0 292 175 472.5t470 180.5q132 0 242.5 -52.5t183 -142.5t112.5 -208t40 -250q0 -130 -43.5 -246.5
t-124 -205.5t-205 -141.5t-275.5 -52.5q-169 0 -301 86t-203 233t-71 327z" />
    <glyph glyph-name="P" unicode="P" horiz-adv-x="1009" 
d="M50 0l11 74l167 47v983l-171 30l10 77q299 44 476 44q502 0 502 -363q0 -87 -38 -162t-101.5 -126t-147 -80.5t-174.5 -29.5q-7 0 -100 3l-18 83l53 1q319 9 319 275q0 139 -77.5 227.5t-238.5 88.5l-102 -6v-1044l237 -39l-14 -83h-593z" />
    <glyph glyph-name="Q" unicode="Q" horiz-adv-x="1334" 
d="M263 679q0 -64 10 -128t31.5 -132.5t59.5 -128t89.5 -108.5t127.5 -79.5t168 -35.5q79 20 139 56t98.5 82t62.5 105t33.5 120t9.5 133q0 111 -30.5 218.5t-84 194t-135.5 139.5t-178 53q-189 0 -295 -128.5t-106 -360.5zM61 608q0 192 81.5 342.5t232.5 236t346 85.5
q174 0 307 -88t202 -233t69 -322q0 -148 -56 -278t-166.5 -225.5t-258.5 -131.5q24 -55 52.5 -93t77 -73.5t123 -60.5t179.5 -42q0 -49 -9 -76q-70 -34 -176 -34q-141 0 -245 99t-117 265q-20 -6 -65 -6q-169 0 -301.5 83t-204 227.5t-71.5 324.5z" />
    <glyph glyph-name="R" unicode="R" horiz-adv-x="1213" 
d="M420 628h198q84 28 142 94t58 165q0 126 -74 204t-204 78l-120 -5v-536zM50 0l11 74l167 47v979l-171 30l10 77q294 46 456 46q116 0 204.5 -16t157 -51.5t104.5 -96.5t36 -146q0 -102 -76 -199t-211 -145v-1l180 -249l65 -88.5t52 -65t54.5 -55.5t53.5 -34.5t68 -28.5
l33 -10l-15 -68q-57 -20 -120 -20q-111 0 -197.5 72.5t-158.5 201.5l-159 284h-174v-411l188 -43l-10 -83h-548z" />
    <glyph glyph-name="S" unicode="S" horiz-adv-x="863" 
d="M66 122l13 267l102 -14l39 -188q29 -46 84.5 -78t121.5 -32q57 0 108.5 20.5t90 70t38.5 119.5q0 52 -31.5 96.5t-82 77.5t-112 65t-122.5 68.5t-111.5 79t-82 105t-31.5 137.5q0 109 57 191t144 122t188 40q162 0 282 -100l-22 -282l-99 12l-25 191q-16 32 -65.5 63.5
t-104.5 31.5q-80 0 -131 -48t-51 -142q0 -58 32 -105.5t83.5 -82t114 -66.5t125 -68t114 -77.5t83.5 -103.5t32 -138q0 -111 -64 -199t-165 -133.5t-216 -45.5q-104 0 -194.5 41.5t-141.5 104.5z" />
    <glyph glyph-name="T" unicode="T" horiz-adv-x="1119" 
d="M23 1244h1111l-34 -338l-95 15l-38 231h-305v-1038l185 -34l-14 -80h-539l7 74l169 47v1031h-295l-53 -243l-91 13z" />
    <glyph glyph-name="Thorn" unicode="&#xde;" horiz-adv-x="1084" 
d="M50 1168l11 76h543l-10 -76l-171 -38v-110q12 0 56.5 2t67.5 2q501 0 501 -364q0 -116 -60.5 -208t-161.5 -142t-222 -50q-57 0 -117 6l-17 85q182 -10 276.5 59t94.5 214q0 136 -78 219t-234 83l-106 -7v-798l237 -38l-13 -84h-593l10 74l168 46v1007z" />
    <glyph glyph-name="U" unicode="U" horiz-adv-x="1369" 
d="M22 1168l13 76h542l-9 -76l-169 -38v-620q0 -206 93.5 -305.5t254.5 -99.5q156 0 240 93t85 284l3 644l-183 42l10 76h478l-11 -76l-166 -38l-5 -615q-2 -274 -123 -408t-378 -134q-77 0 -140.5 10.5t-131 43t-114 85.5t-76 144t-29.5 213v657z" />
    <glyph glyph-name="Uacute" unicode="&#xda;" horiz-adv-x="1401" 
d="M37 1168l13 76h542l-9 -76l-169 -38v-620q0 -206 93.5 -305.5t254.5 -99.5q156 0 240 93t85 284l3 644l-183 42l10 76h478l-11 -76l-166 -38l-5 -615q-2 -274 -123 -408t-378 -134q-77 0 -140.5 10.5t-131 43t-114 85.5t-76 144t-29.5 213v657zM684 1348l-51 32l123 325
l111 -39z" />
    <glyph glyph-name="Ucircumflex" unicode="&#xdb;" horiz-adv-x="1401" 
d="M537 1392l167 180l55 13l178 -185l-50 -36l-163 108h-11l-139 -111zM22 1168l13 76h542l-9 -76l-169 -38v-620q0 -206 93.5 -305.5t254.5 -99.5q156 0 240 93t85 284l3 644l-183 42l10 76h478l-11 -76l-166 -38l-5 -615q-2 -274 -123 -408t-378 -134q-77 0 -140.5 10.5
t-131 43t-114 85.5t-76 144t-29.5 213v657z" />
    <glyph glyph-name="Udieresis" unicode="&#xdc;" horiz-adv-x="1401" 
d="M782 1453q0 34 26 55.5t58 21.5q34 0 60.5 -22t26.5 -55q0 -35 -26 -57.5t-61 -22.5q-34 0 -59 22.5t-25 57.5zM515 1453q0 34 25.5 55.5t57.5 21.5q34 0 60 -22t26 -55q0 -35 -25.5 -57.5t-60.5 -22.5q-34 0 -58.5 22.5t-24.5 57.5zM22 1168l13 76h542l-9 -76l-169 -38
v-620q0 -206 93.5 -305.5t254.5 -99.5q156 0 240 93t85 284l3 644l-183 42l10 76h478l-11 -76l-166 -38l-5 -615q-2 -274 -123 -408t-378 -134q-77 0 -140.5 10.5t-131 43t-114 85.5t-76 144t-29.5 213v657z" />
    <glyph glyph-name="Ugrave" unicode="&#xd9;" horiz-adv-x="2048" 
d="M475 1659l115 38l132 -333l-56 -35zM37 1168l13 76h542l-9 -76l-169 -38v-620q0 -206 93.5 -305.5t254.5 -99.5q156 0 240 93t85 284l3 644l-183 42l10 76h478l-11 -76l-166 -38l-5 -615q-2 -274 -123 -408t-378 -134q-77 0 -140.5 10.5t-131 43t-114 85.5t-76 144
t-29.5 213v657z" />
    <glyph glyph-name="V" unicode="V" horiz-adv-x="1284" 
d="M-21 1168l10 76h538l-10 -76l-170 -38l313 -879l320 875l-182 42l7 76h455l-7 -76l-132 -38l-425 -1126l-152 -28l-418 1150z" />
    <glyph glyph-name="W" unicode="W" horiz-adv-x="1844" 
d="M-11 1168l9 76h514l-15 -76l-167 -38l242 -859l281 923l176 25l248 -932l261 839l-181 42l11 76h449l-11 -76l-123 -38l-365 -1126l-154 -28l-262 975l-285 -947l-163 -28l-325 1150z" />
    <glyph glyph-name="X" unicode="X" horiz-adv-x="1202" 
d="M-1 0l12 76l127 45l366 494l-339 508l-137 43l12 78h513l-10 -78l-157 -45l247 -371l271 376l-170 40l13 78h435l-8 -76l-127 -38l-338 -473l341 -543l135 -34l-13 -80h-503l13 74l160 47l-262 408l-292 -412l166 -34l-15 -83h-440z" />
    <glyph glyph-name="Y" unicode="Y" horiz-adv-x="1210" 
d="M-21 1168l13 76h508l-12 -76l-158 -38l277 -490l264 486l-183 42l10 76h445l-10 -76l-125 -38l-345 -601v-415l163 -34l-10 -80h-506l10 74l150 47v383l-353 622z" />
    <glyph glyph-name="Yacute" unicode="&#xdd;" horiz-adv-x="1123" 
d="M455 1380l123 325l111 -39l-183 -318zM-73 1168l13 76h508l-12 -76l-158 -38l277 -490l264 486l-183 42l10 76h445l-10 -76l-125 -38l-345 -601v-415l163 -34l-10 -80h-506l10 74l150 47v383l-353 622z" />
    <glyph glyph-name="Z" unicode="Z" horiz-adv-x="1009" 
d="M47 104l745 1045h-537l-77 -246l-90 18l10 323h928v-76l-764 -1068h570l123 251l93 -16l-57 -335h-936z" />
    <glyph glyph-name="a" unicode="a" horiz-adv-x="830" 
d="M222 215q0 -42 30.5 -79t81.5 -37q48 0 96 28t78 61v240q-156 -31 -221 -83.5t-65 -129.5zM47 168q0 57 27 108.5t80.5 96t144.5 74.5t209 38v55q0 54 -8.5 99t-28 84.5t-55 61.5t-85.5 22q-28 0 -46 -6t-29 -20t-17 -37.5t-10 -56.5t-8 -79q-1 -11 -1 -16q-21 0 -35.5 1
t-36 7t-34.5 16t-23 30.5t-10 48.5q0 52 57 100.5t136 76.5t149 28q132 0 189.5 -73.5t57.5 -233.5v-363q0 -70 21.5 -96.5t90.5 -37.5l50 -9l-13 -86q-8 -1 -54.5 -10t-81.5 -9q-79 0 -117 41t-38 93v15h-11q-12 -24 -32 -47.5t-52.5 -49.5t-82 -42t-107.5 -16
q-82 0 -139 52t-57 140z" />
    <glyph glyph-name="aacute" unicode="&#xe1;" horiz-adv-x="830" 
d="M328 1017l123 325l111 -40l-182 -317zM222 215q0 -42 30.5 -79t81.5 -37q48 0 96 28t78 61v240q-156 -31 -221 -83.5t-65 -129.5zM47 168q0 57 27 108.5t80.5 96t144.5 74.5t209 38v55q0 54 -8.5 98.5t-28 83.5t-55 60.5t-85.5 21.5q-32 0 -51.5 -11t-30.5 -40.5t-15 -52
t-10 -74.5q-3 -22 -4 -34q-21 0 -35.5 1t-36 7t-34.5 16t-23 30.5t-10 48.5q0 52 57 100.5t136 76.5t149 28q132 0 189.5 -73.5t57.5 -233.5v-363q0 -70 21.5 -96.5t90.5 -37.5l50 -9l-13 -86q-8 -1 -54.5 -10t-81.5 -9q-79 0 -117 41t-38 93v15h-11q-12 -24 -32 -47.5
t-52.5 -49.5t-82 -42t-107.5 -16q-82 0 -139 52t-57 140z" />
    <glyph glyph-name="acircumflex" unicode="&#xe2;" horiz-adv-x="830" 
d="M222 215q0 -42 30.5 -79t81.5 -37q48 0 96 28t78 61v240q-156 -31 -221 -83.5t-65 -129.5zM211 1024l169 179l54 14l177 -185l-49 -37l-163 109h-10l-140 -111zM47 168q0 57 27 108.5t80.5 96t144.5 74.5t209 38v55q0 54 -8.5 98.5t-28 83.5t-55 60.5t-85.5 21.5
q-32 0 -51.5 -11t-30.5 -40.5t-15 -52t-10 -74.5q-3 -22 -4 -34q-21 0 -35.5 1t-36 7t-34.5 16t-23 30.5t-10 48.5q0 52 57 100.5t136 76.5t149 28q132 0 189.5 -73.5t57.5 -233.5v-363q0 -70 21.5 -96.5t90.5 -37.5l50 -9l-13 -86q-8 -1 -54.5 -10t-81.5 -9q-79 0 -117 41
t-38 93v15h-11q-12 -24 -32 -47.5t-52.5 -49.5t-82 -42t-107.5 -16q-82 0 -139 52t-57 140z" />
    <glyph glyph-name="acute" unicode="&#xb4;" horiz-adv-x="520" 
d="M172 1380l123 325l111 -39l-183 -318z" />
    <glyph glyph-name="adieresis" unicode="&#xe4;" horiz-adv-x="830" 
d="M457 1084q0 34 25.5 56.5t57.5 22.5q34 0 61 -23t27 -56q0 -35 -26.5 -57.5t-61.5 -22.5q-34 0 -58.5 22.5t-24.5 57.5zM222 215q0 -42 30.5 -79t81.5 -37q48 0 96 28t78 61v240q-156 -31 -221 -83.5t-65 -129.5zM189 1084q0 34 26 56.5t58 22.5q34 0 60 -22.5t26 -56.5
q0 -35 -25.5 -57.5t-60.5 -22.5q-34 0 -59 22.5t-25 57.5zM47 168q0 57 27 108.5t80.5 96t144.5 74.5t209 38v55q0 54 -8.5 98.5t-28 83.5t-55 60.5t-85.5 21.5q-32 0 -51.5 -11t-30.5 -40.5t-15 -52t-10 -74.5q-3 -22 -4 -34q-21 0 -35.5 1t-36 7t-34.5 16t-23 30.5
t-10 48.5q0 52 57 100.5t136 76.5t149 28q132 0 189.5 -73.5t57.5 -233.5v-363q0 -70 21.5 -96.5t90.5 -37.5l50 -9l-13 -86q-8 -1 -54.5 -10t-81.5 -9q-79 0 -117 41t-38 93v15h-11q-12 -24 -32 -47.5t-52.5 -49.5t-82 -42t-107.5 -16q-82 0 -139 52t-57 140z" />
    <glyph glyph-name="ae" unicode="&#xe6;" horiz-adv-x="1238" 
d="M688 507l293 36q9 36 9 72q0 186 -134 186q-69 0 -115 -76.5t-53 -217.5zM570 175q-13 -30 -35 -60.5t-57.5 -63.5t-89.5 -54t-117 -21q-91 0 -153.5 52t-62.5 140q0 57 27.5 108.5t82.5 96t148 74.5t213 38v55q0 54 -9 99t-29.5 84.5t-58 61.5t-90.5 22q-28 0 -46 -6
t-29 -20t-17 -37.5t-10 -56.5t-8 -79q-1 -11 -1 -16q-21 0 -35.5 1t-36 7t-34.5 16t-23 30.5t-10 48.5q0 52 57 100.5t136 76.5t149 28q88 0 138 -30t72 -93q56 59 125.5 90.5t138.5 31.5q112 0 187 -83.5t75 -234.5q0 -59 -18 -136l-461 -19q2 -49 13 -96t32.5 -91.5
t51 -78t73 -54t94.5 -20.5q53 0 100 14t120 55l20 -51q-59 -63 -142.5 -98.5t-178.5 -35.5q-55 0 -116.5 21.5t-116 70t-68.5 113.5zM230 215q0 -42 30.5 -79t81.5 -37q50 0 101 27.5t83 61.5v240q-161 -31 -228.5 -83.5t-67.5 -129.5z" />
    <glyph glyph-name="agrave" unicode="&#xe0;" horiz-adv-x="864" 
d="M158 1291l115 38l132 -333l-56 -35zM203 215q0 -42 30.5 -79t81.5 -37q48 0 96 28t78 61v240q-156 -31 -221 -83.5t-65 -129.5zM28 168q0 57 27 108.5t80.5 96t144.5 74.5t209 38v55q0 54 -8.5 99t-28 84.5t-55 61.5t-85.5 22q-28 0 -46 -6t-29 -20t-17 -37.5t-10 -56.5
t-8 -79q-1 -11 -1 -16q-21 0 -35.5 1t-36 7t-34.5 16t-23 30.5t-10 48.5q0 52 57 100.5t136 76.5t149 28q132 0 189.5 -73.5t57.5 -233.5v-363q0 -70 21.5 -96.5t90.5 -37.5l50 -9l-13 -86q-8 -1 -54.5 -10t-81.5 -9q-79 0 -117 41t-38 93v15h-11q-12 -24 -32 -47.5
t-52.5 -49.5t-82 -42t-107.5 -16q-82 0 -139 52t-57 140z" />
    <glyph glyph-name="ampersand" unicode="&#x26;" horiz-adv-x="1281" 
d="M345 1024q0 -68 43 -138.5t100 -122.5q72 47 105 94t33 131q0 90 -36.5 145t-115.5 55q-61 0 -95 -47t-34 -117zM732 225l-360 394l-17 3q-74 -52 -104.5 -111.5t-30.5 -149.5q0 -101 69 -170.5t173 -69.5q160 0 270 104zM838 373q64 128 91 312l-152 26l7 76h441l-7 -76
l-172 -44q-41 -216 -132 -370q193 -187 288 -218l33 -9l-15 -70q-54 -19 -120 -19q-72 0 -156 53.5t-142 115.5q-172 -172 -426 -172q-162 0 -257.5 87.5t-95.5 234.5q0 116 72 214.5t214 166.5q-65 78 -97 141t-32 145q0 117 97 210.5t217 93.5q134 0 211.5 -66t77.5 -179
q0 -191 -237 -320v-11q159 -186 292 -322z" />
    <glyph glyph-name="aring" unicode="&#xe5;" horiz-adv-x="830" 
d="M298 1178q0 -50 25.5 -89t70.5 -39q41 0 63.5 30t22.5 84q0 50 -26 88.5t-70 38.5q-42 0 -64 -33.5t-22 -79.5zM228 1167q0 69 49.5 120t118.5 51q71 0 113 -45t42 -116q0 -70 -47 -122.5t-121 -52.5q-70 0 -112.5 44.5t-42.5 120.5zM222 215q0 -42 30.5 -79t81.5 -37
q48 0 96 28t78 61v240q-156 -31 -221 -83.5t-65 -129.5zM47 168q0 57 27 108.5t80.5 96t144.5 74.5t209 38v55q0 54 -8.5 98.5t-28 83.5t-55 60.5t-85.5 21.5q-32 0 -51.5 -11t-30.5 -40.5t-15 -52t-10 -74.5q-3 -22 -4 -34q-21 0 -35.5 1t-36 7t-34.5 16t-23 30.5t-10 48.5
q0 52 57 100.5t136 76.5t149 28q132 0 189.5 -73.5t57.5 -233.5v-363q0 -70 21.5 -96.5t90.5 -37.5l50 -9l-13 -86q-8 -1 -54.5 -10t-81.5 -9q-79 0 -117 41t-38 93v15h-11q-12 -24 -32 -47.5t-52.5 -49.5t-82 -42t-107.5 -16q-82 0 -139 52t-57 140z" />
    <glyph glyph-name="asciicircum" unicode="^" horiz-adv-x="720" 
d="M42 826l289 411l55 13l295 -426l-57 -37l-271 286h-10l-251 -280z" />
    <glyph glyph-name="asciitilde" unicode="~" horiz-adv-x="947" 
d="M83 412q2 9 7 23t22.5 50t37.5 62.5t53.5 47t70.5 16.5l450 -45q16 -1 37 14.5t33 31.5l12 16l64 -2l-8 -23.5t-23 -51t-38.5 -63.5t-55.5 -47.5t-73 -16.5l-450 45q-18 2 -39 -15.5t-33 -35.5l-12 -19z" />
    <glyph glyph-name="asterisk" unicode="*" horiz-adv-x="808" 
d="M328 1292l136 -13l-26 -291l289 131l29 -130l-285 -68l219 -229l-118 -69l-153 247l-155 -277l-102 92l193 219l-312 60l55 127l267 -114z" />
    <glyph glyph-name="at" unicode="@" horiz-adv-x="1367" 
d="M516 368q0 -106 22 -146.5t63 -40.5q76 0 138 73l53 438q-52 11 -88 11q-55 0 -99.5 -52t-66.5 -128t-22 -155zM54 325q0 198 92.5 362t261 260.5t379.5 96.5q140 0 258 -55.5t189.5 -161t71.5 -238.5q0 -135 -60.5 -253.5t-170.5 -192t-243 -73.5q-49 0 -72.5 31.5
t-21.5 85.5h-10q-35 -52 -85 -90t-102 -38q-81 0 -131 71t-50 196q0 102 38.5 191.5t98 147.5t128.5 91t133 33q96 0 166 -16l19 -22l-41 -366q-1 -14 -4.5 -38.5t-5.5 -42t-4 -40t-1.5 -38t2.5 -30t8.5 -21.5t16.5 -7q111 0 185 112.5t74 268.5q0 190 -119.5 298
t-302.5 108q-120 0 -223 -50t-172 -134t-108 -193t-39 -227q0 -224 137 -355t381 -131q101 0 204.5 39t147.5 77l36 -64q-4 -2 -46 -28t-57.5 -34.5t-59.5 -29t-76.5 -29t-82.5 -16.5t-102 -8q-95 0 -183.5 18.5t-172 61t-145 105t-99 157.5t-37.5 211z" />
    <glyph glyph-name="atilde" unicode="&#xe3;" horiz-adv-x="830" 
d="M222 215q0 -42 30.5 -79t81.5 -37q48 0 96 28t78 61v240q-156 -31 -221 -83.5t-65 -129.5zM175 1015q1 6 4 15.5t13 34t22.5 43.5t34.5 34.5t47 15.5q9 0 13 -1l223 -30h5q11 0 25 10.5t22 20.5l8 11l48 -2l-5 -15.5t-14.5 -34.5t-25 -44t-36.5 -34.5t-49 -15.5
q-9 0 -13 1l-222 30h-4q-12 0 -27.5 -12t-23.5 -24l-8 -11zM47 168q0 57 27 108.5t80.5 96t144.5 74.5t209 38v55q0 54 -8.5 98.5t-28 83.5t-55 60.5t-85.5 21.5q-32 0 -51.5 -11t-30.5 -40.5t-15 -52t-10 -74.5q-3 -22 -4 -34q-21 0 -35.5 1t-36 7t-34.5 16t-23 30.5
t-10 48.5q0 52 57 100.5t136 76.5t149 28q132 0 189.5 -73.5t57.5 -233.5v-363q0 -70 21.5 -96.5t90.5 -37.5l50 -9l-13 -86q-8 -1 -54.5 -10t-81.5 -9q-79 0 -117 41t-38 93v15h-11q-12 -24 -32 -47.5t-52.5 -49.5t-82 -42t-107.5 -16q-82 0 -139 52t-57 140z" />
    <glyph glyph-name="b" unicode="b" horiz-adv-x="955" 
d="M299 155q30 -30 88 -49t123 -19q92 0 153.5 81.5t61.5 239.5q0 48 -5.5 94.5t-20 96t-37.5 86t-61.5 60t-87.5 23.5q-123 0 -214 -96v-517zM-15 1191l13 76l277 21l24 -23v-416l-14 -105h11q138 155 285 155q145 0 234 -118.5t89 -308.5q0 -153 -69.5 -267.5t-180.5 -171
t-243 -56.5q-160 0 -275 72v1089z" />
    <glyph glyph-name="backslash" unicode="\" horiz-adv-x="677" 
d="M37 1274l134 -8l461 -1642l-128 8z" />
    <glyph glyph-name="bar" unicode="|" horiz-adv-x="331" 
d="M109 -366v1626l115 -12v-1628z" />
    <glyph glyph-name="braceleft" unicode="{" horiz-adv-x="551" 
d="M4 389v99l49 9q59 10 90.5 57.5t40 115t9.5 146.5t7 156.5t24 141t68.5 102.5t133.5 39h101l-9 -100l-82 -6q-46 -4 -59 -59.5t-13 -168.5v-59q0 -65 -2 -107.5t-11.5 -100t-26.5 -94.5t-50 -69.5t-80 -45.5v-7q60 -17 97.5 -65.5t51.5 -111t18.5 -134.5t4 -141t4 -126
t23.5 -93t56 -38l74 -6l8 -101h-102q-84 0 -135.5 39.5t-70 103t-24.5 141.5t-7 157.5t-8.5 147t-38.5 114.5t-89 56z" />
    <glyph glyph-name="braceright" unicode="}" horiz-adv-x="553" 
d="M22 -378l9 101l74 6q37 2 56 38t23.5 93t4 126t4 141t18.5 134.5t51.5 111t97.5 65.5v7q-60 14 -97.5 60t-50.5 108t-17 133.5t-3 141t-2 127t-20.5 94.5t-52.5 40l-82 6l-7 100h101q65 0 110.5 -24.5t68 -65.5t34.5 -95t14.5 -114.5t3 -121.5t5.5 -118t17.5 -103t42 -77
t75.5 -39l49 -9v-99l-52 -8q-58 -9 -88.5 -56t-38.5 -114.5t-8.5 -147t-6 -157.5t-24 -141.5t-70 -103t-135.5 -39.5h-104z" />
    <glyph glyph-name="bracketleft" unicode="[" horiz-adv-x="474" 
d="M109 -376v1631h354l11 -89l-214 -20v-1406l216 -19l-10 -96z" />
    <glyph glyph-name="bracketright" unicode="]" horiz-adv-x="474" 
d="M0 -279l217 19v1406l-216 20l12 89h353l2 -1631l-358 1z" />
    <glyph glyph-name="brokenbar" unicode="&#xa6;" horiz-adv-x="335" 
d="M109 540v720l118 -12l-2 -719zM109 -366v789l119 -12v-791z" />
    <glyph glyph-name="c" unicode="c" horiz-adv-x="778" 
d="M50 415q0 108 36 200.5t95.5 154t135.5 96t158 34.5q118 0 179.5 -44.5t61.5 -108.5q0 -45 -33 -73t-94 -32q-13 32 -25.5 55t-32.5 51t-46 43t-57 15q-89 0 -143 -81.5t-54 -217.5q0 -66 18 -136t52 -134.5t93.5 -105.5t133.5 -41q67 0 112 16t90 45l25 -58
q-42 -50 -129.5 -86.5t-180.5 -36.5q-175 0 -285 130t-110 315z" />
    <glyph glyph-name="ccedilla" unicode="&#xe7;" horiz-adv-x="802" 
d="M54 415q0 108 35.5 200.5t94.5 154t135 96t158 34.5q118 0 180 -44.5t62 -108.5q0 -45 -33 -73t-94 -32q-13 32 -25.5 55t-32.5 51t-46.5 43t-57.5 15q-89 0 -143 -81.5t-54 -217.5q0 -66 18 -136t52 -134.5t93.5 -105.5t133.5 -41q67 0 112 16t90 45l26 -58
q-36 -44 -108.5 -78.5t-154.5 -42.5l-34 -48q89 -79 89 -151q0 -104 -199 -162l-20 58q41 14 63.5 36.5t22.5 46.5q0 41 -73 110l75 110q-164 11 -264.5 138.5t-100.5 304.5z" />
    <glyph glyph-name="cedilla" unicode="&#xb8;" horiz-adv-x="341" 
d="M62 -331q41 14 63.5 36.5t22.5 46.5q0 40 -74 110l98 141h74l-53 -79q89 -79 89 -151q0 -103 -201 -162z" />
    <glyph glyph-name="cent" unicode="&#xa2;" horiz-adv-x="808" 
d="M347 1154l146 17l-21 -231q115 -1 175 -45.5t60 -107.5q0 -45 -32.5 -72.5t-93.5 -31.5q-13 31 -25.5 54.5t-32.5 51t-46.5 42.5t-57.5 15q-87 0 -142 -99.5t-55 -239.5q0 -66 18 -136t52 -134.5t93.5 -105.5t133.5 -41q67 0 112 16t90 45l25 -58q-37 -45 -112 -79.5
t-158 -41.5l29 -222l-148 -16l23 240q-102 14 -179.5 77.5t-118.5 158t-41 205.5q0 93 27 179.5t72.5 152.5t106 113t128.5 67z" />
    <glyph glyph-name="circumflex" unicode="&#x2c6;" horiz-adv-x="584" 
d="M90 1387l168 179l55 15l178 -186l-49 -37l-163 110h-11l-139 -111z" />
    <glyph glyph-name="colon" unicode=":" horiz-adv-x="422" 
d="M99 747q0 45 33.5 75.5t79.5 30.5t79.5 -32t33.5 -77q0 -48 -33.5 -81.5t-79.5 -33.5t-79.5 35t-33.5 83zM99 119q0 44 33.5 74.5t79.5 30.5t79.5 -31.5t33.5 -75.5q0 -48 -33.5 -82t-79.5 -34t-79.5 35t-33.5 83z" />
    <glyph glyph-name="comma" unicode="," horiz-adv-x="434" 
d="M54 -244q92 24 137 72.5t45 101.5q0 43 -32.5 74.5t-83.5 31.5q-10 0 -30 -2q-14 37 -14 63q0 55 39.5 88t82.5 33q28 0 57 -12t56 -35t44 -65t17 -96q0 -244 -295 -323z" />
    <glyph glyph-name="copyright" unicode="&#xa9;" horiz-adv-x="1377" 
d="M176 657q0 -246 142.5 -405.5t364.5 -159.5q107 0 203 41.5t166 113.5t111.5 174.5t41.5 217.5q0 164 -59.5 293.5t-179 207t-282.5 77.5q-141 0 -258.5 -76.5t-183.5 -205t-66 -278.5zM53 645q0 186 87 342t232 244.5t312 88.5q193 0 340.5 -87.5t225 -239.5t77.5 -344
q0 -132 -51 -254t-137.5 -212t-208 -144t-255.5 -54q-180 0 -322.5 86.5t-221 237t-78.5 336.5zM344 644q0 92 30.5 170.5t81 130.5t115.5 81.5t135 29.5q100 0 152.5 -37.5t52.5 -92.5q0 -38 -28 -62t-80 -27q-11 27 -21.5 46.5t-27.5 43.5t-39.5 36.5t-48.5 12.5
q-76 0 -122 -69.5t-46 -184.5q0 -44 9 -91.5t29.5 -94.5t49 -84.5t71.5 -60.5t94 -23q57 0 95 13.5t76 37.5l22 -49q-35 -43 -109.5 -73.5t-154.5 -30.5q-99 0 -176.5 52t-118.5 138t-41 188z" />
    <glyph glyph-name="currency" unicode="&#xa4;" horiz-adv-x="763" 
d="M225 494q0 -81 43.5 -131t112.5 -50q72 0 116 48t44 126q0 83 -44 133t-117 50q-69 0 -112 -48.5t-43 -127.5zM37 746l83 81l110 -118q32 27 74.5 43t79.5 16q90 0 157 -50l111 112l73 -88l-114 -106q36 -63 36 -145q0 -90 -43 -149l124 -119l-84 -80l-113 121
q-77 -47 -155 -47q-67 0 -134 40l-109 -121l-83 85l115 111q-45 67 -45 156q0 79 39 140z" />
    <glyph glyph-name="d" unicode="d" horiz-adv-x="987" 
d="M230 462q0 -172 61.5 -264.5t159.5 -92.5q58 0 117.5 29t88.5 63v469q-38 62 -99.5 99t-114.5 37q-111 0 -162 -92.5t-51 -247.5zM54 399q0 105 39.5 200.5t102 160t140.5 102.5t155 38q49 0 98 -13t74 -31h7l-12 128v157l-152 55l14 75l278 24l21 -24v-1056
q0 -37 5.5 -59.5t24 -36t29 -17.5t43.5 -11q5 -1 7 -2l45 -10l-11 -83q-75 -19 -147 -19t-110.5 41t-38.5 106v7h-9q-111 -152 -277 -152q-140 0 -233 111t-93 309z" />
    <glyph glyph-name="dagger" unicode="&#x2020;" horiz-adv-x="797" 
d="M37 712l8 115l297 -8l-8 436l133 -11l-9 -425l306 8l-8 -122l-298 11l15 -1079l-145 12l14 1069z" />
    <glyph glyph-name="daggerdbl" unicode="&#x2021;" horiz-adv-x="829" 
d="M52 712l7 115l295 -8l-7 436l133 -11l-10 -425l304 8l-6 -122l-298 11l-9 -287l3 -255l313 7l-6 -117l-307 9l9 -436l-133 11l10 425l-288 -9l8 123l280 -12l7 323l-3 220z" />
    <glyph glyph-name="degree" unicode="&#xb0;" horiz-adv-x="424" 
d="M123 1129q0 -51 25.5 -92.5t70.5 -41.5q85 0 85 110q0 51 -25.5 91.5t-69.5 40.5q-42 0 -64 -31.5t-22 -76.5zM32 1107q0 79 56.5 138t136.5 59q85 0 128 -46t43 -130q0 -85 -57 -142.5t-138 -57.5q-78 0 -123.5 46.5t-45.5 132.5z" />
    <glyph glyph-name="dieresis" unicode="&#xa8;" horiz-adv-x="623" 
d="M360 1465q0 33 26.5 55t58.5 22q34 0 60.5 -22t26.5 -55q0 -35 -26.5 -58.5t-60.5 -23.5t-59.5 23.5t-25.5 58.5zM92 1465q0 33 26.5 55t58.5 22q34 0 60 -22t26 -55q0 -36 -26 -59t-60 -23t-59.5 23.5t-25.5 58.5z" />
    <glyph glyph-name="divide" unicode="&#xf7;" horiz-adv-x="932" 
d="M341 790q0 47 35 80t84 33q50 0 85.5 -33t35.5 -81q0 -50 -36 -86.5t-85 -36.5t-84 36.5t-35 87.5zM341 228q0 47 35 80t84 33q50 0 85.5 -33t35.5 -81q0 -50 -36 -86.5t-85 -36.5t-84 36.5t-35 87.5zM55 454l12 106h812l-11 -106h-813z" />
    <glyph glyph-name="dollar" unicode="$" horiz-adv-x="859" 
d="M66 122l13 267l102 -14l39 -188q28 -44 80.5 -75.5t115.5 -34.5v461l-52.5 28.5t-50.5 29t-51 32.5l-45.5 34.5t-42.5 40t-33.5 43.5t-28 50t-16 56t-6.5 64q0 69 23.5 128.5t64 102t93 71t112.5 41.5l-13 135l165 15l-14 -142q137 -12 240 -98l-22 -282l-99 12l-25 191
q-13 25 -50 53t-82 38v-435q14 -7 43 -23l52.5 -27.5l49.5 -28t50 -31.5l45 -34t42 -38.5t33 -42.5t27 -49.5t15.5 -54.5t6.5 -63q0 -135 -90 -231.5t-228 -131.5l11 -155l-173 -15l10 156q-96 5 -180 45.5t-131 99.5zM421 781v403q-71 -7 -114.5 -55t-43.5 -134
q0 -68 41 -118t117 -96zM486 500v-416q75 16 126 67.5t51 135.5q0 66 -45.5 115t-131.5 98z" />
    <glyph glyph-name="dotaccent" unicode="&#x2d9;" horiz-adv-x="425" 
d="M92 1479q0 47 36 80.5t83 33.5q50 0 86.5 -33.5t36.5 -81.5q0 -50 -36.5 -86.5t-86.5 -36.5q-49 0 -84 36.5t-35 87.5z" />
    <glyph glyph-name="e" unicode="e" horiz-adv-x="802" 
d="M233 523l314 23q6 24 6 69q0 186 -138 186q-67 0 -121 -71.5t-61 -206.5zM53 428q0 108 37 199.5t96 149.5t131.5 90t146.5 32q115 0 191 -83t76 -235q0 -62 -16 -130l-484 -6q2 -49 13.5 -96t34.5 -92.5t54 -79.5t77 -54.5t100 -20.5q48 0 71 1.5t65 14.5t91 39l21 -53
q-60 -63 -145.5 -98.5t-183.5 -35.5q-72 0 -138.5 29.5t-120 85t-85.5 144.5t-32 199z" />
    <glyph glyph-name="eacute" unicode="&#xe9;" horiz-adv-x="802" 
d="M363 1002l123 325l111 -39l-183 -318zM225 523l314 23q6 24 6 69q0 186 -138 186q-67 0 -121 -71.5t-61 -206.5zM45 428q0 108 37 199.5t96 149.5t131.5 90t146.5 32q115 0 191 -83t76 -235q0 -62 -16 -130l-484 -6q2 -49 13.5 -96t34.5 -92.5t54 -79.5t77 -54.5
t100 -20.5q48 0 71 1.5t65 14.5t91 39l21 -53q-60 -63 -145.5 -98.5t-183.5 -35.5q-72 0 -138.5 29.5t-120 85t-85.5 144.5t-32 199z" />
    <glyph glyph-name="ecircumflex" unicode="&#xea;" horiz-adv-x="802" 
d="M233 1024l169 179l55 14l176 -185l-48 -37l-164 109h-10l-140 -111zM233 523l314 23q6 24 6 69q0 186 -138 186q-67 0 -121 -71.5t-61 -206.5zM53 428q0 108 37 199.5t96 149.5t131.5 90t146.5 32q115 0 191 -83t76 -235q0 -62 -16 -130l-484 -6q2 -49 13.5 -96
t34.5 -92.5t54 -79.5t77 -54.5t100 -20.5h6q42 0 66.5 2t66 15t88.5 38l21 -53q-60 -63 -145.5 -98.5t-183.5 -35.5q-72 0 -138.5 29.5t-120 85t-85.5 144.5t-32 199z" />
    <glyph glyph-name="edieresis" unicode="&#xeb;" horiz-adv-x="802" 
d="M479 1084q0 34 25.5 56.5t57.5 22.5q34 0 61 -23t27 -56q0 -35 -26.5 -57.5t-61.5 -22.5q-34 0 -58.5 22.5t-24.5 57.5zM233 523l314 23q6 24 6 69q0 186 -138 186q-67 0 -121 -71.5t-61 -206.5zM211 1084q0 34 26 56.5t58 22.5q34 0 60 -22.5t26 -56.5
q0 -35 -25.5 -57.5t-60.5 -22.5q-34 0 -59 22.5t-25 57.5zM53 428q0 108 37 199.5t96 149.5t131.5 90t146.5 32q115 0 191 -83t76 -235q0 -62 -16 -130l-484 -6q2 -49 13.5 -96t34.5 -92.5t54 -79.5t77 -54.5t100 -20.5h6q42 0 66.5 2t66 15t88.5 38l21 -53
q-60 -63 -145.5 -98.5t-183.5 -35.5q-72 0 -138.5 29.5t-120 85t-85.5 144.5t-32 199z" />
    <glyph glyph-name="egrave" unicode="&#xe8;" horiz-adv-x="802" 
d="M205 1291l115 38l132 -333l-56 -35zM225 523l314 23q6 24 6 69q0 186 -138 186q-67 0 -121 -71.5t-61 -206.5zM45 428q0 108 37 199.5t96 149.5t131.5 90t146.5 32q115 0 191 -83t76 -235q0 -62 -16 -130l-484 -6q2 -49 13.5 -96t34.5 -92.5t54 -79.5t77 -54.5t100 -20.5
q48 0 71 1.5t65 14.5t91 39l21 -53q-60 -63 -145.5 -98.5t-183.5 -35.5q-72 0 -138.5 29.5t-120 85t-85.5 144.5t-32 199z" />
    <glyph glyph-name="eight" unicode="8" 
d="M336 955q0 -67 59.5 -137.5t166.5 -131.5q103 58 103 204q0 104 -49.5 169t-124.5 65q-77 0 -116 -50.5t-39 -118.5zM299 307q0 -116 67.5 -181t159.5 -65q72 0 124.5 46.5t52.5 115.5q0 31 -10 61t-31.5 58t-40.5 49.5t-53 47l-52 38.5t-54 36t-43 28q-35 -9 -77.5 -75
t-42.5 -159zM110 283q0 85 67 167t175 133v9q-84 56 -133 123t-49 164q0 128 102.5 225t243.5 97q149 0 232 -78t83 -197q0 -83 -52.5 -160.5t-146.5 -118.5l-3 -10l38 -28t70 -54t48.5 -43.5t38 -44t32 -50t18 -53.5t7.5 -62q0 -145 -109.5 -237t-310.5 -92q-147 0 -249 85
t-102 225z" />
    <glyph glyph-name="eight.osf" horiz-adv-x="804" 
d="M249 977q0 -83 56.5 -162.5t160.5 -138.5q26 28 41.5 51.5t30 71t14.5 107.5q0 87 -43.5 152.5t-118.5 65.5q-59 0 -100 -43.5t-41 -103.5zM220 304q0 -92 54.5 -165t131.5 -73q87 0 137.5 51t50.5 149q0 74 -68.5 142t-195.5 147q-43 -32 -76.5 -104t-33.5 -147zM55 280
q0 174 216 309v9q-65 39 -118 118t-53 171q0 127 93.5 220.5t223.5 93.5q128 0 205.5 -72t77.5 -186q0 -175 -166 -298v-9q218 -136 218 -328q0 -140 -111 -237.5t-281 -97.5q-139 0 -222 82.5t-83 224.5z" />
    <glyph glyph-name="emdash" unicode="&#x2014;" horiz-adv-x="1306" 
d="M87 409l15 104l1121 7l-16 -105z" />
    <glyph glyph-name="endash" unicode="&#x2013;" horiz-adv-x="795" 
d="M87 409l15 104l611 7l-16 -105z" />
    <glyph glyph-name="equal" unicode="=" horiz-adv-x="809" 
d="M95 559l10 104h616l-12 -104h-614zM92 319l10 105h615l-11 -105h-614z" />
    <glyph glyph-name="eth" unicode="&#xf0;" horiz-adv-x="912" 
d="M231 498q2 -200 68 -314t171 -114q110 0 154.5 90t44.5 264q0 171 -74 300.5t-163 131.5q-201 0 -201 -358zM53 451q0 217 114.5 357t277.5 140q43 0 90 -20.5t67 -70.5l6 2q-20 68 -111 212l-215 -40l10 75l169 33q-68 98 -140 163h117q67 -38 151 -131l151 30l-10 -77
l-88 -18q200 -265 200 -641q0 -224 -113.5 -358t-280.5 -134q-100 0 -178 40t-124 108.5t-69.5 152t-23.5 177.5z" />
    <glyph glyph-name="exclam" unicode="!" horiz-adv-x="412" 
d="M109 1245q0 25 43 36t88 11q64 0 64 -39q0 -167 -55 -896l-87 19q-5 107 -29 439t-24 430zM83 92q0 50 36.5 84t86.5 34q51 0 88 -35t37 -85q0 -53 -36.5 -89.5t-88.5 -36.5t-87.5 37.5t-35.5 90.5z" />
    <glyph glyph-name="exclamdown" unicode="&#xa1;" horiz-adv-x="387" 
d="M70 784q0 52 37 89t89 37t88 -37t36 -90q0 -49 -37 -83t-87 -34q-51 0 -88.5 34t-37.5 84zM97 -378q0 268 54 912v6l89 -20v-3q54 -725 54 -892v-3q-5 -19 -50.5 -29.5t-81.5 -10.5q-25 0 -45 9.5t-20 30.5z" />
    <glyph glyph-name="f" unicode="f" horiz-adv-x="694" 
d="M35 0l12 73l152 43v668h-149l12 73l138 22q12 110 52 200t95 144t114 82.5t114 28.5q84 0 135.5 -29t51.5 -86q0 -34 -30 -67.5t-59 -44.5q-38 47 -86 84t-90 37q-61 0 -93.5 -54.5t-35.5 -192.5l-2 -108h257l-12 -89h-245v-663l245 -38l-7 -83h-569z" />
    <glyph glyph-name="five" unicode="5" 
d="M127 74l36 313l85 -19l11 -213q60 -88 201 -88q95 0 152 59.5t57 158.5q0 132 -118 217t-338 100l119 567l469 29l-26 -182l-387 -16l-36 -238q241 -22 367 -134.5t126 -278.5q0 -150 -124.5 -262t-304.5 -112q-190 0 -289 99z" />
    <glyph glyph-name="five.osf" horiz-adv-x="700" 
d="M-66 -159q0 54 27.5 89.5t72.5 43.5q14 -30 34 -58.5t47.5 -57.5t64 -46.5t75.5 -17.5q102 0 163 72t61 214q0 300 -403 346l103 508l444 40l-25 -163l-358 -23l-31 -218q225 -22 339.5 -134.5t114.5 -290.5q0 -103 -59 -204.5t-167.5 -169.5t-234.5 -68
q-130 0 -199 43.5t-69 94.5z" />
    <glyph glyph-name="four" unicode="4" 
d="M200 449h329v463zM15 401l642 793l65 -18q-10 -198 -10 -493v-234h255l-16 -133h-239v-301l-180 -31v335h-494z" />
    <glyph glyph-name="four.osf" horiz-adv-x="940" 
d="M169 211h330v465zM-9 164l627 822l65 -18q-10 -198 -10 -536v-221h254l-17 -125h-235v-353l-175 -37v393h-486z" />
    <glyph glyph-name="g" unicode="g" horiz-adv-x="890" 
d="M252 608q0 -98 52.5 -163t112.5 -65q147 0 147 200q0 90 -44.5 166.5t-117.5 76.5q-75 0 -112.5 -57t-37.5 -158zM200 -108q0 -171 240 -171q107 0 171.5 43t64.5 136q0 64 -53.5 83.5t-196.5 19.5h-174q-2 -1 -5.5 -2.5t-12.5 -10t-16 -19.5t-12.5 -32t-5.5 -47z
M24 -162q0 32 16 61t48 54.5t48 36t48 28.5v9q-46 22 -71 58t-25 79q0 39 54 89.5t113 74.5v7q-47 12 -105 87.5t-58 166.5q0 122 103 214.5t231 92.5q122 0 210 -63l215 16l20 -23l-39 -111h-16l-123 40v-17q34 -73 34 -139q0 -87 -53.5 -157.5t-130 -105.5t-154.5 -35
q-53 0 -90 10q-50 -52 -50 -88q0 -35 37.5 -53.5t145.5 -18.5h136q62 0 106.5 -7.5t86 -27.5t63 -61.5t21.5 -104.5q0 -85 -67 -163.5t-173.5 -125.5t-218.5 -47q-73 0 -134.5 11t-114.5 36t-83 70t-30 107z" />
    <glyph glyph-name="germandbls" unicode="&#xdf;" horiz-adv-x="1116" 
d="M34 0l12 73l152 43v668h-145l9 65l138 23q20 199 141.5 316t280.5 117q129 0 201.5 -66.5t72.5 -166.5q0 -50 -25 -97t-61 -83.5l-72 -71.5t-61 -75.5t-25 -81.5q0 -34 24 -64t62 -54.5t84.5 -49t93 -52t84.5 -59t62 -75.5t24 -96q0 -103 -96 -173.5t-219 -70.5
q-130 0 -211.5 51.5t-81.5 121.5q0 62 36.5 96t94.5 37q22 -95 77.5 -151.5t115.5 -56.5q64 0 101.5 19t37.5 71q0 32 -31 62t-77.5 54t-100.5 56t-100.5 65.5t-77.5 86t-31 114.5q0 50 21.5 96.5t52.5 84.5l61.5 75t52 81.5t21.5 90.5q0 70 -57.5 122.5t-135.5 52.5
q-84 0 -129 -53t-45 -186v-959h-331z" />
    <glyph glyph-name="grave" unicode="`" horiz-adv-x="535" 
d="M122 1659l115 38l132 -333l-56 -35z" />
    <glyph glyph-name="greater" unicode="&#x3e;" horiz-adv-x="727" 
d="M59 -13l460 447l-440 466l56 73l620 -501l1 -57l-634 -498z" />
    <glyph glyph-name="guillemotleft" unicode="&#xab;" horiz-adv-x="643" 
d="M270 469l268 351l45 -59l-165 -300l168 -320l-52 -64l-263 372zM23 469l269 351l43 -59l-164 -300l167 -320l-52 -64l-262 372z" />
    <glyph glyph-name="guillemotright" unicode="&#xbb;" horiz-adv-x="645" 
d="M308 141l168 320l-165 300l44 59l268 -351l-2 -20l-261 -372zM61 141l167 320l-164 300l44 59l268 -351l-2 -20l-261 -372z" />
    <glyph glyph-name="guilsinglleft" unicode="&#x2039;" horiz-adv-x="396" 
d="M23 469l269 351l43 -59l-164 -300l167 -320l-52 -64l-262 372z" />
    <glyph glyph-name="guilsinglright" unicode="&#x203a;" horiz-adv-x="397" 
d="M61 141l167 320l-164 300l44 59l268 -351l-2 -20l-261 -372z" />
    <glyph glyph-name="h" unicode="h" horiz-adv-x="1029" 
d="M10 0l11 79l154 37v1031l-160 54l12 76l289 22l25 -24v-425l-16 -106h10q141 156 294 156q55 0 96.5 -13.5t76 -45.5t52.5 -93t18 -149v-485l145 -35l-12 -79h-449l12 74l138 40v466q0 97 -51 140.5t-121 43.5q-108 0 -193 -89v-559l146 -36l-12 -80h-465z" />
    <glyph glyph-name="hyphen" unicode="-" horiz-adv-x="581" 
d="M81 398l11 100l408 19l-11 -102z" />
    <glyph glyph-name="i" unicode="i" horiz-adv-x="539" 
d="M156 1194q0 47 35.5 79.5t83.5 32.5q50 0 86 -33t36 -81q0 -50 -36 -86t-86 -36q-49 0 -84 36.5t-35 87.5zM37 0l12 79l151 37v615l-151 55l13 76l281 23l25 -25v-744l160 -36l-11 -80h-480z" />
    <glyph glyph-name="iacute" unicode="&#xed;" horiz-adv-x="539" 
d="M213 991l121 326l113 -40l-184 -317zM37 0l12 79l151 37v615l-151 55l13 76l281 23l25 -25v-744l160 -36l-11 -80h-480z" />
    <glyph glyph-name="icircumflex" unicode="&#xee;" horiz-adv-x="539" 
d="M76 1048l167 180l55 13l178 -184l-49 -38l-164 111h-10l-140 -111zM37 0l12 79l151 37v615l-151 55l13 76l281 23l25 -25v-744l160 -36l-11 -80h-480z" />
    <glyph glyph-name="idieresis" unicode="&#xef;" horiz-adv-x="539" 
d="M321 1109q0 33 26.5 55t58.5 22q35 0 61.5 -22t26.5 -55q0 -35 -26.5 -58t-61.5 -23q-34 0 -59.5 23t-25.5 58zM54 1109q0 34 26 55.5t58 21.5q34 0 59.5 -22t25.5 -55q0 -36 -25.5 -58.5t-59.5 -22.5t-59 23t-25 58zM37 0l12 79l151 37v615l-151 55l13 76l281 23l25 -25
v-744l160 -36l-11 -80h-480z" />
    <glyph glyph-name="igrave" unicode="&#xec;" horiz-adv-x="539" 
d="M25 0l12 79l151 37v615l-151 55l13 76l281 23l25 -25v-744l160 -36l-11 -80h-480zM47 1291l115 38l132 -333l-56 -35z" />
    <glyph glyph-name="j" unicode="j" horiz-adv-x="463" 
d="M139 1189q0 50 36.5 84.5t87.5 34.5q50 0 85.5 -35.5t35.5 -84.5q0 -51 -36 -88t-86 -37t-86.5 37.5t-36.5 88.5zM-34 -295q37 27 65 53.5t59 68t51 88t33 113t13 144.5v559l-150 55l15 80l279 21l25 -25v-711q0 -344 -295 -510l-46 -24z" />
    <glyph glyph-name="k" unicode="k" horiz-adv-x="972" 
d="M365 432v20l259 325l-133 40l10 76h426l-14 -74l-149 -42l-237 -290l79 -101l65 -84.5l57.5 -75t46.5 -55t49.5 -46t48 -26t58.5 -16.5l40 -6l-11 -77q-71 -19 -119 -19q-94 0 -166 63t-205 243zM10 0l11 79l153 37v1022l-158 53l12 76l288 23l25 -25v-1149l159 -36
l-12 -80h-478z" />
    <glyph glyph-name="l" unicode="l" horiz-adv-x="510" 
d="M10 0l11 79l153 37v1031l-158 54l12 76l288 22l25 -24v-1159l159 -36l-12 -80h-478z" />
    <glyph glyph-name="less" unicode="&#x3c;" horiz-adv-x="713" 
d="M756 -13l-63 -70l-634 498l1 57l620 501l56 -73l-440 -466z" />
    <glyph glyph-name="logicalnot" unicode="&#xac;" horiz-adv-x="910" 
d="M74 559l12 104h744l2 -312l-106 -19v227h-652z" />
    <glyph glyph-name="m" unicode="m" horiz-adv-x="1584" 
d="M43 0l10 74l150 40v605l-160 51l10 75l304 42l18 -21l-18 -126h9q53 66 132.5 111t167.5 45q76 0 137.5 -40t83.5 -125h12q53 68 129.5 112.5t165.5 44.5q236 0 236 -279v-494l138 -36l-13 -79h-425l7 73l125 40v472q0 75 -45 125t-123 50q-60 0 -103.5 -26.5
t-87.5 -73.5v-546l148 -35l-10 -79h-443l11 74l131 40v471q0 78 -49 126.5t-122 48.5q-121 0 -197 -87v-559l143 -35l-11 -79h-461z" />
    <glyph glyph-name="macron" unicode="&#xaf;" horiz-adv-x="637" 
d="M92 1379l13 100h442l-13 -100h-442z" />
    <glyph glyph-name="multiply" unicode="&#xd7;" horiz-adv-x="604" 
d="M67 310l156 152l-156 157l84 66l153 -153l165 160l65 -84l-156 -150l159 -161l-83 -66l-156 157l-164 -160z" />
    <glyph glyph-name="n" unicode="n" horiz-adv-x="1060" 
d="M37 0l10 73l151 41v607l-154 52l10 76l298 39l17 -19l-17 -128h10q57 68 135 113t166 45q117 0 179 -74t62 -209v-502l144 -35l-10 -79h-449l10 73l138 41v463q0 93 -47.5 138.5t-126.5 45.5q-120 0 -197 -86v-561l149 -35l-14 -79h-464z" />
    <glyph glyph-name="nbspace" unicode="&#xa0;" horiz-adv-x="305" 
 />
    <glyph glyph-name="nine" unicode="9" 
d="M304 845q0 -73 17 -131t61.5 -98.5t111.5 -40.5q52 0 99 24.5t71 62.5q10 58 10 144q0 130 -50.5 227t-133.5 97q-105 0 -145.5 -70.5t-40.5 -214.5zM104 802q0 88 34.5 166t90 130.5t125.5 82.5t142 30q95 0 170 -36.5t120.5 -99.5t68.5 -142t23 -169
q0 -302 -168.5 -522t-447.5 -269l-22 74q119 35 200.5 87.5t127 123t66 144t28.5 173.5h-14q-99 -109 -244 -109q-144 0 -222 87t-78 249z" />
    <glyph glyph-name="nine.osf" horiz-adv-x="778" 
d="M208 607q0 -138 43 -203.5t136 -65.5q51 0 95 24t68 62q7 40 7 141q0 84 -20.5 157t-63 121t-98.5 48q-167 0 -167 -284zM25 581q0 162 109.5 276.5t255.5 114.5q95 0 165.5 -37t110.5 -101.5t59 -142.5t19 -170q0 -165 -79.5 -331.5t-217 -293t-299.5 -178.5l-23 74
q84 36 151.5 86t111 102t76 116.5t50 120t30.5 121.5h-12q-37 -50 -95 -79t-123 -29q-144 0 -216.5 90t-72.5 261z" />
    <glyph glyph-name="ntilde" unicode="&#xf1;" horiz-adv-x="2048" 
d="M302 1015q1 6 4 15.5t13.5 34t23 43.5t34.5 34.5t47 15.5q10 0 14 -1l222 -30h4q11 0 25.5 10.5t22.5 20.5l9 11l47 -2l-5 -15.5t-14.5 -34.5t-25 -44t-36.5 -34.5t-49 -15.5q-8 0 -12 1l-224 30h-2q-12 0 -27 -12t-23 -24l-9 -11zM37 0l10 73l151 41v607l-154 52l10 76
l298 39l17 -19l-17 -128h10q57 68 135 113t166 45q117 0 179 -74t62 -209v-502l144 -35l-10 -79h-449l10 73l138 41v463q0 93 -47.5 138.5t-126.5 45.5q-120 0 -197 -86v-561l149 -35l-14 -79h-464z" />
    <glyph glyph-name="numbersign" unicode="#" horiz-adv-x="913" 
d="M-22 326l33 125h243l39 260h-244l34 125h229l47 313l106 10l-48 -323h209l47 313l108 9l-48 -322h259l-31 -125h-247l-39 -260h242l-31 -125h-230l-52 -345l-107 -7l53 352h-209l-52 -345l-107 -7l53 352h-257zM568 451l39 260h-209l-39 -260h209z" />
    <glyph glyph-name="o" unicode="o" horiz-adv-x="934" 
d="M230 497q0 -81 14.5 -154t44.5 -136t83.5 -100t124.5 -37q99 0 153 86.5t54 202.5q0 79 -14.5 153t-43.5 140t-81 106t-120 40q-72 0 -122 -43.5t-71.5 -109.5t-21.5 -148zM52 426q0 110 36.5 202t97.5 151t139 91.5t162 32.5q183 0 289 -126.5t106 -335.5
q0 -206 -120.5 -337t-298.5 -131q-193 0 -302 127t-109 326z" />
    <glyph glyph-name="oacute" unicode="&#xf3;" horiz-adv-x="934" 
d="M389 1017l123 325l111 -40l-183 -317zM230 497q0 -81 14.5 -154t44.5 -136t83.5 -100t124.5 -37q99 0 153 86.5t54 202.5q0 79 -14.5 153t-43.5 140t-81 106t-120 40q-72 0 -122 -43.5t-71.5 -109.5t-21.5 -148zM52 426q0 110 36.5 202t97.5 151t139 91.5t162 32.5
q183 0 289 -126.5t106 -335.5q0 -206 -120.5 -337t-298.5 -131q-193 0 -302 127t-109 326z" />
    <glyph glyph-name="ocircumflex" unicode="&#xf4;" horiz-adv-x="934" 
d="M271 1024l169 179l55 14l178 -185l-50 -37l-163 109h-11l-139 -111zM230 497q0 -81 14.5 -154t44.5 -136t83.5 -100t124.5 -37q99 0 153 86.5t54 202.5q0 79 -14.5 153t-43.5 140t-81 106t-120 40q-72 0 -122 -43.5t-71.5 -109.5t-21.5 -148zM52 426q0 110 36.5 202
t97.5 151t139 91.5t162 32.5q183 0 289 -126.5t106 -335.5q0 -206 -120.5 -337t-298.5 -131q-193 0 -302 127t-109 326z" />
    <glyph glyph-name="odieresis" unicode="&#xf6;" horiz-adv-x="934" 
d="M518 1084q0 34 26 56.5t58 22.5q34 0 61 -23t27 -56q0 -35 -26.5 -57.5t-61.5 -22.5q-34 0 -59 22.5t-25 57.5zM251 1084q0 34 25.5 56.5t57.5 22.5q34 0 60 -22.5t26 -56.5q0 -35 -25.5 -57.5t-60.5 -22.5q-34 0 -58.5 22.5t-24.5 57.5zM230 497q0 -81 14.5 -154
t44.5 -136t83.5 -100t124.5 -37q99 0 153 86.5t54 202.5q0 79 -14.5 153t-43.5 140t-81 106t-120 40q-72 0 -122 -43.5t-71.5 -109.5t-21.5 -148zM52 426q0 110 36.5 202t97.5 151t139 91.5t162 32.5q183 0 289 -126.5t106 -335.5q0 -206 -120.5 -337t-298.5 -131
q-193 0 -302 127t-109 326z" />
    <glyph glyph-name="ograve" unicode="&#xf2;" horiz-adv-x="934" 
d="M314 1296l116 38l132 -334l-58 -35zM230 497q0 -81 14.5 -154t44.5 -136t83.5 -100t124.5 -37q99 0 153 86.5t54 202.5q0 79 -14.5 153t-43.5 140t-81 106t-120 40q-72 0 -122 -43.5t-71.5 -109.5t-21.5 -148zM52 426q0 110 36.5 202t97.5 151t139 91.5t162 32.5
q183 0 289 -126.5t106 -335.5q0 -206 -120.5 -337t-298.5 -131q-193 0 -302 127t-109 326z" />
    <glyph glyph-name="one" unicode="1" 
d="M122 0l8 74l264 47v910h-250l6 77l420 77h28v-1071l262 -31l-10 -83h-728z" />
    <glyph glyph-name="one.osf" horiz-adv-x="588" 
d="M35 0l9 74l184 47v681l-173 3l9 77l304 74h28v-842l189 -34l-10 -80h-540z" />
    <glyph glyph-name="onehalf" unicode="&#xbd;" horiz-adv-x="1736" 
d="M139 -10l407 598l391 622l176 -3l-2 -29l-401 -587l-371 -623zM-52 531l4 74l153 25v492h-145l4 77l302 46h19v-618l152 -13l-6 -83h-483zM792 109l155 123q183 150 183 244q0 31 -4 54.5t-15 46t-33.5 35t-56.5 12.5q-36 0 -64 -16.5t-40 -41.5l-22 -129l-68 5l-15 170
q29 54 109.5 85t163.5 31q115 0 178 -48.5t63 -137.5q0 -55 -24 -106.5t-72 -99.5t-96.5 -85.5t-118.5 -83.5l-67 -44h270l79 153l57 -21l-19 -253h-551z" />
    <glyph glyph-name="onequarter" unicode="&#xbc;" horiz-adv-x="1736" 
d="M159 -10l407 598l391 622l156 -3l-2 -29l-401 -587l-371 -623zM-52 531l4 74l153 25v492h-145l4 77l302 46h19v-618l152 -13l-6 -83h-483zM800 272h190v236zM693 270l410 467l57 -11q-9 -128 -9 -296v-158h148l-9 -97h-139v-92l121 -18l-6 -65h-414l4 58l137 27v93h-287z
" />
    <glyph glyph-name="one.superior" unicode="&#xb9;" horiz-adv-x="512" 
d="M23 531l4 74l153 25v492h-145l4 77l302 46h19v-618l152 -13l-6 -83h-483z" />
    <glyph glyph-name="ordfeminine" unicode="&#xaa;" horiz-adv-x="830" 
d="M293 716q0 -35 21.5 -62t64.5 -27q28 0 53 13t33 21t31 33v179q-110 -20 -156.5 -58.5t-46.5 -98.5zM125 668q0 48 19 92t59.5 84t116 64t176.5 24v34q0 48 -3 78.5t-13.5 62.5t-33.5 47.5t-60 15.5q-50 0 -67 -40.5t-27 -151.5q-61 -6 -99.5 26.5t-38.5 95.5
q0 61 97 107.5t193 46.5q112 0 161 -59t49 -187v-260q0 -56 19.5 -79.5t75.5 -33.5l43 -7l-11 -62q-30 -27 -54 -36.5t-62 -9.5q-69 0 -110 33.5t-41 73.5v12h-10q-68 -124 -213 -124q-70 0 -118 41t-48 112z" />
    <glyph glyph-name="ordmasculine" unicode="&#xba;" horiz-adv-x="934" 
d="M286 933q0 -53 5 -99t19.5 -92t37 -78t59.5 -52t85 -20q57 0 93.5 35.5t49.5 84.5t13 111q0 65 -9 122.5t-30 111.5t-62 85.5t-99 31.5q-162 0 -162 -241zM114 876q0 174 109.5 278t260.5 104q155 0 245.5 -101.5t90.5 -268.5q0 -165 -102.5 -269.5t-253.5 -104.5
q-164 0 -257 101.5t-93 260.5z" />
    <glyph glyph-name="oslash" unicode="&#xf8;" horiz-adv-x="933" 
d="M40 426q0 110 37 202t98 151t139.5 91.5t162.5 32.5q130 0 225 -68l47 62l155 7l-117 -155q85 -122 85 -308q0 -206 -121 -337t-299 -131q-121 0 -213 53l-52 -67l-163 -5l124 148q-108 124 -108 324zM309 160q68 -90 178 -90q67 0 115 43.5t69.5 107.5t21.5 138
q0 143 -42 255zM272 221l346 463q-69 114 -184 114q-72 0 -122 -43.5t-71 -109.5t-21 -148q0 -164 52 -276z" />
    <glyph glyph-name="otilde" unicode="&#xf5;" horiz-adv-x="934" 
d="M236 1015q1 6 4 15.5t13 34t22.5 43.5t34.5 34.5t47 15.5q10 0 14 -1l223 -30h4q11 0 25 10.5t22 20.5l8 11l48 -2l-5 -15.5t-14 -34.5t-24.5 -44t-36.5 -34.5t-49 -15.5q-9 0 -13 1l-222 30h-3q-12 0 -27 -12t-24 -24l-9 -11zM230 497q0 -81 14.5 -154t44.5 -136
t83.5 -100t124.5 -37q99 0 153 86.5t54 202.5q0 79 -14.5 153t-43.5 140t-81 106t-120 40q-72 0 -122 -43.5t-71.5 -109.5t-21.5 -148zM52 426q0 110 36.5 202t97.5 151t139 91.5t162 32.5q183 0 289 -126.5t106 -335.5q0 -206 -120.5 -337t-298.5 -131q-193 0 -302 127
t-109 326z" />
    <glyph glyph-name="p" unicode="p" horiz-adv-x="968" 
d="M13 -372l6 78l153 38v978l-154 46l12 77l291 37l21 -19l-14 -129h7q48 67 118 116t158 49q136 0 219.5 -107t83.5 -325q0 -213 -126 -349.5t-319 -136.5q-44 0 -94 9l-6 121q34 -13 64 -17.5t89 -4.5q101 0 155 86t54 231q0 362 -191 362q-107 0 -205 -102v-923l156 -35
l-12 -80h-466z" />
    <glyph glyph-name="paragraph" unicode="&#xb6;" horiz-adv-x="1289" 
d="M912 0v1245h320l-9 -77l-170 -38v-1016l181 -34l-10 -80h-312zM44 828q0 176 129.5 296.5t313.5 120.5h346v-1245h-406l7 74l241 47v1031q-80 2 -107 2q-158 0 -238.5 -77t-80.5 -214q0 -138 79 -227.5t234 -89.5l-18 -98q-104 0 -189.5 19t-157.5 61t-112.5 118.5
t-40.5 181.5z" />
    <glyph glyph-name="parenleft" unicode="(" horiz-adv-x="477" 
d="M49 445q0 108 16 207.5t38.5 172.5t58 142t63.5 111t66 84t55 57.5l40 35.5l50 -66q-31 -41 -55.5 -79.5t-55 -105.5t-50.5 -140t-34 -180t-14 -229q0 -404 222 -772l-68 -58l-35 34t-52 59t-65.5 88t-63.5 114.5t-59.5 145.5t-40 173.5t-16.5 205.5z" />
    <glyph glyph-name="parenright" unicode=")" horiz-adv-x="477" 
d="M44 1189l49 66l40 -35.5t55 -57.5t66.5 -84t63.5 -111t58 -142t39 -172.5t16 -207.5q0 -106 -16.5 -205.5t-40 -173.5t-59.5 -145.5t-63.5 -114.5t-65.5 -88t-52 -59l-35 -34l-69 58q223 370 223 772q0 122 -14 229t-34 180t-50.5 140t-55 105.5t-55.5 79.5z" />
    <glyph glyph-name="percent" unicode="%" horiz-adv-x="1197" 
d="M812 277q0 -97 28 -171t80 -74q101 0 101 247q0 65 -9.5 120t-34 95t-60.5 40q-30 0 -52 -23.5t-33 -63t-15.5 -81.5t-4.5 -89zM647 277q0 122 87 217.5t183 95.5q108 0 186 -91.5t78 -224.5q0 -122 -84.5 -216t-176.5 -94q-102 0 -187.5 89t-85.5 224zM123 -10l407 598
l337 535l-376 14q34 -35 54.5 -113t20.5 -126q0 -123 -88 -219t-181 -96q-102 0 -185 89t-83 226q0 122 88 217.5t184 95.5q20 0 29 -3l10 -66q-30 12 -45 12q-37 0 -61 -42t-32 -96t-8 -118q0 -100 26 -174.5t77 -74.5q105 0 105 249q0 184 -38 300l557 12l166 -3l-2 -29
l-401 -587l-371 -623z" />
    <glyph glyph-name="period" unicode="." horiz-adv-x="383" 
d="M73 92q0 48 35 80.5t83 32.5q50 0 86 -33.5t36 -81.5q0 -50 -36 -85.5t-86 -35.5q-49 0 -83.5 36t-34.5 87z" />
    <glyph glyph-name="periodcentered" unicode="&#xb7;" horiz-adv-x="406" 
d="M83 504q0 47 35.5 80.5t84.5 33.5q50 0 86 -33t36 -81q0 -50 -36 -86.5t-86 -36.5q-49 0 -84.5 36.5t-35.5 86.5z" />
    <glyph glyph-name="plus" unicode="+" horiz-adv-x="648" 
d="M50 409l12 101h209v231l109 -12l1 -219h220l-12 -101h-208l2 -235l-112 11v224h-221z" />
    <glyph glyph-name="plusminus" unicode="&#xb1;" horiz-adv-x="737" 
d="M83 475l12 100h209v232l108 -12l2 -220h219l-12 -100h-207l1 -235l-111 11v224h-221zM58 13l16 104l612 6l-16 -104z" />
    <glyph glyph-name="q" unicode="q" horiz-adv-x="955" 
d="M54 412q0 98 39.5 190t102 156.5t141.5 103t157 38.5q44 0 93.5 -15.5t79.5 -31.5l117 39l29 -2v-1141l160 -34l-11 -81h-476l10 79l151 36v914q-31 56 -82.5 97t-119.5 41q-94 0 -155.5 -89t-61.5 -238q0 -174 60.5 -272t157.5 -98q30 0 84.5 12t87.5 32l3 -75
q-44 -42 -114 -68t-126 -26q-142 0 -234.5 110.5t-92.5 322.5z" />
    <glyph glyph-name="question" unicode="?" horiz-adv-x="642" 
d="M159 92q0 50 36.5 84t86.5 34q51 0 87.5 -35t36.5 -85q0 -53 -36 -89.5t-88 -36.5t-87.5 37.5t-35.5 90.5zM47 1152q0 51 45.5 93t150.5 42q58 0 119 -31.5t111 -86t82 -136.5t32 -173q0 -48 -16 -86t-41.5 -62t-56 -43t-61 -35t-56 -32.5t-41.5 -40t-16 -53.5
q0 -53 22 -125l-75 -17q-27 39 -52 102.5t-25 116.5q0 45 17 79t44 54t59.5 35.5l65.5 31t60 33.5t44 49t17 72q0 65 -57 119.5t-106 54.5q-58 0 -109 -19t-83 -53q-28 11 -51 42t-23 69z" />
    <glyph glyph-name="questiondown" unicode="&#xbf;" horiz-adv-x="636" 
d="M233 810q0 52 36.5 89t89.5 37q52 0 87.5 -38t35.5 -91q0 -50 -36.5 -83.5t-86.5 -33.5q-51 0 -88.5 35t-37.5 85zM53 40q0 56 21.5 98t53.5 65.5t69 45.5t69 38t53.5 43t21.5 61q0 54 -22 126l74 17q27 -39 52 -102.5t25 -117.5q0 -45 -17 -79t-44 -54t-59.5 -35.5
l-65 -31t-59.5 -33.5t-44 -49t-17 -72q0 -64 57.5 -118.5t106.5 -54.5q125 0 191 71q28 -11 51 -42t23 -69q0 -51 -46 -93t-151 -42q-58 0 -119 32t-111 86.5t-81.5 136t-31.5 173.5z" />
    <glyph glyph-name="quotedbl" unicode="&#x22;" horiz-adv-x="497" 
d="M258 1302l184 -16l-36 -383l-95 -11zM50 1302l183 -16l-36 -383l-93 -11z" />
    <glyph glyph-name="quotedblleft" unicode="&#x201c;" horiz-adv-x="736" 
d="M369 964q0 33 5.5 63t24 70t49 73t87 65t131.5 52l22 -68q-92 -24 -136.5 -72.5t-44.5 -101.5q0 -44 32.5 -75.5t83.5 -31.5q9 0 29 2q14 -37 14 -62q0 -55 -39.5 -88.5t-82.5 -33.5q-28 0 -57 12t-56.5 35t-44.5 65t-17 96zM54 964q0 33 5.5 63t24 70t49 73t87 65
t131.5 52l21 -68q-92 -24 -136.5 -72.5t-44.5 -101.5q0 -43 33 -75t84 -32q10 0 30 2q14 -37 14 -62q0 -55 -39.5 -88.5t-82.5 -33.5q-28 0 -57.5 12t-56.5 35t-44.5 65t-17.5 96z" />
    <glyph glyph-name="quotedblright" unicode="&#x201d;" horiz-adv-x="741" 
d="M380 824q92 24 136.5 72.5t44.5 101.5q0 43 -32.5 74.5t-83.5 31.5q-20 0 -30 -1q-15 39 -15 63q0 55 40 87.5t83 32.5q28 0 57 -12t56.5 -35t44.5 -65t17 -96q0 -244 -296 -323zM62 824q92 24 136.5 72.5t44.5 101.5q0 44 -32 75t-83 31q-20 0 -30 -1q-15 39 -15 63
q0 55 40 87.5t83 32.5q28 0 57 -12t56.5 -35t44.5 -65t17 -96q0 -244 -296 -323z" />
    <glyph glyph-name="quoteleft" unicode="&#x2018;" horiz-adv-x="419" 
d="M53 961q0 244 296 323l23 -69q-92 -24 -137 -72.5t-45 -101.5q0 -44 32.5 -75.5t83.5 -31.5q4 0 9 0.5t11 1.5t9 1q16 -42 16 -62q0 -55 -40 -88.5t-83 -33.5q-28 0 -57 12t-56.5 35t-44.5 65t-17 96z" />
    <glyph glyph-name="quoteright" unicode="&#x2019;" horiz-adv-x="425" 
d="M62 819q92 24 136.5 72t44.5 101q0 44 -32 76t-83 32q-4 0 -9 -0.5t-11.5 -1.5t-9.5 -1q-15 39 -15 63q0 55 40 88t83 33q28 0 57 -12t56.5 -35t44.5 -65t17 -96q0 -244 -296 -323z" />
    <glyph glyph-name="quotesinglbase" unicode="&#x201a;" horiz-adv-x="434" 
d="M54 -244q92 24 137 72.5t45 101.5q0 43 -32.5 74.5t-83.5 31.5q-10 0 -30 -2q-14 37 -14 63q0 55 39.5 88t82.5 33q28 0 57 -12t56 -35t44 -65t17 -96q0 -244 -295 -323z" />
    <glyph glyph-name="quotesingle" unicode="'" horiz-adv-x="289" 
d="M50 1302l183 -16l-36 -383l-93 -11z" />
    <glyph glyph-name="r" unicode="r" horiz-adv-x="735" 
d="M40 0l10 74l153 40v614l-163 49l14 76l287 37l23 -24l-20 -230h19q38 129 103.5 199.5t131.5 70.5q54 0 87 -33.5t33 -79.5q0 -67 -78 -120q-56 49 -110 49q-47 0 -97 -57.5t-64 -160.5v-383l233 -34l-10 -87h-552z" />
    <glyph glyph-name="registered" unicode="&#xae;" horiz-adv-x="1257" 
d="M261 1036q0 -191 110.5 -305.5t278.5 -114.5q173 0 291 114t118 286q0 194 -116.5 312t-290.5 118q-172 0 -281.5 -108.5t-109.5 -301.5zM173 1022q0 234 135.5 367t343.5 133q104 0 193.5 -32t157 -93t106 -156.5t38.5 -214.5q0 -151 -68 -262.5t-181.5 -167.5
t-255.5 -56q-131 0 -237 57.5t-169 168.5t-63 256zM587 1068h79q71 30 71 102q0 47 -30.5 74.5t-85.5 27.5q-8 0 -15.5 -0.5t-12.5 -1t-6 -0.5v-202zM373 777l7 48l80 28v395l-81 18l5 53q145 22 245 22q121 0 183 -33.5t62 -113.5q0 -52 -37 -100.5t-88 -65.5l-1 -2l78 -91
q37 -43 59 -61t60 -35l17 -7l-11 -55q-35 -11 -82 -11q-63 0 -101.5 36t-80.5 116l-44 83h-56v-144l74 -27l-5 -53h-283z" />
    <glyph glyph-name="ring" unicode="&#x2da;" horiz-adv-x="491" 
d="M160 1538q0 -51 25 -89.5t70 -38.5q41 0 63.5 30t22.5 84q0 50 -26 88t-70 38q-41 0 -63 -33t-22 -79zM89 1527q0 70 49 121t118 51q71 0 113.5 -46t42.5 -117q0 -70 -47.5 -122.5t-121.5 -52.5q-69 0 -111.5 45t-42.5 121z" />
    <glyph glyph-name="s" unicode="s" horiz-adv-x="697" 
d="M50 141q0 52 35.5 89t96.5 41q31 -103 80.5 -155t108.5 -52q58 0 95 24.5t37 76.5q0 32 -23.5 61.5t-61.5 53.5t-84 49.5t-91.5 55.5t-83.5 64t-61.5 82t-23.5 104q0 45 18.5 90.5t54 85t94.5 64.5t131 25q104 0 174.5 -43.5t70.5 -122.5q0 -62 -37.5 -101.5
t-102.5 -43.5l-7 43q-35 184 -149 184q-51 0 -81.5 -35t-30.5 -85q0 -38 24 -71t63 -59t85.5 -51.5t93.5 -54.5t86 -61.5t63 -78.5t24 -100q0 -71 -45 -130.5t-115.5 -91.5t-147.5 -32q-129 0 -209.5 52t-80.5 123z" />
    <glyph glyph-name="section" unicode="&#xa7;" horiz-adv-x="889" 
d="M83 916q0 109 56.5 191t143 122t187.5 40q163 0 283 -100l-22 -282l-99 12l-26 191q-16 32 -64.5 63.5t-103.5 31.5q-80 0 -132 -48.5t-52 -141.5q0 -60 35.5 -109t91.5 -84.5t123 -69.5t131 -73t114 -85.5t75 -116.5t11 -157l-406 227q-137 77 -176 104
q-142 99 -165 226q-5 29 -5 59zM55 -236l13 267l104 -15l37 -188q29 -46 84.5 -78t121.5 -32q56 0 108.5 21t91 70.5t38.5 119.5q0 53 -35 98.5t-89.5 80t-120.5 68.5t-128.5 73.5t-112 86.5t-73.5 116.5t-11 153.5l356 -200l65.5 -35.5l69.5 -36.5t65.5 -38t63 -43.5
t52.5 -49t44 -58.5t26.5 -67.5t10.5 -81.5q0 -111 -63.5 -199t-164 -134t-215.5 -46q-103 0 -195 42t-143 105z" />
    <glyph glyph-name="semicolon" unicode=";" horiz-adv-x="462" 
d="M126 744q0 46 33.5 77.5t80.5 31.5q48 0 82 -32t34 -78q0 -49 -34 -83t-82 -34t-81 34.5t-33 83.5zM77 -230q86 23 127.5 66.5t41.5 93.5q0 41 -30 71t-78 30q-1 0 -28 -3q-14 33 -14 59q0 51 36.5 81.5t77.5 30.5q58 0 110 -49.5t52 -143.5q0 -229 -274 -301z" />
    <glyph glyph-name="seven" unicode="7" 
d="M85 809l24 373h788v-52l-437 -1163l-207 22l489 1026h-513l-75 -219z" />
    <glyph glyph-name="seven.osf" horiz-adv-x="706" 
d="M15 617l40 328h638l13 -95q-185 -335 -248 -467q-157 -331 -201 -639q-3 -19 -5 -39q-5 0 -23 -4.5t-23 -4.5q-61 0 -91.5 32t-30.5 83q0 170 481 975h-418l-64 -182z" />
    <glyph glyph-name="six" unicode="6" 
d="M299 406q0 -88 20.5 -165t64.5 -128.5t102 -51.5q59 0 98.5 19.5t60 57.5t28.5 82.5t8 107.5q0 72 -19 132.5t-66 103t-114 42.5q-53 0 -105 -25t-71 -54q-7 -77 -7 -121zM96 421q0 122 51 250t134.5 234t194.5 188.5t227 120.5l37 -59q-94 -43 -171 -107t-128 -137.5
t-83.5 -148.5t-48.5 -153h11q37 42 98.5 71t136.5 29q149 0 240 -89t91 -250q0 -173 -119.5 -282t-287.5 -109q-98 0 -173.5 35.5t-120 98t-67 140.5t-22.5 168z" />
    <glyph glyph-name="six.osf" horiz-adv-x="796" 
d="M232 406q0 -90 17.5 -166t57 -127.5t95.5 -51.5q78 0 124 75t46 192q0 55 -8 102.5t-26.5 91t-54.5 68.5t-87 25t-93.5 -25t-63.5 -56q-7 -77 -7 -128zM37 421q0 164 81.5 333t218 297t291.5 178l35 -58q-94 -43 -169.5 -108t-124.5 -140t-80 -150.5t-47 -154.5h10
q43 50 101.5 77t121.5 27q130 0 207 -94t77 -238q0 -108 -51 -203t-137.5 -151.5t-185.5 -56.5q-93 0 -162 35.5t-108.5 98.5t-58.5 139.5t-19 168.5z" />
    <glyph glyph-name="slash" unicode="/" horiz-adv-x="676" 
d="M44 -363l462 1598l132 9l-466 -1599z" />
    <glyph glyph-name="softhyphen" unicode="&#xad;" horiz-adv-x="580" 
d="M85 406l7 115l408 60l-8 -116z" />
    <glyph glyph-name="space" unicode=" " horiz-adv-x="305" 
 />
    <glyph glyph-name="sterling" unicode="&#xa3;" horiz-adv-x="1113" 
d="M43 0l7 74l168 47q22 70 29 143t10 197l3 88l-180 -11l12 101l171 10l4 98q4 106 30.5 192t66.5 143t93 95.5t109.5 55.5t116.5 17q140 0 233 -49l-31 -326l-86 12l-41 194q-39 62 -139 62q-54 0 -83 -23.5t-45 -87t-23 -187.5l-10 -190l218 14l-10 -101l-211 -13l-1 -40
q-6 -302 -61 -416l460 -3l131 253l86 -18l-38 -331h-989z" />
    <glyph glyph-name="t" unicode="t" horiz-adv-x="649" 
d="M28 763v54q128 107 247 270h53v-238h283l-9 -88h-276l-3 -442q-1 -110 33.5 -153.5t113.5 -43.5q33 0 68.5 14t55.5 28l20 14l21 -54q-47 -69 -117 -108t-154 -39q-49 0 -85.5 13.5t-67 44t-46 87.5t-14.5 138l4 503h-127z" />
    <glyph glyph-name="thorn" unicode="&#xfe;" horiz-adv-x="937" 
d="M-15 -366l7 79l153 36l-2 1388l-152 54l13 76l283 21l24 -23v-416l-14 -105h11q30 34 50 53t55.5 46t76 40t87.5 13q133 0 220 -114.5t87 -312.5q0 -208 -119 -345t-295 -137q-59 0 -101 14l-3 101q64 -11 113.5 -8t86 24t61.5 49t40.5 68.5t22 82.5t6.5 90
q0 359 -189 359q-111 0 -199 -92v-926l155 -34l-12 -81h-466z" />
    <glyph glyph-name="three" unicode="3" 
d="M103 74l51 299l85 -13l13 -203q18 -33 65.5 -59t97.5 -26q119 0 183.5 52t64.5 153q0 80 -49.5 143t-124 94t-157.5 31l-10 66q29 9 63 25t77.5 44t78 61t58 80t23.5 97q0 82 -49 144t-136 62q-92 0 -144 -56l-46 -256l-85 11l-18 267q37 41 143.5 82t207.5 41
q148 0 243.5 -66.5t95.5 -186.5q0 -58 -27 -110t-71 -90.5t-90.5 -65.5t-96.5 -45v-12q66 -5 123.5 -25.5t104.5 -56t74.5 -92.5t27.5 -128q0 -101 -66 -185t-177 -132t-242 -48q-95 0 -181.5 33.5t-109.5 70.5z" />
    <glyph glyph-name="three.osf" horiz-adv-x="692" 
d="M-44 -159q0 40 38.5 77.5t97.5 43.5q4 -29 17.5 -64.5t47.5 -71.5t78 -36q66 0 113.5 20.5t72 56.5t35 76t10.5 87q0 103 -77.5 186t-209.5 87l-10 67q52 17 96.5 42.5t84.5 63t63 92t23 119.5q0 72 -31.5 121t-94.5 49q-75 0 -121 -41.5t-77 -117.5l-78 27q10 55 54 115
t120 105.5t160 45.5q112 0 183.5 -71.5t71.5 -180.5q0 -56 -25 -111.5t-63.5 -97.5t-78.5 -72.5t-75 -45.5v-11q113 -13 193 -106.5t80 -211.5q0 -146 -129.5 -263t-309.5 -117q-122 0 -190.5 41.5t-68.5 96.5z" />
    <glyph glyph-name="threequarters" unicode="&#xbe;" horiz-adv-x="1736" 
d="M800 272h190v236zM693 270l410 467l57 -11q-9 -128 -9 -296v-158h148l-9 -97h-139v-92l121 -18l-6 -65h-414l4 58l137 27v93h-287zM173 -10l407 598l391 622l176 -3l-2 -29l-401 -587l-371 -623zM-31 546l30 199l75 -8l8 -135q34 -40 99 -40q70 0 110.5 38t40.5 102
q0 54 -57.5 92t-146.5 38l-16 59q20 6 38 13t46.5 22t49 31.5t35.5 42t15 53.5q0 47 -28 83t-79 36q-59 0 -83 -22l-24 -157l-76 6l-12 171q24 34 99 63t150 29q105 0 172.5 -42.5t67.5 -119.5q0 -138 -179 -190v-7q108 -11 163 -58.5t55 -125.5q0 -101 -101.5 -171
t-243.5 -70q-74 0 -133.5 18.5t-74.5 49.5z" />
    <glyph glyph-name="three.superior" unicode="&#xb3;" horiz-adv-x="635" 
d="M21 563l30 199l75 -8l8 -135q34 -40 99 -40q70 0 110.5 38t40.5 102q0 54 -57.5 92t-146.5 38l-16 59q184 58 184 162q0 47 -28 83t-79 36q-59 0 -83 -22l-24 -157l-76 6l-12 171q24 34 99 63t150 29q105 0 172.5 -42.5t67.5 -119.5q0 -138 -179 -190v-7
q108 -11 163 -58.5t55 -125.5q0 -101 -101.5 -171t-243.5 -70q-74 0 -133.5 18.5t-74.5 49.5z" />
    <glyph glyph-name="tilde" unicode="&#x2dc;" horiz-adv-x="649" 
d="M92 1379q2 6 5 16.5t15 36.5t26.5 45t38.5 33t51 11l226 -29q11 -1 25.5 9.5t22.5 20.5l8 10l49 -2l-5 -14q-4 -13 -17.5 -39.5t-29 -45.5t-40.5 -33.5t-52 -10.5l-225 32q-12 2 -27 -10.5t-23 -25.5l-9 -13z" />
    <glyph glyph-name="two" unicode="2" 
d="M74 102l215 167q137 107 212.5 187.5t112.5 165.5t37 188q0 61 -7.5 107.5t-27.5 92t-62.5 70.5t-104.5 25q-123 0 -180 -78l-37 -271l-77 10l-27 294q43 59 162 104t227 45q168 0 260.5 -92.5t92.5 -260.5q0 -54 -14 -106t-36.5 -96t-60.5 -91t-75 -84.5t-93 -84.5
l-101 -82l-111 -84l-44 -33l-45 -34h454l94 207l70 -10l-48 -358h-780z" />
    <glyph glyph-name="two.osf" horiz-adv-x="791" 
d="M40 102l255 198q202 159 202 358q0 101 -41.5 155t-112.5 54q-64 0 -124.5 -55.5t-85.5 -136.5l-75 29q6 38 34 85t72.5 92.5t111.5 77t141 32.5q136 2 210.5 -80.5t74.5 -207.5q0 -70 -29.5 -138t-86 -131.5t-116.5 -115.5t-142 -112l-84 -59h371l78 154l71 -9l-54 -292
h-663z" />
    <glyph glyph-name="two.superior" unicode="&#xb2;" horiz-adv-x="622" 
d="M35 638l155 123q183 150 183 244q0 31 -4 54.5t-15 46t-33.5 35t-56.5 12.5q-36 0 -64 -16.5t-40 -41.5l-22 -129l-68 5l-15 170q29 54 109.5 85t163.5 31q115 0 178 -48.5t63 -137.5q0 -55 -24 -106.5t-72 -99.5t-96.5 -85.5t-118.5 -83.5l-67 -44h270l79 153l57 -21
l-19 -253h-551z" />
    <glyph glyph-name="u" unicode="u" horiz-adv-x="1002" 
d="M19 783l14 79l268 21l25 -24v-542q0 -203 154 -203q111 0 186 77v531l-159 42l10 92l294 27l21 -24v-644q0 -36 6.5 -59t23.5 -36t32 -18.5t46 -12.5l46 -10l-9 -83q-79 -19 -151 -19t-109.5 40t-37.5 105v9h-13q-106 -154 -286 -154q-223 0 -223 290v461z" />
    <glyph glyph-name="uacute" unicode="&#xfa;" horiz-adv-x="1002" 
d="M415 1017l123 325l112 -40l-183 -317zM19 783l14 79l268 21l25 -24v-542q0 -203 154 -203q111 0 186 77v531l-159 42l10 92l294 27l21 -24v-644q0 -36 6.5 -59t23.5 -36t32 -18.5t46 -12.5l46 -10l-9 -83q-79 -19 -151 -19t-109.5 40t-37.5 105v9h-13
q-106 -154 -286 -154q-223 0 -223 290v461z" />
    <glyph glyph-name="ucircumflex" unicode="&#xfb;" horiz-adv-x="1002" 
d="M299 1024l168 179l55 14l178 -185l-50 -37l-163 109h-10l-139 -111zM19 783l14 79l268 21l25 -24v-542q0 -203 154 -203q111 0 186 77v531l-159 42l10 92l294 27l21 -24v-644q0 -36 6.5 -59t23.5 -36t32 -18.5t46 -12.5l46 -10l-9 -83q-79 -19 -151 -19t-109.5 40
t-37.5 105v9h-13q-106 -154 -286 -154q-223 0 -223 290v461z" />
    <glyph glyph-name="udieresis" unicode="&#xfc;" horiz-adv-x="1002" 
d="M546 1084q0 34 25.5 56.5t57.5 22.5q34 0 61 -23t27 -56q0 -35 -26.5 -57.5t-61.5 -22.5q-34 0 -58.5 22.5t-24.5 57.5zM279 1084q0 34 25.5 56.5t57.5 22.5q34 0 60 -22.5t26 -56.5q0 -35 -25.5 -57.5t-60.5 -22.5q-34 0 -58.5 22.5t-24.5 57.5zM19 783l14 79l268 21
l25 -24v-542q0 -203 154 -203q111 0 186 77v531l-159 42l10 92l294 27l21 -24v-644q0 -36 6.5 -59t23.5 -36t32 -18.5t46 -12.5l46 -10l-9 -83q-79 -19 -151 -19t-109.5 40t-37.5 105v9h-13q-106 -154 -286 -154q-223 0 -223 290v461z" />
    <glyph glyph-name="ugrave" unicode="&#xf9;" horiz-adv-x="2048" 
d="M342 1296l116 38l131 -334l-57 -35zM19 783l14 79l268 21l25 -24v-542q0 -203 154 -203q111 0 186 77v531l-159 42l10 92l294 27l21 -24v-644q0 -36 6.5 -59t23.5 -36t32 -18.5t46 -12.5l46 -10l-9 -83q-79 -19 -151 -19t-109.5 40t-37.5 105v9h-13q-106 -154 -286 -154
q-223 0 -223 290v461z" />
    <glyph glyph-name="underscore" unicode="_" horiz-adv-x="838" 
d="M-1 -132l12 105h828l-11 -105h-829z" />
    <glyph glyph-name="v" unicode="v" horiz-adv-x="904" 
d="M-6 798l10 75h447l-8 -74l-145 -41l188 -564l192 562l-161 42l14 75h383l-12 -74l-108 -41l-273 -768l-127 -18l-278 784z" />
    <glyph glyph-name="w" unicode="w" horiz-adv-x="1273" 
d="M-2 799l10 76h415l-9 -74l-135 -41l121 -400l24 -120l161 571l139 18l147 -484l21 -111l146 524l-150 41l10 76h383l-12 -74l-108 -41l-222 -770l-119 -18l-183 614l-167 -596l-119 -18l-238 786z" />
    <glyph glyph-name="x" unicode="x" horiz-adv-x="958" 
d="M21 0l10 73l107 41l245 322l-229 328l-118 42l10 76h434l-13 -75l-115 -40l156 -218l167 215l-137 42l14 76h375l-13 -75l-104 -40l-230 -300l256 -353l113 -40l-9 -74h-445l13 73l128 41l-178 237l-181 -237l142 -40l-10 -74h-388z" />
    <glyph glyph-name="y" unicode="y" horiz-adv-x="931" 
d="M8 -261q0 71 56 120q77 -53 151 -53q23 0 41 4.5t42 17.5t46.5 44t41.5 79l20 49l-285 758l-124 38l11 77h420l-9 -74l-127 -38l204 -539l216 534l-131 42l14 75h342l-7 -74l-101 -41l-331 -811q-77 -189 -149 -258t-187 -69q-66 0 -110 37t-44 82z" />
    <glyph glyph-name="yacute" unicode="&#xfd;" horiz-adv-x="931" 
d="M408 1012l123 325l111 -39l-183 -318zM2 -261q0 71 56 120q77 -53 151 -53q23 0 41 4.5t42 17.5t46.5 44t41.5 79l20 49l-285 758l-124 38l11 77h420l-9 -74l-127 -38l204 -539l216 534l-131 42l14 75h342l-7 -74l-101 -41l-331 -811q-77 -189 -149 -258t-187 -69
q-66 0 -110 37t-44 82z" />
    <glyph glyph-name="ydieresis" unicode="&#xff;" horiz-adv-x="2048" 
d="M523 1097q0 33 26.5 55t58.5 22q34 0 60.5 -22t26.5 -55q0 -35 -26.5 -58.5t-60.5 -23.5t-59.5 23.5t-25.5 58.5zM255 1097q0 33 26.5 55t58.5 22q34 0 60 -22t26 -55q0 -36 -26 -59t-60 -23t-59.5 23.5t-25.5 58.5zM2 -261q0 71 56 120q77 -53 151 -53q23 0 41 4.5
t42 17.5t46.5 44t41.5 79l20 49l-285 758l-124 38l11 77h420l-9 -74l-127 -38l204 -539l216 534l-131 42l14 75h342l-7 -74l-101 -41l-331 -811q-77 -189 -149 -258t-187 -69q-66 0 -110 37t-44 82z" />
    <glyph glyph-name="yen" unicode="&#xa5;" horiz-adv-x="1097" 
d="M42 1168l13 76h460l-11 -76l-133 -38l218 -494l217 490l-157 42l9 76h396l-9 -76l-124 -38l-254 -552h301l-11 -98h-317v-142h324l-11 -98h-313v-127l164 -35l-10 -78h-500l10 71l149 48v121h-310l12 98h298v142h-306l12 98h267l-248 548z" />
    <glyph glyph-name="z" unicode="z" horiz-adv-x="818" 
d="M53 87l490 693h-337l-59 -185l-77 13l8 265h672v-74l-502 -700h360l95 176l67 -8l-42 -267h-671z" />
    <glyph glyph-name="zero" unicode="0" 
d="M290 583q0 -275 43.5 -394t166.5 -119q107 0 148.5 121.5t41.5 394.5q0 271 -42 391.5t-156 120.5q-116 0 -159 -121.5t-43 -393.5zM74 586q0 156 35 277.5t95.5 194t135.5 109t160 36.5q189 0 298.5 -152t109.5 -465q0 -138 -24.5 -246t-64 -176t-94.5 -112
t-111.5 -61.5t-119.5 -17.5q-71 0 -130 16t-114 58.5t-93 110t-60.5 176.5t-22.5 252z" />
    <glyph glyph-name="zero.osf" horiz-adv-x="974" 
d="M297 492q0 -104 10.5 -181t27.5 -122.5t43 -72.5t51.5 -36t58.5 -9q42 0 72.5 15.5t58.5 57.5t43 128.5t15 214.5q0 103 -10.5 179t-27.5 120t-43 70.5t-51 35t-58 8.5t-58 -8t-51 -33.5t-43 -68.5t-27.5 -118.5t-10.5 -179.5zM99 482q0 131 50 247t140.5 186.5
t198.5 69.5q179 -2 283 -140t104 -353q0 -120 -33.5 -219.5t-88.5 -163t-124 -98t-142 -34.5q-77 0 -146 32.5t-123.5 93.5t-86.5 159t-32 220z" />
    <glyph glyph-name="micro" unicode="&#xb5;" horiz-adv-x="1008" 
d="M28 790l12 80l269 22l25 -26v-552q0 -209 153 -209q42 0 80.5 15t54 26.5l53.5 41.5v543l-162 42l10 90l295 29l21 -26v-653q0 -37 5.5 -59.5t24 -36t29 -17.5t43.5 -11q5 -1 7 -2l45 -10l-8 -83q-74 -18 -153 -18q-72 0 -109 40t-37 105v8h-11q-70 -78 -138 -115.5
t-150 -37.5q-94 0 -141 61h-7q10 -61 14 -123l18 -302l-133 26q0 2 2.5 52.5t5 116.5l6 159.5t6.5 182t5 182.5t2 163v242z" />
    <glyph glyph-name="a.sc" horiz-adv-x="1077" 
d="M631 412l-109 318l-116 -318h225zM665 310h-297l-68 -186l146 -44l-11 -80h-398l9 74l119 55l324 788l151 31l294 -824l107 -44l-9 -80h-445l12 74l131 47z" />
    <glyph glyph-name="b.sc" horiz-adv-x="943" 
d="M377 525h166q53 29 72.5 69.5t19.5 114.5q0 68 -48 115t-160 47q-25 0 -50 -3v-343zM377 96h130q99 0 151.5 47.5t52.5 133.5q0 69 -52.5 117t-148.5 48h-133v-346zM37 0l11 74l137 47v683l-141 30l10 77q278 46 432 46q164 0 246.5 -66t82.5 -164q0 -66 -42 -124
t-136 -87v-7q134 -6 202 -61.5t68 -157.5q0 -57 -23 -106.5t-72 -92t-138 -67t-209 -24.5h-428z" />
    <glyph glyph-name="c.sc" horiz-adv-x="879" 
d="M39 439q0 68 17 137t55 136.5t93 119t137.5 83.5t181.5 32q179 0 282 -67l-21 -278l-98 13l-22 160q-47 77 -178 77q-116 0 -184.5 -94.5t-68.5 -259.5q0 -92 27 -168t71.5 -123.5t98 -73t109.5 -25.5q93 0 150.5 21t119.5 62l35 -76q-139 -139 -372 -139
q-85 0 -162.5 30.5t-138 87.5t-96.5 146.5t-36 198.5z" />
    <glyph glyph-name="d.sc" horiz-adv-x="1061" 
d="M383 104h55q185 0 279 95.5t94 263.5q0 186 -91.5 282.5t-274.5 96.5q-42 0 -62 -4v-734zM36 0l14 74l142 55v661l-152 30l9 76q262 49 433 49q122 0 217 -25t155 -66t98.5 -100t54 -121.5t15.5 -134.5q0 -101 -40.5 -191t-115.5 -158.5t-193 -108.5t-263 -40h-374z" />
    <glyph glyph-name="e.sc" horiz-adv-x="925" 
d="M37 851l11 76h797l-21 -273l-99 13l-31 168h-311v-332h177l22 80l98 14l-34 -299l-91 -13l-11 125h-161v-314h345l67 180l94 -13l-20 -263h-825l8 74l137 47v688z" />
    <glyph glyph-name="f.sc" horiz-adv-x="899" 
d="M37 854l11 76h813l-29 -272l-103 14l-21 166h-325v-368h219l25 84l98 14l-27 -292l-93 -14l-16 116h-206l-3 -256l198 -39l-13 -83h-521l8 74l137 47v691z" />
    <glyph glyph-name="g.sc" horiz-adv-x="1044" 
d="M39 421q0 152 73 273.5t194.5 187t266.5 65.5q199 0 322 -47l-24 -292l-107 15l-26 165q-28 22 -86 41t-129 19q-55 0 -103.5 -21.5t-89 -64t-64 -115t-23.5 -167.5q0 -187 76.5 -295t214.5 -108q78 0 115 7.5t57 27.5v168l-186 38l12 83h476l-14 -84l-102 -32v-256
q-153 -60 -401 -60q-219 0 -335.5 126.5t-116.5 325.5z" />
    <glyph glyph-name="h.sc" horiz-adv-x="1195" 
d="M37 854l11 76h484l-10 -76l-138 -38v-308h425v304l-153 42l11 76h486l-12 -76l-137 -38v-702l152 -34l-10 -80h-483l10 74l136 47v284h-425v-291l154 -34l-13 -80h-481l8 74l137 47v691z" />
    <glyph glyph-name="i.sc" horiz-adv-x="574" 
d="M37 854l11 76h484l-10 -76l-139 -38v-702l151 -34l-10 -80h-480l8 74l137 47v691z" />
    <glyph glyph-name="j.sc" horiz-adv-x="651" 
d="M35 -237q121 107 178.5 201.5t57.5 202.5v645l-151 42l10 76h485l-10 -76l-140 -38v-511q0 -111 -12.5 -190t-36.5 -140t-72 -112.5t-105 -93t-150 -95.5z" />
    <glyph glyph-name="k.sc" horiz-adv-x="1115" 
d="M413 466q70 68 146 150l185 199l-118 39l8 76h413l-12 -79l-140 -40l-298 -319l93 -117q196 -246 342 -292l46 -13l-10 -69q-63 -22 -131 -22q-117 0 -221 79t-182 200l-120 187zM37 854l14 76h480l-10 -76l-132 -47v-683l169 -44l-11 -80h-503l10 74l142 55v674z" />
    <glyph glyph-name="l.sc" horiz-adv-x="929" 
d="M50 0l9 74l136 47v682l-158 51l13 76h500l-10 -76l-151 -47v-711h306l95 199l102 -14l-28 -281h-814z" />
    <glyph glyph-name="m.sc" horiz-adv-x="1449" 
d="M35 0l11 74l137 47l63 691l-153 42l10 76h357l84 -194l181 -414l194 447l74 161h374l-10 -76l-138 -38l42 -702l152 -34l-10 -80h-486l11 74l146 47l-33 598l-289 -659l-128 -19l-266 622l-43 -549l153 -34l-13 -80h-420z" />
    <glyph glyph-name="n.sc" horiz-adv-x="1169" 
d="M37 854l11 76h310l473 -655v537l-152 42l12 76h442l-13 -76l-167 -38v-805l-153 -31l-483 667v-533l154 -34l-11 -80h-416l8 74l137 47v682z" />
    <glyph glyph-name="o.sc" horiz-adv-x="1034" 
d="M245 515q0 -84 16.5 -159.5t49 -138.5t88.5 -100.5t129 -37.5q253 0 253 333q0 81 -16.5 156t-48.5 140t-88 104t-128 39q-255 0 -255 -336zM38 458q0 219 135.5 354t364.5 135q139 0 244.5 -68t159 -178t53.5 -243q0 -98 -34 -185t-97 -154.5t-160.5 -106.5t-215.5 -39
q-199 0 -324.5 139t-125.5 346z" />
    <glyph glyph-name="p.sc" horiz-adv-x="932" 
d="M37 0l11 74l137 47v675l-141 30l10 77q269 44 426 44q415 0 415 -293q0 -107 -65 -186.5t-164.5 -116t-214.5 -32.5l-18 83l53 1q97 2 153 63t56 162q0 104 -62.5 170t-193.5 66l-62 -4v-738l197 -39l-14 -83h-523z" />
    <glyph glyph-name="q.sc" horiz-adv-x="1027" 
d="M240 526q0 -120 34.5 -221.5t110 -169t179.5 -68.5q220 60 220 351q0 107 -35.5 206t-104.5 164t-155 65q-117 0 -183 -86t-66 -241zM38 455q0 216 137.5 354t360.5 138q140 0 244.5 -64t156 -168t51.5 -232q0 -174 -95.5 -310.5t-259.5 -178.5q92 -205 332 -199
q0 -49 -9 -76q-78 -46 -169 -46q-122 0 -193 85t-62 212q-116 -4 -211 33.5t-156 105t-94 156.5t-33 190z" />
    <glyph glyph-name="r.sc" horiz-adv-x="1094" 
d="M374 459h199q51 15 85 66t34 127q0 94 -62.5 152.5t-172.5 58.5l-83 -5v-399zM37 0l11 74l147 47v673l-151 30l10 77q274 46 426 46q194 0 297.5 -67.5t103.5 -191.5q0 -85 -57 -154.5t-138 -102.5v-1l94 -131q124 -174 245 -209l33 -10l-15 -70q-63 -20 -130 -20
q-108 0 -194.5 76.5t-135.5 207.5l-35 94h-174v-242l177 -43l-10 -83h-504z" />
    <glyph glyph-name="s.sc" horiz-adv-x="714" 
d="M37 59l33 250l102 -14l19 -151q35 -37 70.5 -53t105.5 -16q53 0 95 27t42 77q0 39 -24.5 71.5t-63.5 57t-86.5 48.5t-94.5 52.5t-86 62t-63.5 83.5t-24.5 111q0 129 98 205.5t231 76.5q129 0 224 -50l-22 -262l-99 12l-15 149q-15 28 -48 47.5t-73 19.5q-138 0 -138 -129
q0 -42 25.5 -78t66 -63t89 -52.5l97.5 -53t89.5 -59t66 -76t25.5 -98.5q0 -122 -97 -200t-228 -78q-230 0 -316 83z" />
    <glyph glyph-name="t.sc" horiz-adv-x="936" 
d="M41 930h856l-30 -289l-95 15l-39 182h-170v-724l165 -34l-14 -80h-489l7 74l139 47v717h-186l-47 -193l-91 13z" />
    <glyph glyph-name="u.sc" horiz-adv-x="1142" 
d="M36 854l13 75h482l-9 -75l-139 -38v-456q0 -255 219 -255q112 0 168.5 50t57.5 177l3 480l-153 42l10 76h418l-11 -76l-136 -38l-5 -451q-2 -208 -104 -300t-298 -92q-362 0 -362 346v493z" />
    <glyph glyph-name="v.sc" horiz-adv-x="1082" 
d="M37 854l10 76h473l-10 -76l-129 -38l199 -575l211 571l-132 42l7 76h377l-7 -76l-104 -38l-316 -812l-152 -28l-304 836z" />
    <glyph glyph-name="w.sc" horiz-adv-x="1523" 
d="M37 854l9 76h484l-15 -76l-147 -38l154 -545l181 609l176 25l166 -618l162 525l-151 42l11 76h419l-11 -76l-123 -38l-266 -812l-154 -28l-180 661l-185 -633l-163 -28l-237 836z" />
    <glyph glyph-name="x.sc" horiz-adv-x="1021" 
d="M37 0l12 76l117 45l246 328l-239 360l-127 43l12 78h453l-10 -78l-114 -35l154 -233l161 228l-120 40l13 78h375l-8 -76l-117 -38l-228 -325l241 -377l125 -34l-13 -80h-433l13 74l100 37l-162 252l-172 -246l126 -34l-15 -83h-390z" />
    <glyph glyph-name="y.sc" horiz-adv-x="1001" 
d="M37 854l13 76h458l-12 -76l-118 -38l176 -323l168 319l-123 42l10 76h355l-10 -76l-95 -38l-248 -431v-271l151 -34l-10 -80h-484l10 74l140 47v239l-253 452z" />
    <glyph glyph-name="z.sc" horiz-adv-x="899" 
d="M37 104l564 731h-357l-66 -196l-100 18l9 273h754v-76l-583 -754h411l99 201l95 -16l-37 -285h-781z" />
    <glyph glyph-name="ae.sc" horiz-adv-x="1452" 
d="M522 423h211v331zM332 126l148 -43l-13 -82h-415l9 75l136 55l457 681l-204 39l10 76h913l-21 -273l-99 13l-31 168h-301v-332h177l22 80l98 14l-34 -299l-91 -13l-11 125h-161v-314h335l67 180l94 -13l-20 -263h-809l8 74l137 47v206h-273z" />
    <glyph glyph-name="eth.sc" horiz-adv-x="1034" 
d="M424 104h55q185 0 279 95.5t94 263.5q0 186 -91.5 282.5t-274.5 96.5q-42 0 -62 -4v-331l208 14l-12 -91l-196 -14v-312zM77 0l14 74l142 55v274l-150 -10l11 92l139 9v296l-152 30l9 76q262 49 433 49q122 0 217 -25t155 -66t98.5 -100t54 -121.5t15.5 -134.5
q0 -101 -40.5 -191t-115.5 -158.5t-193 -108.5t-263 -40h-374z" />
    <glyph glyph-name="thorn.sc" horiz-adv-x="977" 
d="M80 854l11 76h491l-10 -76l-146 -38v-50q51 3 97 3q395 0 395 -273q0 -101 -65 -175.5t-165 -109t-214 -30.5l-18 82l53 2q97 4 152.5 58.5t55.5 146.5q0 95 -57.5 155.5t-177.5 60.5q-20 0 -56 -3v-569l151 -34l-10 -80h-480l8 74l137 47v691z" />
    <glyph glyph-name="germandbls.sc" horiz-adv-x="1102" 
d="M746 843q-51 0 -86 -29.5t-35 -89.5q0 -42 25.5 -79t66 -64.5t89 -54l97.5 -54.5t89.5 -59t66 -74.5t25.5 -94.5q0 -118 -97 -193t-228 -75q-230 0 -316 83l33 250l102 -14l19 -151q35 -37 70.5 -53t105.5 -16q53 0 95 27t42 77q0 39 -33 74t-82 60.5t-106.5 58.5
t-106.5 66.5t-82 86.5t-33 116q0 88 48.5 146.5t119.5 79.5l2 3q-30 2 -43 2q-131 0 -192 -72t-61 -229v-571h-331l8 73l134 37v438q0 204 132.5 302.5t368.5 98.5q64 0 126.5 -8t125.5 -27t102 -56.5t39 -88.5q0 -54 -29.5 -84t-91.5 -51q-55 209 -179 209z" />
    <glyph glyph-name="germandbls.sc.alt" horiz-adv-x="1063" 
d="M739 560q22 -13 64.5 -36t60.5 -33.5l50.5 -30t47 -31t36.5 -30.5t31.5 -35t20.5 -37.5t15 -45t4 -51.5q0 -111 -99.5 -182.5t-230.5 -71.5q-223 0 -306 83l33 250l102 -14l19 -151q34 -37 67 -53t99 -16q72 0 112 29t40 81q0 21 -8.5 40t-29.5 39t-41.5 36t-59 38
l-65.5 37l-78.5 42l-82.5 44l-23 48l288 314v5q-46 20 -97 30.5t-84.5 12t-89.5 1.5q-105 0 -154 -72.5t-49 -228.5v-571h-331l8 73l134 37v438q0 204 119 302.5t332 98.5q249 0 399 -28l1 -74z" />
    <glyph glyph-name="euro.osf" horiz-adv-x="1161" 
d="M11 487l9 99h141q44 160 170 260.5t307 100.5q44 0 84.5 -7t67.5 -16.5t46.5 -19.5t29.5 -17l10 -7l-21 -278l-98 13l-22 160q-38 77 -167 77q-93 0 -144.5 -63t-65.5 -203h307l-21 -99h-292v-24q0 -27 2 -52h272l-21 -99h-231q33 -101 104.5 -155t156.5 -54
q160 0 251 94l43 -77q-10 -19 -35.5 -41.5t-66 -46.5t-104.5 -40t-137 -16q-172 0 -287.5 86t-147.5 250h-140l10 99h119v21q0 28 3 55h-132z" />
    <glyph glyph-name="ampersand.sc" horiz-adv-x="1281" 
d="M423 399q-88 -77 -88 -183q0 -42 36 -79.5t86 -37.5q95 0 172 69zM690 102q-60 -61 -131 -91t-163 -30q-114 0 -181.5 55.5t-67.5 145.5q0 40 13 76t31.5 62.5t50 54.5t57.5 46t66 43l-39 43q-81 104 -81 196q0 94 79 169t183 75q106 0 169.5 -54.5t63.5 -139.5
q0 -48 -13.5 -87.5t-41.5 -70.5t-55 -52.5t-68 -47.5l174 -192q48 78 100 194l-114 42l10 68h374l-10 -68l-150 -39q-105 -192 -150 -262q115 -120 247 -157l33 -10l-14 -69q-57 -20 -119 -20q-68 0 -134 34.5t-119 85.5zM505 558q89 74 89 162q0 72 -30.5 108t-76.5 36
q-32 0 -56 -34t-24 -78q0 -40 18 -79t68 -102z" />
    <glyph glyph-name="dollar.osf" horiz-adv-x="859" 
d="M305 1041l132 17l-15 -161q86 -10 140.5 -52t54.5 -111q0 -62 -37.5 -101.5t-102.5 -43.5l-7 43q-35 184 -149 184q-51 0 -81.5 -35t-30.5 -85q0 -38 24 -71t63 -59t85.5 -51.5t93.5 -54.5t86 -61.5t63 -78.5t24 -100q0 -88 -65 -154.5t-160 -89.5l14 -155l-139 -18
l15 164q-118 6 -190.5 56.5t-72.5 117.5q0 52 35.5 89t96.5 41q31 -103 80.5 -155t108.5 -52q58 0 95 24.5t37 76.5q0 37 -32 70.5t-79.5 59t-103 58.5t-103 67t-79.5 87.5t-32 116.5q0 41 15.5 84t44.5 82.5t77.5 68t108.5 37.5z" />
    <glyph glyph-name="paragraph.sc" horiz-adv-x="1289" 
d="M920 0v930h291l-10 -77l-140 -38v-701l151 -34l-10 -80h-282zM164 593q0 108 61 185.5t158.5 114.5t217.5 37h240v-930h-374l7 74l209 47v717q-80 2 -82 2q-45 0 -83.5 -9.5t-74.5 -31t-57 -65.5t-21 -105q0 -109 59.5 -172.5t180.5 -67.5l-18 -98q-195 0 -309 74.5
t-114 227.5z" />
    <glyph glyph-name="percent.osf" horiz-adv-x="1046" 
d="M739 220q0 -76 24.5 -128.5t71.5 -52.5q92 0 92 183q0 81 -22.5 135t-70.5 54q-95 0 -95 -191zM590 220q0 103 78 176.5t166 73.5q98 0 167.5 -71t69.5 -182q0 -102 -76 -174.5t-160 -72.5q-94 0 -169.5 68t-75.5 182zM46 -9l388 449l316 407l-369 12q31 -28 49.5 -83.5
t18.5 -92.5q0 -104 -79 -178t-164 -74q-93 0 -167 69t-74 183q0 103 78.5 177t166.5 74q18 0 26 -3l9 -69q-24 11 -41 11q-33 0 -54.5 -29.5t-28.5 -69.5t-7 -91q0 -78 22.5 -131t69.5 -53q94 0 94 184q0 141 -34 239l550 10l173 -3l-1 -25l-391 -461l-356 -470z" />
    <glyph glyph-name="sterling.osf" horiz-adv-x="1283" 
d="M110 0l6 74l168 39q40 81 40 221v72l-178 -10l12 92l170 10l2 113q4 165 96.5 251.5t255.5 85.5q139 -1 210 -47.5t71 -129.5q0 -54 -46 -87t-103 -37q-17 114 -51 165t-99 51q-41 0 -67.5 -10t-43.5 -29t-25 -58.5t-11 -84.5t-3 -121v-54l237 14l-10 -91l-229 -17v-24
q0 -212 -64 -290h373l107 236l82 -21l-25 -313h-875z" />
    <glyph glyph-name="yen.osf" horiz-adv-x="1170" 
d="M219 498l13 98h167l-106 217l-136 41l13 76h440l-11 -76l-113 -38l166 -396l184 393l-137 41l10 76h376l-10 -76l-123 -38l-110 -220h199l-11 -98h-237l-53 -105h301l-11 -98h-317v-182l164 -35l-10 -78h-500l10 71l149 48v176h-307l13 98h267l-51 105h-229z" />
    <glyph glyph-name="oslash.sc" horiz-adv-x="933" 
d="M16 458q0 219 135.5 354t364.5 135q145 0 255 -75l57 75l155 7l-123 -162q55 -66 84 -152.5t29 -181.5q0 -98 -34 -185t-97 -154.5t-160.5 -106.5t-215.5 -39q-124 0 -224 58l-55 -72l-163 -5l125 150q-64 66 -98.5 157.5t-34.5 196.5zM685 723q-76 128 -207 128
q-255 0 -255 -336q0 -172 61 -289zM719 653l-397 -486q72 -88 184 -88q253 0 253 333q0 133 -40 241z" />
    <glyph glyph-name="numbersign.osf" horiz-adv-x="859" 
d="M10 243l33 125h185l29 193h-194l34 125h179l39 255l111 10l-40 -265h164l39 255l111 9l-40 -264h186l-31 -125h-174l-29 -193h177l-31 -125h-165l-40 -262l-110 -7l41 269h-165l-39 -262l-112 -7l41 269h-199zM502 368l30 193h-165l-29 -193h164z" />
    <glyph glyph-name="agrave.sc" horiz-adv-x="1037" 
d="M343 1350l115 38l132 -333l-56 -35zM612 412l-109 318l-116 -318h225zM646 310h-297l-68 -186l146 -44l-11 -80h-398l9 74l119 55l324 788l151 31l294 -824l107 -44l-9 -80h-445l12 74l131 47z" />
    <glyph glyph-name="aacute.sc" horiz-adv-x="1077" 
d="M514 1053l123 325l111 -39l-183 -318zM631 412l-109 318l-116 -318h225zM665 310h-297l-68 -186l146 -44l-11 -80h-398l9 74l119 55l324 788l151 31l294 -824l107 -44l-9 -80h-445l12 74l131 47z" />
    <glyph glyph-name="acircumflex.sc" horiz-adv-x="1077" 
d="M368 1058l168 179l56 15l178 -186l-50 -37l-162 110h-12l-138 -111zM631 412l-109 318l-116 -318h225zM665 310h-297l-68 -186l146 -44l-11 -80h-398l9 74l119 55l324 788l151 31l294 -824l107 -44l-9 -80h-445l12 74l131 47z" />
    <glyph glyph-name="atilde.sc" horiz-adv-x="1077" 
d="M348 1032q2 6 5 16.5t15 36.5t26.5 45t38.5 33t51 11l226 -29q11 -1 25.5 9t22.5 20l8 11l50 -2l-4 -13q-5 -14 -18.5 -40.5t-29 -45.5t-40.5 -33.5t-52 -10.5l-226 32q-12 2 -27 -10.5t-23 -25.5l-8 -13zM631 412l-109 318l-116 -318h225zM665 310h-297l-68 -186
l146 -44l-11 -80h-398l9 74l119 55l324 788l151 31l294 -824l107 -44l-9 -80h-445l12 74l131 47z" />
    <glyph glyph-name="adieresis.sc" horiz-adv-x="1077" 
d="M612 1109q0 33 26.5 55t58.5 22q34 0 60.5 -22t26.5 -55q0 -35 -26.5 -58.5t-60.5 -23.5t-59.5 23.5t-25.5 58.5zM344 1109q0 33 26.5 55t58.5 22q34 0 60 -22t26 -55q0 -36 -26 -59t-60 -23t-59.5 23.5t-25.5 58.5zM631 412l-109 318l-116 -318h225zM665 310h-297
l-68 -186l146 -44l-11 -80h-398l9 74l119 55l324 788l151 31l294 -824l107 -44l-9 -80h-445l12 74l131 47z" />
    <glyph glyph-name="aring.sc" horiz-adv-x="1077" 
d="M474 1184q0 -51 24.5 -89.5t69.5 -38.5q41 0 63.5 30t22.5 84q0 50 -26 88t-70 38q-41 0 -62.5 -33t-21.5 -79zM402 1173q0 70 49.5 121t118.5 51q71 0 113.5 -46t42.5 -117q0 -70 -48 -122.5t-122 -52.5q-69 0 -111.5 45t-42.5 121zM631 412l-109 318l-116 -318h225z
M665 310h-297l-68 -186l146 -44l-11 -80h-398l9 74l119 55l324 788l151 31l294 -824l107 -44l-9 -80h-445l12 74l131 47z" />
    <glyph glyph-name="ccedilla.sc" horiz-adv-x="879" 
d="M390 -335q41 14 63.5 36.5t22.5 46.5q0 40 -74 110l82 118h-12q-85 0 -162.5 30.5t-138 87.5t-96.5 146.5t-36 198.5q0 68 17 137t55 136.5t93 119t137.5 83.5t181.5 32q179 0 282 -67l-21 -278l-98 13l-22 160q-47 77 -178 77q-116 0 -184.5 -94.5t-68.5 -259.5
q0 -92 27 -168t71.5 -123.5t98 -73t109.5 -25.5q93 0 150.5 21t119.5 62l35 -76q-112 -112 -282 -133l-41 -62q89 -79 89 -151q0 -103 -201 -162z" />
    <glyph glyph-name="egrave.sc" horiz-adv-x="802" 
d="M275 1341l115 38l132 -333l-56 -35zM29 851l11 76h797l-21 -273l-99 13l-31 168h-311v-332h177l22 80l98 14l-34 -299l-91 -13l-11 125h-161v-314h345l67 180l94 -13l-20 -263h-825l8 74l137 47v688z" />
    <glyph glyph-name="eacute.sc" horiz-adv-x="802" 
d="M413 1051l123 325l111 -39l-183 -318zM29 851l11 76h797l-21 -273l-99 13l-31 168h-311v-332h177l22 80l98 14l-34 -299l-91 -13l-11 125h-161v-314h345l67 180l94 -13l-20 -263h-825l8 74l137 47v688z" />
    <glyph glyph-name="ecircumflex.sc" horiz-adv-x="925" 
d="M285 1056l168 179l55 15l178 -186l-49 -37l-163 110h-11l-139 -111zM37 851l11 76h797l-21 -273l-99 13l-31 168h-311v-332h177l22 80l98 14l-34 -299l-91 -13l-11 125h-161v-314h345l67 180l94 -13l-20 -263h-825l8 74l137 47v688z" />
    <glyph glyph-name="edieresis.sc" horiz-adv-x="925" 
d="M524 1106q0 34 26 55.5t58 21.5q35 0 61.5 -22t26.5 -55q0 -35 -26.5 -58.5t-61.5 -23.5q-34 0 -59 23t-25 59zM256 1106q0 34 26 55.5t58 21.5q34 0 60 -22t26 -55q0 -36 -26 -59t-60 -23t-59 23t-25 59zM37 851l11 76h797l-21 -273l-99 13l-31 168h-311v-332h177l22 80
l98 14l-34 -299l-91 -13l-11 125h-161v-314h345l67 180l94 -13l-20 -263h-825l8 74l137 47v688z" />
    <glyph glyph-name="igrave.sc" horiz-adv-x="574" 
d="M102 1340l115 38l132 -333l-56 -35zM37 854l11 76h484l-10 -76l-139 -38v-702l151 -34l-10 -80h-480l8 74l137 47v691z" />
    <glyph glyph-name="iacute.sc" horiz-adv-x="574" 
d="M207 1055l123 325l111 -39l-183 -318zM37 854l11 76h484l-10 -76l-139 -38v-702l151 -34l-10 -80h-480l8 74l137 47v691z" />
    <glyph glyph-name="icircumflex.sc" horiz-adv-x="574" 
d="M90 1057l168 179l54 15l178 -186l-48 -37l-164 110h-10l-140 -111zM37 854l11 76h484l-10 -76l-139 -38v-702l151 -34l-10 -80h-480l8 74l137 47v691z" />
    <glyph glyph-name="idieresis.sc" horiz-adv-x="574" 
d="M345 1109q0 33 26.5 55t58.5 22q34 0 60.5 -22t26.5 -55q0 -35 -26.5 -58.5t-60.5 -23.5t-59.5 23.5t-25.5 58.5zM77 1109q0 33 26.5 55t58.5 22q34 0 60 -22t26 -55q0 -36 -26 -59t-60 -23t-59.5 23.5t-25.5 58.5zM37 854l11 76h484l-10 -76l-139 -38v-702l151 -34
l-10 -80h-480l8 74l137 47v691z" />
    <glyph glyph-name="ntilde.sc" horiz-adv-x="1120" 
d="M328 1048q2 6 5 16.5t15 36.5t26.5 45t38.5 33t51 11l226 -29q11 -1 25.5 9t22.5 20l8 11l48 -2l-4 -13q-5 -14 -18.5 -40.5t-29 -45.5t-40.5 -33.5t-52 -10.5l-224 32q-12 2 -27 -10.5t-24 -25.5l-9 -13zM37 854l11 76h310l473 -655v537l-152 42l12 76h442l-13 -76
l-167 -38v-805l-153 -31l-483 667v-533l154 -34l-11 -80h-416l8 74l137 47v682z" />
    <glyph glyph-name="ograve.sc" horiz-adv-x="1034" 
d="M325 1346l115 38l132 -333l-56 -35zM245 515q0 -84 16.5 -159.5t49 -138.5t88.5 -100.5t129 -37.5q253 0 253 333q0 81 -16.5 156t-48.5 140t-88 104t-128 39q-255 0 -255 -336zM38 458q0 219 135.5 354t364.5 135q139 0 244.5 -68t159 -178t53.5 -243q0 -98 -34 -185
t-97 -154.5t-160.5 -106.5t-215.5 -39q-199 0 -324.5 139t-125.5 346z" />
    <glyph glyph-name="oacute.sc" horiz-adv-x="1034" 
d="M458 1051l123 325l111 -39l-183 -318zM245 515q0 -84 16.5 -159.5t49 -138.5t88.5 -100.5t129 -37.5q253 0 253 333q0 81 -16.5 156t-48.5 140t-88 104t-128 39q-255 0 -255 -336zM38 458q0 219 135.5 354t364.5 135q139 0 244.5 -68t159 -178t53.5 -243q0 -98 -34 -185
t-97 -154.5t-160.5 -106.5t-215.5 -39q-199 0 -324.5 139t-125.5 346z" />
    <glyph glyph-name="ocircumflex.sc" horiz-adv-x="1034" 
d="M323 1049l168 179l55 15l178 -186l-49 -37l-163 110h-11l-139 -111zM245 515q0 -84 16.5 -159.5t49 -138.5t88.5 -100.5t129 -37.5q253 0 253 333q0 81 -16.5 156t-48.5 140t-88 104t-128 39q-255 0 -255 -336zM38 458q0 219 135.5 354t364.5 135q139 0 244.5 -68
t159 -178t53.5 -243q0 -98 -34 -185t-97 -154.5t-160.5 -106.5t-215.5 -39q-199 0 -324.5 139t-125.5 346z" />
    <glyph glyph-name="otilde.sc" horiz-adv-x="1034" 
d="M279 1048q2 6 5 16.5t15 36.5t26.5 45t38.5 33t51 11l226 -29q11 -1 25 9t22 20l9 11l49 -2l-4 -13q-5 -14 -18.5 -40.5t-29 -45.5t-40.5 -33.5t-52 -10.5l-225 32q-12 2 -27.5 -10.5t-23.5 -25.5l-8 -13zM245 515q0 -84 16.5 -159.5t49 -138.5t88.5 -100.5t129 -37.5
q253 0 253 333q0 81 -16.5 156t-48.5 140t-88 104t-128 39q-255 0 -255 -336zM38 458q0 219 135.5 354t364.5 135q139 0 244.5 -68t159 -178t53.5 -243q0 -98 -34 -185t-97 -154.5t-160.5 -106.5t-215.5 -39q-199 0 -324.5 139t-125.5 346z" />
    <glyph glyph-name="odieresis.sc" horiz-adv-x="1034" 
d="M574 1121q0 33 26.5 55t58.5 22q34 0 60.5 -22t26.5 -55q0 -35 -26.5 -58.5t-60.5 -23.5t-59.5 23.5t-25.5 58.5zM306 1121q0 33 26.5 55t58.5 22q34 0 60 -22t26 -55q0 -36 -26 -59t-60 -23t-59.5 23.5t-25.5 58.5zM245 515q0 -84 16.5 -159.5t49 -138.5t88.5 -100.5
t129 -37.5q253 0 253 333q0 81 -16.5 156t-48.5 140t-88 104t-128 39q-255 0 -255 -336zM38 458q0 219 135.5 354t364.5 135q139 0 244.5 -68t159 -178t53.5 -243q0 -98 -34 -185t-97 -154.5t-160.5 -106.5t-215.5 -39q-199 0 -324.5 139t-125.5 346z" />
    <glyph glyph-name="ugrave.sc" horiz-adv-x="1142" 
d="M392 1342l114 38l132 -333l-56 -35zM46 854l13 76h482l-9 -76l-139 -38v-456q0 -255 219 -255q112 0 168.5 50t57.5 177l3 480l-153 42l10 76h418l-11 -76l-136 -38l-5 -451q-2 -208 -104 -300t-298 -92q-362 0 -362 346v493z" />
    <glyph glyph-name="uacute.sc" horiz-adv-x="1142" 
d="M540 1054l124 325l110 -39l-182 -318zM46 854l13 76h482l-9 -76l-139 -38v-456q0 -255 219 -255q112 0 168.5 50t57.5 177l3 480l-153 42l10 76h418l-11 -76l-136 -38l-5 -451q-2 -208 -104 -300t-298 -92q-362 0 -362 346v493z" />
    <glyph glyph-name="ucircumflex.sc" horiz-adv-x="1152" 
d="M391 1055l168 179l55 15l178 -186l-49 -37l-163 110h-11l-139 -111zM46 854l13 76h482l-9 -76l-139 -38v-456q0 -255 219 -255q112 0 168.5 50t57.5 177l3 480l-153 42l10 76h418l-11 -76l-136 -38l-5 -451q-2 -208 -104 -300t-298 -92q-362 0 -362 346v493z" />
    <glyph glyph-name="udieresis.sc" horiz-adv-x="1152" 
d="M650 1141q0 34 26 55.5t58 21.5q35 0 61.5 -22t26.5 -55q0 -35 -26.5 -58.5t-61.5 -23.5q-34 0 -59 23t-25 59zM382 1141q0 34 26 55.5t58 21.5q34 0 60 -22t26 -55q0 -36 -26 -59t-60 -23t-59 23t-25 59zM46 854l13 76h482l-9 -76l-139 -38v-456q0 -255 219 -255
q112 0 168.5 50t57.5 177l3 480l-153 42l10 76h418l-11 -76l-136 -38l-5 -451q-2 -208 -104 -300t-298 -92q-362 0 -362 346v493z" />
    <glyph glyph-name="yacute.sc" horiz-adv-x="1001" 
d="M478 1053l123 325l111 -39l-183 -318zM12 854l13 76h458l-12 -76l-118 -38l176 -323l168 319l-123 42l10 76h355l-10 -76l-95 -38l-248 -431v-271l151 -34l-10 -80h-484l10 74l140 47v239l-253 452z" />
    <glyph glyph-name="ydieresis.sc" horiz-adv-x="2048" 
d="M549 1137q0 33 26.5 55t58.5 22q34 0 60.5 -22t26.5 -55q0 -35 -26.5 -58.5t-60.5 -23.5t-59.5 23.5t-25.5 58.5zM281 1137q0 33 26.5 55t58.5 22q34 0 60 -22t26 -55q0 -36 -26 -59t-60 -23t-59.5 23.5t-25.5 58.5zM6 854l13 76h458l-12 -76l-118 -38l176 -323l168 319
l-123 42l10 76h355l-10 -76l-95 -38l-248 -431v-271l151 -34l-10 -80h-484l10 74l140 47v239l-253 452z" />
    <glyph glyph-name="alef" unicode="&#x5d0;" horiz-adv-x="1061" 
d="M189 1127l41 7q5 -81 72 -157l320 -377l128 226l-126 140l93 159l50 14q9 -32 18.5 -49t39.5 -51l165 -191l-70 -182l-25 3q-7 5 -81 86q-97 -101 -110 -252l296 -349l-84 -162l-26 -4l-565 651q-41 -34 -65.5 -80.5t-24 -103t35.5 -104.5l104 -145q44 -49 44 -99
q0 -107 -59 -107h-273l-5 58q65 18 79 38t-2 58l-39 112q-33 94 9 216t145 216l-192 221l-1 31z" />
    <glyph glyph-name="bet" unicode="&#x5d1;" horiz-adv-x="980" 
d="M941 211l-42 -211h-821l-23 16l37 195h568q35 34 60 127t25 195q0 148 -39.5 221.5t-130.5 73.5h-437l-23 28l73 271l61 22q23 -71 43.5 -91t70.5 -20h268q90 0 136 -31.5t67 -115t21 -247.5q0 -134 -27.5 -249.5t-79.5 -183.5h193z" />
    <glyph glyph-name="gimel" unicode="&#x5d2;" horiz-adv-x="714" 
d="M356 1038h32q74 0 121 -60.5t47 -178.5v-417q11 -60 49 -121t82 -93l-117 -176h-38l-34 236h-26v2q-53 -71 -131 -145t-120 -85h-149l-19 25l36 199h97q45 4 96 16.5t108 42t80 68.5l-3 261q-1 119 -30 167.5t-98 48.5h-208l-23 28l73 271l61 22q23 -71 43.5 -91
t70.5 -20z" />
    <glyph glyph-name="dalet" unicode="&#x5d3;" horiz-adv-x="994" 
d="M88 828l-23 28l73 271l61 22q23 -71 43.5 -91t70.5 -20h602l18 -23l-49 -187h-97l55 -565q20 -211 -104 -271h-48l10 836h-612z" />
    <glyph glyph-name="he" unicode="&#x5d4;" horiz-adv-x="1047" 
d="M134 -8v398q0 82 25 141t51 78h39l21 -336q15 -222 -98 -281h-38zM95 828l-23 28l73 271l61 22q23 -71 43.5 -91t70.5 -20h645l18 -23l-49 -187h-79l68 -565q25 -208 -93 -271h-48l-5 836h-682z" />
    <glyph glyph-name="vav" unicode="&#x5d5;" horiz-adv-x="517" 
d="M333 -8v650q0 62 -28.5 94.5t-81.5 52.5l-148 58l-23 28l68 253l60 20q20 -61 34 -84t42 -35l45 -21q64 -28 91 -79t31 -156l24 -700q1 -25 -13.5 -50.5t-30.5 -30.5h-70z" />
    <glyph glyph-name="zayin" unicode="&#x5d6;" horiz-adv-x="547" 
d="M318 792q-35 -49 -35 -158q0 -93 45 -318l12 -58q27 -134 -58 -266h-40q-33 119 -56 265t-23 265q0 107 84 295l-173 63l-23 28l64 217l60 19q19 -49 32 -67.5t39 -26.5l206 -71l18 -23l-28 -209z" />
    <glyph glyph-name="het" unicode="&#x5d7;" horiz-adv-x="1057" 
d="M125 -8l15 508q3 103 28 190t58 138h-132l-23 28l73 271l61 22q23 -71 43.5 -91t70.5 -20h656l18 -23l-49 -187h-95l85 -569q15 -101 -12 -169.5t-81 -97.5h-48l-22 836h-471q-24 -42 -29 -116.5t4 -257.5l7 -136q7 -105 -22.5 -197t-79.5 -129h-55z" />
    <glyph glyph-name="tet" unicode="&#x5d8;" horiz-adv-x="1027" 
d="M476 683l-54 40l217 297l38 31q33 3 59 3q62 0 107.5 -29t72 -81.5t39.5 -121t13 -152.5q0 -318 -143 -670h-612l-23 16q-30 75 -53.5 199.5t-23.5 250.5q0 232 91 362h-107l-23 28l73 271l61 22q23 -71 43.5 -91t70.5 -20h85l18 -23l-49 -187h-100q-58 -90 -58 -244
q0 -108 27 -214t65 -159h497q21 50 39 152.5t18 199.5q0 78 -12 136.5t-43.5 98.5t-81.5 40h-90q-33 -12 -77.5 -57t-83.5 -98z" />
    <glyph glyph-name="yod" unicode="&#x5d9;" horiz-adv-x="553" 
d="M372 996q82 -38 96 -125t-38.5 -182t-151.5 -160l-45 53q59 50 69.5 111.5t-39.5 86.5l-172 81l-23 28l74 236l60 19q19 -52 31.5 -71t39.5 -31z" />
    <glyph glyph-name="kaf.final" unicode="&#x5da;" horiz-adv-x="960" 
d="M87 828l-23 28l73 271l61 22q23 -71 43.5 -91t70.5 -20h431q111 -29 116 -258l25 -1077q1 -25 -13.5 -50.5t-30.5 -30.5h-70l-5 1019q0 98 -34 142.5t-84 44.5h-560z" />
    <glyph glyph-name="kaf" unicode="&#x5db;" horiz-adv-x="927" 
d="M559 828h-443l-23 28l73 271l61 22q23 -71 43.5 -91t70.5 -20h294q124 0 180 -119t56 -385q0 -257 -93.5 -395.5t-254.5 -138.5h-433l-23 16l45 195h431q116 0 168.5 73.5t52.5 235.5q0 126 -19.5 191.5t-62 91t-123.5 25.5z" />
    <glyph glyph-name="lamed" unicode="&#x5dc;" horiz-adv-x="960" 
d="M189 1262q0 -168 22 -225h431q77 0 124 -14t73.5 -51t35.5 -88.5t9 -137.5q0 -214 -72 -363.5t-234 -229.5l-326 -161h-28l48 227l284 134q86 42 137.5 99.5t67.5 111.5t16 122q0 85 -42 112t-167 27h-466l-30 43q0 165 52 568q12 86 24.5 123.5t31.5 49.5t60 12
q88 0 137 -11l-24 -185h-89q-43 0 -59 -36t-16 -127z" />
    <glyph glyph-name="mem.final" unicode="&#x5dd;" horiz-adv-x="1014" 
d="M331 1038h454q47 0 75 -29t44 -107.5t16 -217.5v-488q0 -82 -18 -139t-53 -57h-711l-23 16l3 505q1 229 125 307h-137l-23 28l73 271l61 22q23 -71 43.5 -91t70.5 -20zM340 828q-37 -17 -60 -44.5t-37.5 -84t-14.5 -142.5v-249q0 -35 2.5 -53t15.5 -32.5t39 -14.5h476
q15 0 26 5t17.5 18t10.5 25t5.5 35.5t2 40t0.5 47.5v251q0 103 -29 150.5t-95 47.5h-359z" />
    <glyph glyph-name="mem" unicode="&#x5de;" horiz-adv-x="1066" 
d="M306 1038h12q98 0 45 -197l-26 -89h15l238 257l41 31h146q45 0 81 -29t59 -81t37 -113t21 -135l39 -434q8 -64 2 -109t-14.5 -72t-29.5 -42t-42 -20t-52 -5h-477l-23 16l48 193h404q52 0 70 34.5t10 125.5l-25 269q-8 77 -53.5 133.5t-93.5 56.5h-150q-56 -12 -128.5 -68
t-126.5 -125l-49 -383q-28 -199 -124 -260h-84l149 587q28 113 32.5 168t-8 71t-47.5 16h-115l-23 28l73 265l61 22q22 -71 41.5 -91t66.5 -20z" />
    <glyph glyph-name="nun.final" unicode="&#x5df;" horiz-adv-x="518" 
d="M422 773l24 -1070q1 -26 -13.5 -51t-30.5 -30h-75l5 1020q0 56 -27 87.5t-83 53.5l-148 58l-23 28l68 259l60 20q20 -61 34 -84t42 -35l45 -21q65 -29 92.5 -78.5t29.5 -156.5z" />
    <glyph glyph-name="nun" unicode="&#x5e0;" horiz-adv-x="589" 
d="M503 743l7 -590q1 -53 -5 -84t-29 -69h-409l7 194h252q34 0 59 22t25 63v332q0 64 -26.5 98t-88.5 72l-176 99l-23 28l68 217l60 20q18 -53 34 -76.5t42 -39.5l89 -56q62 -40 87.5 -86t26.5 -144z" />
    <glyph glyph-name="samekh" unicode="&#x5e1;" horiz-adv-x="992" 
d="M328 1038h355q67 0 114.5 -31.5t74 -91.5t38.5 -136.5t12 -177.5t-15 -190.5t-48.5 -168.5t-83 -135.5t-123 -89.5t-164.5 -33h-41q-68 0 -125.5 26.5t-98 72.5t-69.5 108t-42.5 133.5t-13.5 148.5q0 106 29 201.5t79 153.5h-103l-23 28l73 271l61 22q23 -71 43.5 -91
t70.5 -20zM292 828q-81 -103 -81 -289q0 -152 70 -245.5t200 -93.5h49q74 0 130 29.5t89 80t49 111t16 129.5q0 144 -42.5 211t-129.5 67h-350z" />
    <glyph glyph-name="ayin" unicode="&#x5e2;" horiz-adv-x="987" 
d="M419 -40l-351 -71l-18 18l28 202l318 57l-43 274q-36 228 -58.5 305t-59.5 77h-138l-23 28l73 277l61 22q14 -71 25.5 -90t42.5 -19h8q14 0 25.5 -4t21 -14t16 -19.5t13 -30t10.5 -35t9 -44t7.5 -49l7.5 -56.5l84 -607q41 8 72 16.5t57 22t43.5 27.5t32 37t24 45.5
t17.5 59.5t13.5 71.5t12.5 88.5q22 173 12 273h-98l-23 28l73 277l61 22q23 -70 43.5 -89.5t70.5 -19.5h62l18 -23l-50 -195h-68q4 -126 -10 -261q-11 -98 -24 -169t-34.5 -136.5t-52 -110.5t-74 -83t-102 -62t-135.5 -40z" />
    <glyph glyph-name="pe.final" unicode="&#x5e3;" horiz-adv-x="912" 
d="M101 828l-23 28l73 271l61 22q23 -71 43.5 -91t70.5 -20h298q85 0 137.5 -83.5t57.5 -241.5l29 -1010q1 -25 -13.5 -50.5t-30.5 -30.5h-70l-5 962q-1 135 -42 189.5t-120 54.5h-259q-28 -17 -46 -51.5t-23.5 -62.5t-5.5 -51q0 -73 22 -99.5t78 -26.5h142l-35 -202
q-88 -9 -249 -9q-38 0 -61.5 33.5t-23.5 97.5v63q0 88 35 171.5t79 136.5h-119z" />
    <glyph glyph-name="pe" unicode="&#x5e4;" horiz-adv-x="952" 
d="M340 1038h321q120 0 177.5 -125t57.5 -399q0 -258 -48.5 -386t-158.5 -128h-590l-23 16l40 190h518q82 0 118.5 69t36.5 225q0 136 -19.5 207t-61.5 98.5t-123 27.5h-274q-29 -16 -46.5 -48.5t-22.5 -57.5t-5 -47q0 -48 22 -65.5t78 -17.5h152l-35 -197q-88 -9 -249 -9
q-38 0 -61.5 27t-23.5 79v73q0 69 30.5 143.5t67.5 119.5h-103l-23 28l73 266l61 22q23 -71 43.5 -91t70.5 -20z" />
    <glyph glyph-name="tsadi.final" unicode="&#x5e5;" horiz-adv-x="1026" 
d="M453 347l241 481h-105l-23 28l73 271l61 22q23 -71 43.5 -91t70.5 -20h132l18 -23l-49 -187h-109q-95 -138 -195.5 -348t-128.5 -370l29 -349q4 -45 -7.5 -84t-30.5 -55h-77l-29 643q-6 120 -11.5 193.5t-14.5 135t-18.5 93t-28 56t-38 35t-53.5 20.5l-129 45l-23 28
l68 257l60 20q21 -62 35 -85t41 -31l26 -8q62 -28 86.5 -76.5t35.5 -161.5z" />
    <glyph glyph-name="tsadi" unicode="&#x5e6;" horiz-adv-x="1046" 
d="M334 1038q39 0 62.5 -63t23.5 -195q0 -67 15 -95.5t75 -84.5l113 -106l99 334h-115l-23 28l73 271l61 22q23 -71 43.5 -91t70.5 -20h132l18 -23l-49 -187h-118q-36 -62 -65 -176t-35 -231l193 -185l16 -25q5 -49 -12 -118.5t-33 -92.5h-790l-23 16l58 191h563v20
l-270 260q-50 48 -62.5 96t-12.5 139q0 52 -22 79t-62 27h-155l-23 28l73 271l61 22q22 -71 41.5 -91t66.5 -20h12z" />
    <glyph glyph-name="qof" unicode="&#x5e7;" horiz-adv-x="938" 
d="M125 -378v741q0 105 37 176.5t71 88.5l35 -10q-15 -75 -19 -133.5t0 -253.5l14 -338q5 -115 -20 -179t-81 -92h-37zM323 1038h318q47 0 89 -19t77.5 -58.5t56.5 -108.5t21 -160q0 -79 -7.5 -142t-25.5 -111t-36.5 -82t-52 -66t-60 -52t-71.5 -50l-199 -132l-18 18l8 205
l134 85l54.5 34.5l44 29.5t39 29l29 26.5t25.5 29.5t16.5 30.5t13 36.5l5.5 41t3 50q0 87 -55.5 121.5t-164.5 34.5h-469l-23 28l73 271l61 22q23 -71 43.5 -91t70.5 -20z" />
    <glyph glyph-name="resh" unicode="&#x5e8;" horiz-adv-x="912" 
d="M313 1038h369q64 0 92.5 -62.5t33.5 -209.5l22 -693q1 -25 -13.5 -50.5t-30.5 -30.5h-70v643q0 102 -20 146.5t-73 44.5h-535l-23 28l73 273l61 22q23 -71 43.5 -91t70.5 -20z" />
    <glyph glyph-name="shin" unicode="&#x5e9;" horiz-adv-x="1183" 
d="M763 1038l18 -23l-49 -184h-80l-164 -617h53q76 0 132 30.5t104.5 104.5t88.5 188.5t83 293.5h-84l-23 28l51 179h259l18 -23l-49 -184h-83q-53 -236 -110 -394.5t-127.5 -256t-152.5 -139t-189 -41.5h-245l-23 16q-28 67 -48 172t-26.5 222.5t15 233t72.5 187.5h-111
l-23 28l73 268l61 22q23 -71 43.5 -91t70.5 -20h62l18 -23l-49 -184h-72q-35 -59 -47.5 -147.5t-5 -174.5t27.5 -164t49 -125h83q33 58 90 272t82 339h-80l-23 28l45 179h265z" />
    <glyph glyph-name="tav" unicode="&#x5ea;" horiz-adv-x="1084" 
d="M353 221q0 -43 -7.5 -81t-23.5 -70.5t-45 -51t-68 -18.5h-163l35 217h99q22 0 37 24.5t15 58.5q0 20 -9.5 122t-9.5 138q0 150 68 268h-91l-23 28l73 271l61 22q23 -71 43.5 -91t70.5 -20h439q67 0 97 -61t35 -204l22 -700q1 -25 -13.5 -50.5t-30.5 -30.5h-76v650
q0 100 -20 143t-73 43h-428q-56 -69 -55 -204q0 -62 20.5 -201.5t20.5 -201.5z" />
    <glyph glyph-name="a.alt" horiz-adv-x="830" 
d="M222 215q0 -42 30.5 -79t81.5 -37q48 0 96 28t78 61v240q-156 -31 -221 -83.5t-65 -129.5zM47 168q0 57 27 108.5t80.5 96t144.5 74.5t209 38v55q0 48 -8 88t-26 75t-52 54.5t-81 19.5q-61 0 -127.5 -25t-109.5 -56l-32 68q48 55 143.5 95.5t217.5 40.5q127 0 182 -73.5
t55 -233.5v-363q0 -70 21.5 -96.5t90.5 -37.5l50 -9l-13 -86q-8 -1 -54.5 -10t-81.5 -9q-79 0 -117 41t-38 93v15h-11q-12 -24 -32 -47.5t-52.5 -49.5t-82 -42t-107.5 -16q-82 0 -139 52t-57 140z" />
    </font>
</defs>
</svg>
