<?xml version="1.0" encoding="utf-8"?>
<!-- Generator: Adobe Illustrator 16.0.0, SVG Export Plug-In . SVG Version: 6.00 Build 0)  -->
<!DOCTYPE svg PUBLIC "-//W3C//DTD SVG 1.1//EN" "http://www.w3.org/Graphics/SVG/1.1/DTD/svg11.dtd">
<svg version="1.1" id="Capa_1" xmlns="http://www.w3.org/2000/svg" xmlns:xlink="http://www.w3.org/1999/xlink" x="0px" y="0px"
	 width="612px" height="612px" viewBox="0 0 612 612" enable-background="new 0 0 612 612" xml:space="preserve">
<g id="facebook">
	<g>
		<path fill="#FFFFFF" d="M472.42,4.479l-92.131,0.042c0,0-1.867-0.141-5.225-0.141c-18.904,0-114.502,5.252-140.512,107.762
			c-0.407,1.137-9.157,26.796-9.297,86.47h-87.397c-7.752,0-14.044,6.292-14.044,14.044v80.53c0,7.752,6.292,14.044,14.044,14.044
			h95.585v289.226c0,7.753,6.292,14.045,14.043,14.045h109.447c7.752,0,14.045-6.292,14.045-14.045V307.523h95.893
			c7.754,0,14.045-6.291,14.045-14.043v-80.824c0-7.752-6.291-14.044-14.045-14.044h-95.697v-34.563
			c0-23.019,14.606-47.609,55.616-47.609h45.63c7.751,0,14.043-6.292,14.043-14.044V18.523
			C486.463,10.771,480.184,4.479,472.42,4.479z M458.375,88.352H426.79c-57.82,0-83.703,38.018-83.703,75.698v48.608
			c0,7.752,6.291,14.044,14.043,14.044h95.696v52.736h-95.893c-7.754,0-14.045,6.292-14.045,14.044v288.931h-81.358V293.187
			c0-7.753-6.292-14.045-14.044-14.045h-95.584v-52.44h87.509c3.777,0,7.386-1.517,10.028-4.213
			c2.641-2.696,4.086-6.333,4.017-10.112c-1.25-63.874,7.527-90.769,7.95-92.13c20.714-81.442,92.24-87.777,113.658-87.777
			c1.951,0,3.118,0.057,4.255,0.099h79.056V88.352L458.375,88.352z"/>
	</g>
</g>
</svg>
