<?xml version="1.0" encoding="utf-8"?>
<!-- Generator: Adobe Illustrator 16.0.0, SVG Export Plug-In . SVG Version: 6.00 Build 0)  -->
<!DOCTYPE svg PUBLIC "-//W3C//DTD SVG 1.1//EN" "http://www.w3.org/Graphics/SVG/1.1/DTD/svg11.dtd">
<svg version="1.1" id="Capa_1" xmlns="http://www.w3.org/2000/svg" xmlns:xlink="http://www.w3.org/1999/xlink" x="0px" y="0px"
	 width="612px" height="612px" viewBox="0 0 612 612" enable-background="new 0 0 612 612" xml:space="preserve">
<g>
	<g id="instagram">
		<g>
			<path fill="#FFFFFF" d="M513.381,84.865h-56.158c-18.346,0-33.28,14.936-33.28,33.281v56.144
				c0,18.345,14.936,33.281,33.28,33.281h56.158c18.345,0,33.281-14.936,33.281-33.281v-56.144
				C546.662,99.8,531.726,84.865,513.381,84.865z M517.519,174.29c0,2.288-1.851,4.138-4.138,4.138h-56.158
				c-2.288,0-4.139-1.851-4.139-4.138v-56.144c0-2.288,1.865-4.138,4.139-4.138h56.158c2.272,0,4.138,1.851,4.138,4.138V174.29z
				 M480.857,7.286H131.143C58.839,7.286,0,66.125,0,138.429v335.142c0,72.305,58.839,131.143,131.143,131.143h349.714
				C553.16,604.714,612,545.876,612,473.571V138.429C612,66.125,553.16,7.286,480.857,7.286z M582.857,473.571
				c0,56.246-45.756,102-102,102H131.143c-56.246,0-102-45.754-102-102V255h146.895c-27.802,30.979-44.895,71.764-44.895,116.57
				c0,96.421,78.438,174.857,174.857,174.857S480.857,467.99,480.857,371.57c0-44.807-17.094-85.591-44.896-116.57h146.896V473.571z
				 M306,225.857c80.347,0,145.714,65.368,145.714,145.713c0,80.349-65.367,145.716-145.714,145.716
				c-80.347,0-145.714-65.367-145.714-145.716C160.286,291.225,225.653,225.857,306,225.857z M582.857,225.857H402.448
				c-27.671-18.375-60.808-29.143-96.448-29.143c-35.627,0-68.777,10.768-96.448,29.143H29.143v-87.428c0-56.246,45.754-102,102-102
				h349.714c56.244,0,102,45.754,102,102V225.857z M306,473.571c56.246,0,102-45.754,102-102.001
				c0-56.243-45.754-101.999-102-101.999S204,315.326,204,371.57C204,427.817,249.754,473.571,306,473.571z M306,298.715
				c40.174,0,72.857,32.686,72.857,72.855c0,40.175-32.685,72.857-72.857,72.857s-72.857-32.684-72.857-72.857
				C233.143,331.398,265.827,298.715,306,298.715z"/>
		</g>
	</g>
</g>
</svg>
