<?xml version="1.0" encoding="utf-8"?>
<!-- Generator: Adobe Illustrator 16.0.0, SVG Export Plug-In . SVG Version: 6.00 Build 0)  -->
<!DOCTYPE svg PUBLIC "-//W3C//DTD SVG 1.1//EN" "http://www.w3.org/Graphics/SVG/1.1/DTD/svg11.dtd">
<svg version="1.1" id="Capa_1" xmlns="http://www.w3.org/2000/svg" xmlns:xlink="http://www.w3.org/1999/xlink" x="0px" y="0px"
	 width="612px" height="612px" viewBox="0 0 612 612" enable-background="new 0 0 612 612" xml:space="preserve">
<path fill="#FFFFFF" d="M197.553,543.219c-68.018,0-134.159-19.371-191.294-56.047c-5.333-3.428-7.591-10.065-5.469-16.051
	c2.122-5.986,8.189-9.795,14.42-8.896c47.912,5.576,97.919-4.164,139.873-28.159c-41.491-12.462-75.228-44.595-88.859-87.199
	c-1.469-4.598-0.408-9.604,2.802-13.195c1.959-2.178,4.543-3.646,7.346-4.244c-32.404-24.678-52.864-63.639-52.864-106.436
	c0-4.816,2.558-10.012,6.72-12.461c4.163-2.449,9.305-3.21,13.495-0.925c1.197,0.68,2.421,1.333,3.646,1.932
	c-14.719-21.739-22.881-47.749-22.881-74.902c0-23.562,6.23-46.796,18.093-67.146c2.231-3.863,6.23-6.366,10.692-6.72
	c4.435-0.326,8.761,1.524,11.59,4.952c55.04,67.501,134.703,110.298,220.624,119.086c-0.381-4.108-0.571-8.298-0.571-12.434
	c0-73.65,59.936-133.588,133.586-133.588c34.199,0,67.312,13.25,92.016,36.648c22.719-5.197,44.484-13.93,64.809-25.983
	c4.869-2.83,10.965-2.422,15.398,1.061c4.408,3.537,6.203,9.414,4.488,14.801c-4.326,13.522-10.746,26.173-18.99,37.519
	c5.66-1.959,11.209-4.163,16.68-6.584c5.469-2.503,12.023-0.979,15.916,3.7c3.891,4.625,4.244,11.291,0.896,16.324
	c-15.807,23.562-35.068,44.103-57.299,61.162c0.082,2.938,0.109,5.904,0.109,8.842C552.527,362.728,419.727,543.219,197.553,543.219
	z M68.863,489.676c40.458,17.33,84.125,26.336,128.69,26.336c205.169,0,327.765-166.645,327.765-327.765
	c0-4.979-0.137-9.985-0.326-14.964c-0.189-4.571,1.932-8.924,5.633-11.59c9.795-7.074,18.99-14.882,27.506-23.371
	c-8.869,2.041-17.875,3.619-26.99,4.707c-6.311,0.898-12.404-2.993-14.5-9.087c-2.068-6.067,0.381-12.76,5.877-16.08
	c10.801-6.475,20.27-14.746,28.051-24.296c-13.576,5.197-27.562,9.25-41.846,12.025c-4.57,0.953-9.332-0.571-12.543-4.026
	c-20.023-21.331-48.348-33.574-77.676-33.574c-58.66,0-106.381,47.721-106.381,106.38c0,8.135,0.926,16.324,2.775,24.269
	c0.951,4.136-0.082,8.516-2.83,11.808c-2.721,3.265-6.828,5.523-11.1,4.843c-92.858-4.68-180.33-45.953-243.179-114.189
	c-4.026,11.373-6.094,23.398-6.094,35.533c0,35.696,17.685,68.753,47.286,88.533c5.061,3.374,7.264,9.658,5.414,15.454
	c-1.85,5.768-7.591,9.25-13.358,9.468c-12.978-0.408-25.875-2.721-38.172-6.856c8.407,42.144,40.811,75.555,83.146,84.07
	c6.203,1.252,10.719,6.557,10.91,12.869c0.218,6.285-3.917,11.916-9.985,13.604c-11.726,3.185-24.051,4.979-36.104,4.734
	c18.229,32.24,52.456,53.218,90.655,53.979c5.741,0.108,10.801,3.863,12.624,9.305c1.823,5.442,0,11.482-4.517,15.021
	C161.368,466.768,116.584,484.779,68.863,489.676z"/>
</svg>
