<?xml version="1.0" encoding="utf-8"?>
<!-- Generator: Adobe Illustrator 16.0.0, SVG Export Plug-In . SVG Version: 6.00 Build 0)  -->
<!DOCTYPE svg PUBLIC "-//W3C//DTD SVG 1.1//EN" "http://www.w3.org/Graphics/SVG/1.1/DTD/svg11.dtd">
<svg version="1.1" id="Capa_1" xmlns="http://www.w3.org/2000/svg" xmlns:xlink="http://www.w3.org/1999/xlink" x="0px" y="0px"
	 width="612px" height="612px" viewBox="0 0 612 612" enable-background="new 0 0 612 612" xml:space="preserve">
<g>
	<g id="pinterest">
		<g>
			<path fill="#FFFFFF" d="M540.21,151.261c-9.259-31.388-24.149-57.837-45.507-80.834c-20.898-22.483-44.925-39.523-73.456-52.098
				C400.699,9.287,367.497-1.5,325.983-1.5c-3.614,0-7.281,0.082-10.937,0.257c-12.494,0.569-25.759,1.286-38.44,3.114
				c-35.436,5.076-66.622,15.674-95.331,32.39c-36.708,21.373-65.349,50.433-85.125,86.383
				c-10.3,18.707-20.425,51.665-24.716,73.187c-5.103,25.487-0.596,69.653,9.637,94.518c12.642,30.698,23.646,45.073,49.039,64.05
				c0.163,0.108,15.661,11.612,27.288,11.612h0.013c20.25-0.378,24.202-19.464,26.083-28.627c0.338-1.638,0.663-3.262,1.069-4.764
				c0.352-1.354,0.799-2.803,1.259-4.291c2.762-8.988,6.551-21.292,0.148-32.432c-2.355-4.115-5.116-7.255-7.566-10.029
				c-1.259-1.435-2.518-2.815-3.533-4.332c-8.893-13.292-13.414-29.927-13.414-49.472c0-25.771,5.807-49.107,17.772-71.345
				c21.657-40.295,57.661-65.742,104.061-73.58c26.002-4.372,57.838-2.395,80.374,4.846c21.021,6.754,38.915,18.72,51.76,34.624
				c13.591,16.797,21.359,38.157,23.092,63.481c0.853,12.454,0.366,26.272-1.556,43.476c-4.683,41.812-16.784,75.447-35.978,99.986
				c-15.58,19.939-32.322,29.928-51.179,30.578l-2.544,0.041c-10.883,0-19.112-2.438-26.706-7.893
				c-7.634-5.483-12.182-12.223-14.333-21.21c-2.45-10.301,0.555-21.184,3.736-32.702l0.514-1.868
				c2.829-10.247,5.767-19.614,8.649-28.831c4.576-14.619,9.299-29.724,13.211-47.267c4.439-19.911,5.022-36.031,1.787-49.283
				c-4.021-16.54-12.886-28.938-26.368-36.87c-13.86-8.108-34.583-9.908-51.394-4.116c-25.108,8.596-44.261,31.43-52.531,62.629
				c-4.196,15.769-5.401,32.323-3.6,49.188c1.38,13.089,4.277,24.959,9.61,39.226c-0.149,0.488-0.298,0.975-0.447,1.462
				c-0.393,1.312-0.758,2.559-1.029,3.654c-5.861,24.539-11.56,48.754-17.244,72.93c-5.292,22.468-10.571,44.911-15.972,67.583
				l-1.205,5.062c-5.618,23.416-11.411,47.631-12.764,76.623l-0.595,11.979c-1.177,22.471-2.396,45.697,0.623,67.326
				c0.568,4.021,2.017,14.146,11.789,17.771c1.759,1.287,4.764,2.924,8.906,2.924l0,0c7.878,0,12.941-5.359,21.197-14.809
				c19.085-21.777,35.314-49.281,49.634-84.055c6.402-15.564,10.64-32.295,14.741-48.455l2.45-9.584
				c2.856-10.991,5.658-22.131,8.419-33.162c4.994,4.168,10.665,7.999,17.136,11.6c15.377,8.554,32.716,13.534,51.557,14.809
				c18.3,1.298,36.127-1.043,56.565-6.946c15.512-4.438,30.388-11.19,44.207-20.059c49.419-31.754,83.106-87.275,94.856-156.334
				c3.506-20.628,5.008-37.195,5.008-55.374C547.668,187.09,545.15,167.95,540.21,151.261z M515.967,258.95
				c-10.448,61.451-39.861,110.502-82.809,138.103c-11.588,7.443-24.053,13.102-37.047,16.824
				c-17.394,5.007-32.079,6.971-47.252,5.954c-15.052-1.016-28.209-4.764-40.241-11.465c-12.074-6.713-19.87-13.899-25.325-23.321
				c-2.762-4.765-8.122-7.403-13.562-6.633c-5.442,0.76-9.895,4.725-11.261,10.058l-6.091,24.133
				c-2.843,11.356-5.726,22.848-8.677,34.179l-2.477,9.744c-4.034,15.959-7.851,31.025-13.536,44.805
				c-12.128,29.465-25.568,53.018-40.958,71.805c-0.906-15.484-0.014-32.594,0.853-49.242l0.609-12.141
				c1.219-26.422,6.727-49.377,12.047-71.563l1.219-5.088c5.414-22.687,10.706-45.155,15.999-67.663
				c5.685-24.149,11.37-48.322,17.217-72.795l0.636-2.26c1.448-4.873,3.1-10.396,0.893-15.972
				c-5.144-13.224-7.851-23.769-9.069-35.301c-1.435-13.576-0.488-26.841,2.856-39.401c5.915-22.321,18.719-38.346,35.165-43.977
				c3.858-1.327,8.014-2.003,12.372-2.003c6.226,0,12.399,1.448,16.527,3.871c7.012,4.116,11.519,10.64,13.779,19.924
				c2.207,9.002,1.557,21.453-1.909,36.993c-3.668,16.432-8.013,30.333-12.628,45.06c-2.978,9.501-5.996,19.166-8.92,29.736
				l-0.515,1.841c-3.762,13.645-8.04,29.102-3.965,46.185c3.681,15.497,11.816,27.584,24.878,36.938
				c12.142,8.717,26.042,12.967,42.488,12.967l3.465-0.055c26.977-0.92,51.069-14.699,71.59-40.958
				c22.319-28.533,36.302-66.77,41.554-113.643c2.112-18.882,2.639-34.245,1.665-48.349c-2.125-30.983-11.897-57.431-29.048-78.641
				c-16.161-20.005-38.468-35.003-64.536-43.381c-26.584-8.555-62.928-10.855-93.152-5.766
				c-54.954,9.285-97.631,39.524-123.402,87.452c-14.131,26.272-20.993,53.817-20.993,84.178c0,25,6.051,46.711,17.989,64.523
				c1.665,2.477,3.642,4.792,5.685,7.133c1.759,2.003,3.424,3.898,4.277,5.306c0.487,1.977-1.38,8.068-2.396,11.342
				c-0.582,1.883-1.124,3.683-1.57,5.374c-0.514,1.964-0.947,4.062-1.395,6.173c-0.366,1.745-0.88,4.277-1.435,6.158
				c-2.856-1.312-6.903-3.627-9.217-5.346c-21.508-16.08-29.4-26.422-40.214-52.68c-8.122-19.735-12.142-58.812-8.135-78.912
				c4.521-22.59,14.132-51.354,21.887-65.444c17.38-31.591,42.623-57.174,75.014-76.028c25.663-14.93,53.641-24.418,85.571-28.993
				c11.492-1.651,23.498-2.301,35.829-2.855c40.769-1.828,74.296,8.608,94.044,17.298c25.095,11.059,46.196,26.016,64.537,45.75
				c18.448,19.87,31.335,42.786,39.389,70.074c4.209,14.198,6.334,30.752,6.334,49.188
				C520.597,224.705,519.202,239.905,515.967,258.95z"/>
		</g>
	</g>
</g>
</svg>
